<?xml version="1.0" encoding="UTF-8" standalone="no"?>
<!DOCTYPE svg PUBLIC "-//W3C//DTD SVG 1.1//EN"
 "http://www.w3.org/Graphics/SVG/1.1/DTD/svg11.dtd">
<!-- Generated by graphviz version 2.38.0 (20140413.2041)
 -->
<!-- Title: controllers_diagram Pages: 1 -->
<svg width="1050pt" height="959pt"
 viewBox="0.00 0.00 1050.05 959.00" xmlns="http://www.w3.org/2000/svg" xmlns:xlink="http://www.w3.org/1999/xlink">
<g id="graph0" class="graph" transform="scale(1 1) rotate(0) translate(436.217 487.5)">
<title>controllers_diagram</title>
<polygon fill="none" stroke="none" points="-436.217,471.5 -436.217,-487.5 613.831,-487.5 613.831,471.5 -436.217,471.5"/>
<!-- _diagram_info -->
<g id="node1" class="node"><title>_diagram_info</title>
<text text-anchor="start" x="206.28" y="386.4" font-family="Times,serif" font-size="13.00">Controllers diagram</text>
<text text-anchor="start" x="206.28" y="399.4" font-family="Times,serif" font-size="13.00">Date: Apr 01 2016 &#45; 17:56</text>
<text text-anchor="start" x="206.28" y="412.4" font-family="Times,serif" font-size="13.00">Generated by RailRoady 1.4.2</text>
<text text-anchor="start" x="206.28" y="425.4" font-family="Times,serif" font-size="13.00">http://railroady.prestonlee.com</text>
</g>
<!-- AdminController -->
<g id="node2" class="node"><title>AdminController</title>
<path fill="none" stroke="black" d="M-420.217,197C-420.217,197 -331.783,197 -331.783,197 -325.783,197 -319.783,191 -319.783,185 -319.783,185 -319.783,119 -319.783,119 -319.783,113 -325.783,107 -331.783,107 -331.783,107 -420.217,107 -420.217,107 -426.217,107 -432.217,113 -432.217,119 -432.217,119 -432.217,185 -432.217,185 -432.217,191 -426.217,197 -420.217,197"/>
<text text-anchor="middle" x="-376" y="122.2" font-family="Times,serif" font-size="14.00">AdminController</text>
<polyline fill="none" stroke="black" points="-432.217,129 -319.783,129 "/>
<text text-anchor="start" x="-424.217" y="144.2" font-family="Times,serif" font-size="14.00">check_auth</text>
<polyline fill="none" stroke="black" points="-432.217,151 -319.783,151 "/>
<polyline fill="none" stroke="black" points="-432.217,175 -319.783,175 "/>
<text text-anchor="start" x="-424.217" y="190.2" font-family="Times,serif" font-size="14.00">_layout</text>
</g>
<!-- ApplicationController -->
<g id="node3" class="node"><title>ApplicationController</title>
<path fill="none" stroke="black" d="M462.179,161C462.179,161 577.821,161 577.821,161 583.821,161 589.821,155 589.821,149 589.821,149 589.821,81 589.821,81 589.821,75 583.821,69 577.821,69 577.821,69 462.179,69 462.179,69 456.179,69 450.179,75 450.179,81 450.179,81 450.179,149 450.179,149 450.179,155 456.179,161 462.179,161"/>
<text text-anchor="middle" x="520" y="84.2" font-family="Times,serif" font-size="14.00">ApplicationController</text>
<polyline fill="none" stroke="black" points="450.179,91 589.821,91 "/>
<polyline fill="none" stroke="black" points="450.179,115 589.821,115 "/>
<polyline fill="none" stroke="black" points="450.179,139 589.821,139 "/>
<text text-anchor="start" x="458.179" y="154.2" font-family="Times,serif" font-size="14.00">_layout</text>
</g>
<!-- Frontend::CommentsController -->
<g id="node4" class="node"><title>Frontend::CommentsController</title>
<path fill="none" stroke="black" d="M-276.272,287C-276.272,287 -107.728,287 -107.728,287 -101.728,287 -95.7275,281 -95.7275,275 -95.7275,275 -95.7275,153 -95.7275,153 -95.7275,147 -101.728,141 -107.728,141 -107.728,141 -276.272,141 -276.272,141 -282.272,141 -288.272,147 -288.272,153 -288.272,153 -288.272,275 -288.272,275 -288.272,281 -282.272,287 -276.272,287"/>
<text text-anchor="middle" x="-192" y="156.2" font-family="Times,serif" font-size="14.00">Frontend::CommentsController</text>
<polyline fill="none" stroke="black" points="-288.272,163 -95.7275,163 "/>
<text text-anchor="start" x="-280.272" y="178.2" font-family="Times,serif" font-size="14.00">create</text>
<text text-anchor="start" x="-280.272" y="192.2" font-family="Times,serif" font-size="14.00">index</text>
<text text-anchor="start" x="-280.272" y="206.2" font-family="Times,serif" font-size="14.00">new</text>
<polyline fill="none" stroke="black" points="-288.272,213 -95.7275,213 "/>
<polyline fill="none" stroke="black" points="-288.272,237 -95.7275,237 "/>
<text text-anchor="start" x="-280.272" y="252.2" font-family="Times,serif" font-size="14.00">_layout</text>
<text text-anchor="start" x="-280.272" y="266.2" font-family="Times,serif" font-size="14.00">comment_params</text>
<text text-anchor="start" x="-280.272" y="280.2" font-family="Times,serif" font-size="14.00">set_comment_origin</text>
</g>
<!-- Frontend::DoctorsController -->
<g id="node5" class="node"><title>Frontend::DoctorsController</title>
<path fill="none" stroke="black" d="M-312.1,-325C-312.1,-325 -159.9,-325 -159.9,-325 -153.9,-325 -147.9,-331 -147.9,-337 -147.9,-337 -147.9,-445 -147.9,-445 -147.9,-451 -153.9,-457 -159.9,-457 -159.9,-457 -312.1,-457 -312.1,-457 -318.1,-457 -324.1,-451 -324.1,-445 -324.1,-445 -324.1,-337 -324.1,-337 -324.1,-331 -318.1,-325 -312.1,-325"/>
<text text-anchor="middle" x="-236" y="-441.8" font-family="Times,serif" font-size="14.00">Frontend::DoctorsController</text>
<polyline fill="none" stroke="black" points="-324.1,-435 -147.9,-435 "/>
<text text-anchor="start" x="-316.1" y="-419.8" font-family="Times,serif" font-size="14.00">index</text>
<text text-anchor="start" x="-316.1" y="-405.8" font-family="Times,serif" font-size="14.00">like</text>
<text text-anchor="start" x="-316.1" y="-391.8" font-family="Times,serif" font-size="14.00">show</text>
<polyline fill="none" stroke="black" points="-324.1,-385 -147.9,-385 "/>
<polyline fill="none" stroke="black" points="-324.1,-361 -147.9,-361 "/>
<text text-anchor="start" x="-316.1" y="-345.8" font-family="Times,serif" font-size="14.00">_layout</text>
<text text-anchor="start" x="-316.1" y="-331.8" font-family="Times,serif" font-size="14.00">set_doctor_disease</text>
</g>
<!-- Frontend::HospitalsController -->
<g id="node6" class="node"><title>Frontend::HospitalsController</title>
<path fill="none" stroke="black" d="M-330.383,-55C-330.383,-55 -169.617,-55 -169.617,-55 -163.617,-55 -157.617,-61 -157.617,-67 -157.617,-67 -157.617,-147 -157.617,-147 -157.617,-153 -163.617,-159 -169.617,-159 -169.617,-159 -330.383,-159 -330.383,-159 -336.383,-159 -342.383,-153 -342.383,-147 -342.383,-147 -342.383,-67 -342.383,-67 -342.383,-61 -336.383,-55 -330.383,-55"/>
<text text-anchor="middle" x="-250" y="-143.8" font-family="Times,serif" font-size="14.00">Frontend::HospitalsController</text>
<polyline fill="none" stroke="black" points="-342.383,-137 -157.617,-137 "/>
<text text-anchor="start" x="-334.383" y="-121.8" font-family="Times,serif" font-size="14.00">index</text>
<text text-anchor="start" x="-334.383" y="-107.8" font-family="Times,serif" font-size="14.00">show</text>
<polyline fill="none" stroke="black" points="-342.383,-101 -157.617,-101 "/>
<polyline fill="none" stroke="black" points="-342.383,-77 -157.617,-77 "/>
<text text-anchor="start" x="-334.383" y="-61.8" font-family="Times,serif" font-size="14.00">_layout</text>
</g>
<!-- Frontend::MainController -->
<g id="node7" class="node"><title>Frontend::MainController</title>
<path fill="none" stroke="black" d="M-203.714,431C-203.714,431 -66.2861,431 -66.2861,431 -60.2861,431 -54.2861,425 -54.2861,419 -54.2861,419 -54.2861,339 -54.2861,339 -54.2861,333 -60.2861,327 -66.2861,327 -66.2861,327 -203.714,327 -203.714,327 -209.714,327 -215.714,333 -215.714,339 -215.714,339 -215.714,419 -215.714,419 -215.714,425 -209.714,431 -203.714,431"/>
<text text-anchor="middle" x="-135" y="342.2" font-family="Times,serif" font-size="14.00">Frontend::MainController</text>
<polyline fill="none" stroke="black" points="-215.714,349 -54.2861,349 "/>
<text text-anchor="start" x="-207.714" y="364.2" font-family="Times,serif" font-size="14.00">index</text>
<text text-anchor="start" x="-207.714" y="378.2" font-family="Times,serif" font-size="14.00">upload_position</text>
<polyline fill="none" stroke="black" points="-215.714,385 -54.2861,385 "/>
<polyline fill="none" stroke="black" points="-215.714,409 -54.2861,409 "/>
<text text-anchor="start" x="-207.714" y="424.2" font-family="Times,serif" font-size="14.00">_layout</text>
</g>
<!-- Frontend::MaternitiesController -->
<g id="node8" class="node"><title>Frontend::MaternitiesController</title>
<path fill="none" stroke="black" d="M390.183,-379C390.183,-379 561.817,-379 561.817,-379 567.817,-379 573.817,-385 573.817,-391 573.817,-391 573.817,-471 573.817,-471 573.817,-477 567.817,-483 561.817,-483 561.817,-483 390.183,-483 390.183,-483 384.183,-483 378.183,-477 378.183,-471 378.183,-471 378.183,-391 378.183,-391 378.183,-385 384.183,-379 390.183,-379"/>
<text text-anchor="middle" x="476" y="-467.8" font-family="Times,serif" font-size="14.00">Frontend::MaternitiesController</text>
<polyline fill="none" stroke="black" points="378.183,-461 573.817,-461 "/>
<text text-anchor="start" x="386.183" y="-445.8" font-family="Times,serif" font-size="14.00">index</text>
<text text-anchor="start" x="386.183" y="-431.8" font-family="Times,serif" font-size="14.00">show</text>
<polyline fill="none" stroke="black" points="378.183,-425 573.817,-425 "/>
<polyline fill="none" stroke="black" points="378.183,-401 573.817,-401 "/>
<text text-anchor="start" x="386.183" y="-385.8" font-family="Times,serif" font-size="14.00">_layout</text>
</g>
<!-- Frontend::MedicalsController -->
<g id="node9" class="node"><title>Frontend::MedicalsController</title>
<path fill="none" stroke="black" d="M174.403,-379C174.403,-379 333.597,-379 333.597,-379 339.597,-379 345.597,-385 345.597,-391 345.597,-391 345.597,-471 345.597,-471 345.597,-477 339.597,-483 333.597,-483 333.597,-483 174.403,-483 174.403,-483 168.403,-483 162.403,-477 162.403,-471 162.403,-471 162.403,-391 162.403,-391 162.403,-385 168.403,-379 174.403,-379"/>
<text text-anchor="middle" x="254" y="-467.8" font-family="Times,serif" font-size="14.00">Frontend::MedicalsController</text>
<polyline fill="none" stroke="black" points="162.403,-461 345.597,-461 "/>
<text text-anchor="start" x="170.403" y="-445.8" font-family="Times,serif" font-size="14.00">index</text>
<text text-anchor="start" x="170.403" y="-431.8" font-family="Times,serif" font-size="14.00">show</text>
<polyline fill="none" stroke="black" points="162.403,-425 345.597,-425 "/>
<polyline fill="none" stroke="black" points="162.403,-401 345.597,-401 "/>
<text text-anchor="start" x="170.403" y="-385.8" font-family="Times,serif" font-size="14.00">_layout</text>
</g>
<!-- Frontend::NursingRoomsController -->
<g id="node10" class="node"><title>Frontend::NursingRoomsController</title>
<path fill="none" stroke="black" d="M-96.3311,-361C-96.3311,-361 96.3311,-361 96.3311,-361 102.331,-361 108.331,-367 108.331,-373 108.331,-373 108.331,-453 108.331,-453 108.331,-459 102.331,-465 96.3311,-465 96.3311,-465 -96.3311,-465 -96.3311,-465 -102.331,-465 -108.331,-459 -108.331,-453 -108.331,-453 -108.331,-373 -108.331,-373 -108.331,-367 -102.331,-361 -96.3311,-361"/>
<text text-anchor="middle" x="0" y="-449.8" font-family="Times,serif" font-size="14.00">Frontend::NursingRoomsController</text>
<polyline fill="none" stroke="black" points="-108.331,-443 108.331,-443 "/>
<text text-anchor="start" x="-100.331" y="-427.8" font-family="Times,serif" font-size="14.00">index</text>
<text text-anchor="start" x="-100.331" y="-413.8" font-family="Times,serif" font-size="14.00">show</text>
<polyline fill="none" stroke="black" points="-108.331,-407 108.331,-407 "/>
<polyline fill="none" stroke="black" points="-108.331,-383 108.331,-383 "/>
<text text-anchor="start" x="-100.331" y="-367.8" font-family="Times,serif" font-size="14.00">_layout</text>
</g>
<!-- Frontend::SearchesController -->
<g id="node11" class="node"><title>Frontend::SearchesController</title>
<path fill="none" stroke="black" d="M-419.814,431C-419.814,431 -262.186,431 -262.186,431 -256.186,431 -250.186,425 -250.186,419 -250.186,419 -250.186,339 -250.186,339 -250.186,333 -256.186,327 -262.186,327 -262.186,327 -419.814,327 -419.814,327 -425.814,327 -431.814,333 -431.814,339 -431.814,339 -431.814,419 -431.814,419 -431.814,425 -425.814,431 -419.814,431"/>
<text text-anchor="middle" x="-341" y="342.2" font-family="Times,serif" font-size="14.00">Frontend::SearchesController</text>
<polyline fill="none" stroke="black" points="-431.814,349 -250.186,349 "/>
<text text-anchor="start" x="-423.814" y="364.2" font-family="Times,serif" font-size="14.00">create</text>
<text text-anchor="start" x="-423.814" y="378.2" font-family="Times,serif" font-size="14.00">index</text>
<polyline fill="none" stroke="black" points="-431.814,385 -250.186,385 "/>
<polyline fill="none" stroke="black" points="-431.814,409 -250.186,409 "/>
<text text-anchor="start" x="-423.814" y="424.2" font-family="Times,serif" font-size="14.00">_layout</text>
</g>
<!-- Frontend::Users::ConfirmationsController -->
<g id="node12" class="node"><title>Frontend::Users::ConfirmationsController</title>
<path fill="none" stroke="black" d="M174.172,161C174.172,161 401.828,161 401.828,161 407.828,161 413.828,155 413.828,149 413.828,149 413.828,55 413.828,55 413.828,49 407.828,43 401.828,43 401.828,43 174.172,43 174.172,43 168.172,43 162.172,49 162.172,55 162.172,55 162.172,149 162.172,149 162.172,155 168.172,161 174.172,161"/>
<text text-anchor="middle" x="288" y="58.2" font-family="Times,serif" font-size="14.00">Frontend::Users::ConfirmationsController</text>
<polyline fill="none" stroke="black" points="162.172,65 413.828,65 "/>
<text text-anchor="start" x="170.172" y="80.2" font-family="Times,serif" font-size="14.00">reset_email_password</text>
<text text-anchor="start" x="170.172" y="94.2" font-family="Times,serif" font-size="14.00">show</text>
<polyline fill="none" stroke="black" points="162.172,101 413.828,101 "/>
<polyline fill="none" stroke="black" points="162.172,125 413.828,125 "/>
<text text-anchor="start" x="170.172" y="140.2" font-family="Times,serif" font-size="14.00">_layout</text>
<text text-anchor="start" x="170.172" y="154.2" font-family="Times,serif" font-size="14.00">set_user</text>
</g>
<!-- Frontend::Users::MeController -->
<g id="node13" class="node"><title>Frontend::Users::MeController</title>
<path fill="none" stroke="black" d="M263.9,341C263.9,341 430.1,341 430.1,341 436.1,341 442.1,335 442.1,329 442.1,329 442.1,207 442.1,207 442.1,201 436.1,195 430.1,195 430.1,195 263.9,195 263.9,195 257.9,195 251.9,201 251.9,207 251.9,207 251.9,329 251.9,329 251.9,335 257.9,341 263.9,341"/>
<text text-anchor="middle" x="347" y="210.2" font-family="Times,serif" font-size="14.00">Frontend::Users::MeController</text>
<polyline fill="none" stroke="black" points="251.9,217 442.1,217 "/>
<text text-anchor="start" x="259.9" y="232.2" font-family="Times,serif" font-size="14.00">edit</text>
<text text-anchor="start" x="259.9" y="246.2" font-family="Times,serif" font-size="14.00">index</text>
<text text-anchor="start" x="259.9" y="260.2" font-family="Times,serif" font-size="14.00">update</text>
<polyline fill="none" stroke="black" points="251.9,267 442.1,267 "/>
<polyline fill="none" stroke="black" points="251.9,291 442.1,291 "/>
<text text-anchor="start" x="259.9" y="306.2" font-family="Times,serif" font-size="14.00">_layout</text>
<text text-anchor="start" x="259.9" y="320.2" font-family="Times,serif" font-size="14.00">get_user</text>
<text text-anchor="start" x="259.9" y="334.2" font-family="Times,serif" font-size="14.00">user_params</text>
</g>
<!-- Frontend::Users::PasswordsController -->
<g id="node14" class="node"><title>Frontend::Users::PasswordsController</title>
<path fill="none" stroke="black" d="M155.672,-145C155.672,-145 362.328,-145 362.328,-145 368.328,-145 374.328,-151 374.328,-157 374.328,-157 374.328,-335 374.328,-335 374.328,-341 368.328,-347 362.328,-347 362.328,-347 155.672,-347 155.672,-347 149.672,-347 143.672,-341 143.672,-335 143.672,-335 143.672,-157 143.672,-157 143.672,-151 149.672,-145 155.672,-145"/>
<text text-anchor="middle" x="259" y="-331.8" font-family="Times,serif" font-size="14.00">Frontend::Users::PasswordsController</text>
<polyline fill="none" stroke="black" points="143.672,-325 374.328,-325 "/>
<text text-anchor="start" x="151.672" y="-309.8" font-family="Times,serif" font-size="14.00">update</text>
<text text-anchor="start" x="151.672" y="-295.8" font-family="Times,serif" font-size="14.00">email</text>
<text text-anchor="start" x="151.672" y="-281.8" font-family="Times,serif" font-size="14.00">email_edit</text>
<text text-anchor="start" x="151.672" y="-267.8" font-family="Times,serif" font-size="14.00">email_new</text>
<text text-anchor="start" x="151.672" y="-253.8" font-family="Times,serif" font-size="14.00">new</text>
<text text-anchor="start" x="151.672" y="-239.8" font-family="Times,serif" font-size="14.00">send_mail</text>
<text text-anchor="start" x="151.672" y="-225.8" font-family="Times,serif" font-size="14.00">telephone</text>
<text text-anchor="start" x="151.672" y="-211.8" font-family="Times,serif" font-size="14.00">telephone_new</text>
<text text-anchor="start" x="151.672" y="-197.8" font-family="Times,serif" font-size="14.00">edit</text>
<polyline fill="none" stroke="black" points="143.672,-191 374.328,-191 "/>
<polyline fill="none" stroke="black" points="143.672,-167 374.328,-167 "/>
<text text-anchor="start" x="151.672" y="-151.8" font-family="Times,serif" font-size="14.00">_layout</text>
</g>
<!-- Frontend::Users::RegistrationsController -->
<g id="node15" class="node"><title>Frontend::Users::RegistrationsController</title>
<path fill="none" stroke="black" d="M-113.71,107C-113.71,107 107.71,107 107.71,107 113.71,107 119.71,101 119.71,95 119.71,95 119.71,-97 119.71,-97 119.71,-103 113.71,-109 107.71,-109 107.71,-109 -113.71,-109 -113.71,-109 -119.71,-109 -125.71,-103 -125.71,-97 -125.71,-97 -125.71,95 -125.71,95 -125.71,101 -119.71,107 -113.71,107"/>
<text text-anchor="middle" x="-3" y="-93.8" font-family="Times,serif" font-size="14.00">Frontend::Users::RegistrationsController</text>
<polyline fill="none" stroke="black" points="-125.71,-87 119.71,-87 "/>
<text text-anchor="start" x="-117.71" y="-71.8" font-family="Times,serif" font-size="14.00">email_new</text>
<text text-anchor="start" x="-117.71" y="-57.8" font-family="Times,serif" font-size="14.00">check_register_telephone</text>
<text text-anchor="start" x="-117.71" y="-43.8" font-family="Times,serif" font-size="14.00">email</text>
<text text-anchor="start" x="-117.71" y="-29.8" font-family="Times,serif" font-size="14.00">check_register_email</text>
<text text-anchor="start" x="-117.71" y="-15.8" font-family="Times,serif" font-size="14.00">telephone</text>
<text text-anchor="start" x="-117.71" y="-1.8" font-family="Times,serif" font-size="14.00">telephone_new</text>
<text text-anchor="start" x="-117.71" y="12.2" font-family="Times,serif" font-size="14.00">update</text>
<polyline fill="none" stroke="black" points="-125.71,19 119.71,19 "/>
<polyline fill="none" stroke="black" points="-125.71,43 119.71,43 "/>
<text text-anchor="start" x="-117.71" y="58.2" font-family="Times,serif" font-size="14.00">_layout</text>
<text text-anchor="start" x="-117.71" y="72.2" font-family="Times,serif" font-size="14.00">send_mail</text>
<text text-anchor="start" x="-117.71" y="86.2" font-family="Times,serif" font-size="14.00">user_email_params</text>
<text text-anchor="start" x="-117.71" y="100.2" font-family="Times,serif" font-size="14.00">user_telephone_params</text>
</g>
<!-- Frontend::Users::SessionsController -->
<g id="node16" class="node"><title>Frontend::Users::SessionsController</title>
<path fill="none" stroke="black" d="M12.1138,323C12.1138,323 207.886,323 207.886,323 213.886,323 219.886,317 219.886,311 219.886,311 219.886,217 219.886,217 219.886,211 213.886,205 207.886,205 207.886,205 12.1138,205 12.1138,205 6.11377,205 0.11377,211 0.11377,217 0.11377,217 0.11377,311 0.11377,311 0.11377,317 6.11377,323 12.1138,323"/>
<text text-anchor="middle" x="110" y="220.2" font-family="Times,serif" font-size="14.00">Frontend::Users::SessionsController</text>
<polyline fill="none" stroke="black" points="0.11377,227 219.886,227 "/>
<text text-anchor="start" x="8.11377" y="242.2" font-family="Times,serif" font-size="14.00">create</text>
<text text-anchor="start" x="8.11377" y="256.2" font-family="Times,serif" font-size="14.00">destroy</text>
<text text-anchor="start" x="8.11377" y="270.2" font-family="Times,serif" font-size="14.00">new</text>
<polyline fill="none" stroke="black" points="0.11377,277 219.886,277 "/>
<polyline fill="none" stroke="black" points="0.11377,301 219.886,301 "/>
<text text-anchor="start" x="8.11377" y="316.2" font-family="Times,serif" font-size="14.00">_layout</text>
</g>
<!-- Frontend::Users::SmsController -->
<g id="node17" class="node"><title>Frontend::Users::SmsController</title>
<path fill="none" stroke="black" d="M426.169,-127C426.169,-127 597.831,-127 597.831,-127 603.831,-127 609.831,-133 609.831,-139 609.831,-139 609.831,-205 609.831,-205 609.831,-211 603.831,-217 597.831,-217 597.831,-217 426.169,-217 426.169,-217 420.169,-217 414.169,-211 414.169,-205 414.169,-205 414.169,-139 414.169,-139 414.169,-133 420.169,-127 426.169,-127"/>
<text text-anchor="middle" x="512" y="-201.8" font-family="Times,serif" font-size="14.00">Frontend::Users::SmsController</text>
<polyline fill="none" stroke="black" points="414.169,-195 609.831,-195 "/>
<text text-anchor="start" x="422.169" y="-179.8" font-family="Times,serif" font-size="14.00">create</text>
<polyline fill="none" stroke="black" points="414.169,-173 609.831,-173 "/>
<polyline fill="none" stroke="black" points="414.169,-149 609.831,-149 "/>
<text text-anchor="start" x="422.169" y="-133.8" font-family="Times,serif" font-size="14.00">_layout</text>
</g>
<!-- FrontendController -->
<g id="node18" class="node"><title>FrontendController</title>
<path fill="none" stroke="black" d="M425.952,467C425.952,467 526.048,467 526.048,467 532.048,467 538.048,461 538.048,455 538.048,455 538.048,389 538.048,389 538.048,383 532.048,377 526.048,377 526.048,377 425.952,377 425.952,377 419.952,377 413.952,383 413.952,389 413.952,389 413.952,455 413.952,455 413.952,461 419.952,467 425.952,467"/>
<text text-anchor="middle" x="476" y="392.2" font-family="Times,serif" font-size="14.00">FrontendController</text>
<polyline fill="none" stroke="black" points="413.952,399 538.048,399 "/>
<text text-anchor="start" x="421.952" y="414.2" font-family="Times,serif" font-size="14.00">auth_check</text>
<polyline fill="none" stroke="black" points="413.952,421 538.048,421 "/>
<polyline fill="none" stroke="black" points="413.952,445 538.048,445 "/>
<text text-anchor="start" x="421.952" y="460.2" font-family="Times,serif" font-size="14.00">_layout</text>
</g>
<!-- StaticPagesController -->
<g id="node19" class="node"><title>StaticPagesController</title>
<path fill="none" stroke="black" d="M-96.2588,-145C-96.2588,-145 100.259,-145 100.259,-145 106.259,-145 112.259,-151 112.259,-157 112.259,-157 112.259,-307 112.259,-307 112.259,-313 106.259,-319 100.259,-319 100.259,-319 -96.2588,-319 -96.2588,-319 -102.259,-319 -108.259,-313 -108.259,-307 -108.259,-307 -108.259,-157 -108.259,-157 -108.259,-151 -102.259,-145 -96.2588,-145"/>
<text text-anchor="middle" x="2" y="-303.8" font-family="Times,serif" font-size="14.00">StaticPagesController</text>
<polyline fill="none" stroke="black" points="-108.259,-297 112.259,-297 "/>
<text text-anchor="start" x="-100.259" y="-281.8" font-family="Times,serif" font-size="14.00">finish_user_info_for_phone_register</text>
<text text-anchor="start" x="-100.259" y="-267.8" font-family="Times,serif" font-size="14.00">find_password_by_phone</text>
<text text-anchor="start" x="-100.259" y="-253.8" font-family="Times,serif" font-size="14.00">finish_user_info_for_email_register</text>
<text text-anchor="start" x="-100.259" y="-239.8" font-family="Times,serif" font-size="14.00">find_password_by_email</text>
<text text-anchor="start" x="-100.259" y="-225.8" font-family="Times,serif" font-size="14.00">hospital_list</text>
<text text-anchor="start" x="-100.259" y="-211.8" font-family="Times,serif" font-size="14.00">register_with_email</text>
<text text-anchor="start" x="-100.259" y="-197.8" font-family="Times,serif" font-size="14.00">set_password_for_email_register</text>
<polyline fill="none" stroke="black" points="-108.259,-191 112.259,-191 "/>
<polyline fill="none" stroke="black" points="-108.259,-167 112.259,-167 "/>
<text text-anchor="start" x="-100.259" y="-151.8" font-family="Times,serif" font-size="14.00">_layout</text>
</g>
<!-- Users::ConfirmationsController -->
<g id="node20" class="node"><title>Users::ConfirmationsController</title>
<path fill="none" stroke="black" d="M-347.662,71C-347.662,71 -178.338,71 -178.338,71 -172.338,71 -166.338,65 -166.338,59 -166.338,59 -166.338,-9 -166.338,-9 -166.338,-15 -172.338,-21 -178.338,-21 -178.338,-21 -347.662,-21 -347.662,-21 -353.662,-21 -359.662,-15 -359.662,-9 -359.662,-9 -359.662,59 -359.662,59 -359.662,65 -353.662,71 -347.662,71"/>
<text text-anchor="middle" x="-263" y="-5.8" font-family="Times,serif" font-size="14.00">Users::ConfirmationsController</text>
<polyline fill="none" stroke="black" points="-359.662,1 -166.338,1 "/>
<polyline fill="none" stroke="black" points="-359.662,25 -166.338,25 "/>
<polyline fill="none" stroke="black" points="-359.662,49 -166.338,49 "/>
<text text-anchor="start" x="-351.662" y="64.2" font-family="Times,serif" font-size="14.00">_layout</text>
</g>
<!-- Users::OmniauthCallbacksController -->
<g id="node21" class="node"><title>Users::OmniauthCallbacksController</title>
<path fill="none" stroke="black" d="M173.796,-1C173.796,-1 374.204,-1 374.204,-1 380.204,-1 386.204,-7 386.204,-13 386.204,-13 386.204,-81 386.204,-81 386.204,-87 380.204,-93 374.204,-93 374.204,-93 173.796,-93 173.796,-93 167.796,-93 161.796,-87 161.796,-81 161.796,-81 161.796,-13 161.796,-13 161.796,-7 167.796,-1 173.796,-1"/>
<text text-anchor="middle" x="274" y="-77.8" font-family="Times,serif" font-size="14.00">Users::OmniauthCallbacksController</text>
<polyline fill="none" stroke="black" points="161.796,-71 386.204,-71 "/>
<polyline fill="none" stroke="black" points="161.796,-47 386.204,-47 "/>
<polyline fill="none" stroke="black" points="161.796,-23 386.204,-23 "/>
<text text-anchor="start" x="169.796" y="-7.8" font-family="Times,serif" font-size="14.00">_layout</text>
</g>
<!-- Users::PasswordsController -->
<g id="node22" class="node"><title>Users::PasswordsController</title>
<path fill="none" stroke="black" d="M425.838,-1C425.838,-1 574.162,-1 574.162,-1 580.162,-1 586.162,-7 586.162,-13 586.162,-13 586.162,-81 586.162,-81 586.162,-87 580.162,-93 574.162,-93 574.162,-93 425.838,-93 425.838,-93 419.838,-93 413.838,-87 413.838,-81 413.838,-81 413.838,-13 413.838,-13 413.838,-7 419.838,-1 425.838,-1"/>
<text text-anchor="middle" x="500" y="-77.8" font-family="Times,serif" font-size="14.00">Users::PasswordsController</text>
<polyline fill="none" stroke="black" points="413.838,-71 586.162,-71 "/>
<polyline fill="none" stroke="black" points="413.838,-47 586.162,-47 "/>
<polyline fill="none" stroke="black" points="413.838,-23 586.162,-23 "/>
<text text-anchor="start" x="421.838" y="-7.8" font-family="Times,serif" font-size="14.00">_layout</text>
</g>
<!-- Users::RegistrationsController -->
<g id="node23" class="node"><title>Users::RegistrationsController</title>
<path fill="none" stroke="black" d="M-311.545,-199C-311.545,-199 -148.455,-199 -148.455,-199 -142.455,-199 -136.455,-205 -136.455,-211 -136.455,-211 -136.455,-279 -136.455,-279 -136.455,-285 -142.455,-291 -148.455,-291 -148.455,-291 -311.545,-291 -311.545,-291 -317.545,-291 -323.545,-285 -323.545,-279 -323.545,-279 -323.545,-211 -323.545,-211 -323.545,-205 -317.545,-199 -311.545,-199"/>
<text text-anchor="middle" x="-230" y="-275.8" font-family="Times,serif" font-size="14.00">Users::RegistrationsController</text>
<polyline fill="none" stroke="black" points="-323.545,-269 -136.455,-269 "/>
<polyline fill="none" stroke="black" points="-323.545,-245 -136.455,-245 "/>
<polyline fill="none" stroke="black" points="-323.545,-221 -136.455,-221 "/>
<text text-anchor="start" x="-315.545" y="-205.8" font-family="Times,serif" font-size="14.00">_layout</text>
</g>
<!-- Users::SessionsController -->
<g id="node24" class="node"><title>Users::SessionsController</title>
<path fill="none" stroke="black" d="M12.2793,449C12.2793,449 149.721,449 149.721,449 155.721,449 161.721,443 161.721,437 161.721,437 161.721,369 161.721,369 161.721,363 155.721,357 149.721,357 149.721,357 12.2793,357 12.2793,357 6.2793,357 0.279297,363 0.279297,369 0.279297,369 0.279297,437 0.279297,437 0.279297,443 6.2793,449 12.2793,449"/>
<text text-anchor="middle" x="81" y="372.2" font-family="Times,serif" font-size="14.00">Users::SessionsController</text>
<polyline fill="none" stroke="black" points="0.279297,379 161.721,379 "/>
<polyline fill="none" stroke="black" points="0.279297,403 161.721,403 "/>
<polyline fill="none" stroke="black" points="0.279297,427 161.721,427 "/>
<text text-anchor="start" x="8.2793" y="442.2" font-family="Times,serif" font-size="14.00">_layout</text>
</g>
<!-- Users::UnlocksController -->
<g id="node25" class="node"><title>Users::UnlocksController</title>
<path fill="none" stroke="black" d="M426.065,-253C426.065,-253 561.935,-253 561.935,-253 567.935,-253 573.935,-259 573.935,-265 573.935,-265 573.935,-333 573.935,-333 573.935,-339 567.935,-345 561.935,-345 561.935,-345 426.065,-345 426.065,-345 420.065,-345 414.065,-339 414.065,-333 414.065,-333 414.065,-265 414.065,-265 414.065,-259 420.065,-253 426.065,-253"/>
<text text-anchor="middle" x="494" y="-329.8" font-family="Times,serif" font-size="14.00">Users::UnlocksController</text>
<polyline fill="none" stroke="black" points="414.065,-323 573.935,-323 "/>
<polyline fill="none" stroke="black" points="414.065,-299 573.935,-299 "/>
<polyline fill="none" stroke="black" points="414.065,-275 573.935,-275 "/>
<text text-anchor="start" x="422.065" y="-259.8" font-family="Times,serif" font-size="14.00">_layout</text>
</g>
</g>
</svg>
