<?xml version="1.0" encoding="UTF-8" standalone="no"?>
<!DOCTYPE svg PUBLIC "-//W3C//DTD SVG 1.1//EN"
 "http://www.w3.org/Graphics/SVG/1.1/DTD/svg11.dtd">
<!-- Generated by graphviz version 2.38.0 (20140413.2041)
 -->
<!-- Title: controllers_diagram Pages: 1 -->
<svg width="1196pt" height="1125pt"
 viewBox="0.00 0.00 1195.54 1125.00" xmlns="http://www.w3.org/2000/svg" xmlns:xlink="http://www.w3.org/1999/xlink">
<g id="graph0" class="graph" transform="scale(1 1) rotate(0) translate(507.821 635.5)">
<title>controllers_diagram</title>
<polygon fill="none" stroke="none" points="-507.821,489.5 -507.821,-635.5 687.721,-635.5 687.721,489.5 -507.821,489.5"/>
<!-- _diagram_info -->
<g id="node1" class="node"><title>_diagram_info</title>
<text text-anchor="start" x="422.28" y="-315.6" font-family="Times,serif" font-size="13.00">Controllers diagram</text>
<text text-anchor="start" x="422.28" y="-302.6" font-family="Times,serif" font-size="13.00">Date: Apr 05 2016 &#45; 09:53</text>
<text text-anchor="start" x="422.28" y="-289.6" font-family="Times,serif" font-size="13.00">Generated by RailRoady 1.4.2</text>
<text text-anchor="start" x="422.28" y="-276.6" font-family="Times,serif" font-size="13.00">http://railroady.prestonlee.com</text>
</g>
<!-- AdminController -->
<g id="node2" class="node"><title>AdminController</title>
<path fill="none" stroke="black" d="M-474.217,-253C-474.217,-253 -385.783,-253 -385.783,-253 -379.783,-253 -373.783,-259 -373.783,-265 -373.783,-265 -373.783,-331 -373.783,-331 -373.783,-337 -379.783,-343 -385.783,-343 -385.783,-343 -474.217,-343 -474.217,-343 -480.217,-343 -486.217,-337 -486.217,-331 -486.217,-331 -486.217,-265 -486.217,-265 -486.217,-259 -480.217,-253 -474.217,-253"/>
<text text-anchor="middle" x="-430" y="-327.8" font-family="Times,serif" font-size="14.00">AdminController</text>
<polyline fill="none" stroke="black" points="-486.217,-321 -373.783,-321 "/>
<text text-anchor="start" x="-478.217" y="-305.8" font-family="Times,serif" font-size="14.00">check_auth</text>
<polyline fill="none" stroke="black" points="-486.217,-299 -373.783,-299 "/>
<polyline fill="none" stroke="black" points="-486.217,-275 -373.783,-275 "/>
<text text-anchor="start" x="-478.217" y="-259.8" font-family="Times,serif" font-size="14.00">_layout</text>
</g>
<!-- ApplicationController -->
<g id="node3" class="node"><title>ApplicationController</title>
<path fill="none" stroke="black" d="M-491.821,-379C-491.821,-379 -376.179,-379 -376.179,-379 -370.179,-379 -364.179,-385 -364.179,-391 -364.179,-391 -364.179,-459 -364.179,-459 -364.179,-465 -370.179,-471 -376.179,-471 -376.179,-471 -491.821,-471 -491.821,-471 -497.821,-471 -503.821,-465 -503.821,-459 -503.821,-459 -503.821,-391 -503.821,-391 -503.821,-385 -497.821,-379 -491.821,-379"/>
<text text-anchor="middle" x="-434" y="-455.8" font-family="Times,serif" font-size="14.00">ApplicationController</text>
<polyline fill="none" stroke="black" points="-503.821,-449 -364.179,-449 "/>
<polyline fill="none" stroke="black" points="-503.821,-425 -364.179,-425 "/>
<polyline fill="none" stroke="black" points="-503.821,-401 -364.179,-401 "/>
<text text-anchor="start" x="-495.821" y="-385.8" font-family="Times,serif" font-size="14.00">_layout</text>
</g>
<!-- Frontend::CategoriesController -->
<g id="node4" class="node"><title>Frontend::CategoriesController</title>
<path fill="none" stroke="black" d="M498.127,341C498.127,341 665.873,341 665.873,341 671.873,341 677.873,335 677.873,329 677.873,329 677.873,263 677.873,263 677.873,257 671.873,251 665.873,251 665.873,251 498.127,251 498.127,251 492.127,251 486.127,257 486.127,263 486.127,263 486.127,329 486.127,329 486.127,335 492.127,341 498.127,341"/>
<text text-anchor="middle" x="582" y="266.2" font-family="Times,serif" font-size="14.00">Frontend::CategoriesController</text>
<polyline fill="none" stroke="black" points="486.127,273 677.873,273 "/>
<text text-anchor="start" x="494.127" y="288.2" font-family="Times,serif" font-size="14.00">index</text>
<polyline fill="none" stroke="black" points="486.127,295 677.873,295 "/>
<polyline fill="none" stroke="black" points="486.127,319 677.873,319 "/>
<text text-anchor="start" x="494.127" y="334.2" font-family="Times,serif" font-size="14.00">_layout</text>
</g>
<!-- Frontend::CommentsController -->
<g id="node5" class="node"><title>Frontend::CommentsController</title>
<path fill="none" stroke="black" d="M-276.272,287C-276.272,287 -107.728,287 -107.728,287 -101.728,287 -95.7275,281 -95.7275,275 -95.7275,275 -95.7275,153 -95.7275,153 -95.7275,147 -101.728,141 -107.728,141 -107.728,141 -276.272,141 -276.272,141 -282.272,141 -288.272,147 -288.272,153 -288.272,153 -288.272,275 -288.272,275 -288.272,281 -282.272,287 -276.272,287"/>
<text text-anchor="middle" x="-192" y="156.2" font-family="Times,serif" font-size="14.00">Frontend::CommentsController</text>
<polyline fill="none" stroke="black" points="-288.272,163 -95.7275,163 "/>
<text text-anchor="start" x="-280.272" y="178.2" font-family="Times,serif" font-size="14.00">create</text>
<text text-anchor="start" x="-280.272" y="192.2" font-family="Times,serif" font-size="14.00">index</text>
<text text-anchor="start" x="-280.272" y="206.2" font-family="Times,serif" font-size="14.00">new</text>
<polyline fill="none" stroke="black" points="-288.272,213 -95.7275,213 "/>
<polyline fill="none" stroke="black" points="-288.272,237 -95.7275,237 "/>
<text text-anchor="start" x="-280.272" y="252.2" font-family="Times,serif" font-size="14.00">_layout</text>
<text text-anchor="start" x="-280.272" y="266.2" font-family="Times,serif" font-size="14.00">comment_params</text>
<text text-anchor="start" x="-280.272" y="280.2" font-family="Times,serif" font-size="14.00">set_comment_origin</text>
</g>
<!-- Frontend::DoctorsController -->
<g id="node6" class="node"><title>Frontend::DoctorsController</title>
<path fill="none" stroke="black" d="M173.9,-379C173.9,-379 326.1,-379 326.1,-379 332.1,-379 338.1,-385 338.1,-391 338.1,-391 338.1,-499 338.1,-499 338.1,-505 332.1,-511 326.1,-511 326.1,-511 173.9,-511 173.9,-511 167.9,-511 161.9,-505 161.9,-499 161.9,-499 161.9,-391 161.9,-391 161.9,-385 167.9,-379 173.9,-379"/>
<text text-anchor="middle" x="250" y="-495.8" font-family="Times,serif" font-size="14.00">Frontend::DoctorsController</text>
<polyline fill="none" stroke="black" points="161.9,-489 338.1,-489 "/>
<text text-anchor="start" x="169.9" y="-473.8" font-family="Times,serif" font-size="14.00">index</text>
<text text-anchor="start" x="169.9" y="-459.8" font-family="Times,serif" font-size="14.00">like</text>
<text text-anchor="start" x="169.9" y="-445.8" font-family="Times,serif" font-size="14.00">show</text>
<polyline fill="none" stroke="black" points="161.9,-439 338.1,-439 "/>
<polyline fill="none" stroke="black" points="161.9,-415 338.1,-415 "/>
<text text-anchor="start" x="169.9" y="-399.8" font-family="Times,serif" font-size="14.00">_layout</text>
<text text-anchor="start" x="169.9" y="-385.8" font-family="Times,serif" font-size="14.00">set_doctor_disease</text>
</g>
<!-- Frontend::DrugStoresController -->
<g id="node7" class="node"><title>Frontend::DrugStoresController</title>
<path fill="none" stroke="black" d="M426.176,-1C426.176,-1 597.824,-1 597.824,-1 603.824,-1 609.824,-7 609.824,-13 609.824,-13 609.824,-95 609.824,-95 609.824,-101 603.824,-107 597.824,-107 597.824,-107 426.176,-107 426.176,-107 420.176,-107 414.176,-101 414.176,-95 414.176,-95 414.176,-13 414.176,-13 414.176,-7 420.176,-1 426.176,-1"/>
<text text-anchor="middle" x="512" y="-91.8" font-family="Times,serif" font-size="14.00">Frontend::DrugStoresController</text>
<polyline fill="none" stroke="black" points="414.176,-85 609.824,-85 "/>
<text text-anchor="start" x="422.176" y="-69.8" font-family="Times,serif" font-size="14.00">index</text>
<text text-anchor="start" x="422.176" y="-55.8" font-family="Times,serif" font-size="14.00">show</text>
<polyline fill="none" stroke="black" points="414.176,-49 609.824,-49 "/>
<polyline fill="none" stroke="black" points="414.176,-25 609.824,-25 "/>
</g>
<!-- Frontend::ExaminationsController -->
<g id="node8" class="node"><title>Frontend::ExaminationsController</title>
<path fill="none" stroke="black" d="M-366.431,-19C-366.431,-19 -181.569,-19 -181.569,-19 -175.569,-19 -169.569,-25 -169.569,-31 -169.569,-31 -169.569,-113 -169.569,-113 -169.569,-119 -175.569,-125 -181.569,-125 -181.569,-125 -366.431,-125 -366.431,-125 -372.431,-125 -378.431,-119 -378.431,-113 -378.431,-113 -378.431,-31 -378.431,-31 -378.431,-25 -372.431,-19 -366.431,-19"/>
<text text-anchor="middle" x="-274" y="-109.8" font-family="Times,serif" font-size="14.00">Frontend::ExaminationsController</text>
<polyline fill="none" stroke="black" points="-378.431,-103 -169.569,-103 "/>
<text text-anchor="start" x="-370.431" y="-87.8" font-family="Times,serif" font-size="14.00">index</text>
<text text-anchor="start" x="-370.431" y="-73.8" font-family="Times,serif" font-size="14.00">show</text>
<polyline fill="none" stroke="black" points="-378.431,-67 -169.569,-67 "/>
<polyline fill="none" stroke="black" points="-378.431,-43 -169.569,-43 "/>
</g>
<!-- Frontend::HospitalsController -->
<g id="node9" class="node"><title>Frontend::HospitalsController</title>
<path fill="none" stroke="black" d="M443.617,485C443.617,485 604.383,485 604.383,485 610.383,485 616.383,479 616.383,473 616.383,473 616.383,393 616.383,393 616.383,387 610.383,381 604.383,381 604.383,381 443.617,381 443.617,381 437.617,381 431.617,387 431.617,393 431.617,393 431.617,473 431.617,473 431.617,479 437.617,485 443.617,485"/>
<text text-anchor="middle" x="524" y="396.2" font-family="Times,serif" font-size="14.00">Frontend::HospitalsController</text>
<polyline fill="none" stroke="black" points="431.617,403 616.383,403 "/>
<text text-anchor="start" x="439.617" y="418.2" font-family="Times,serif" font-size="14.00">index</text>
<text text-anchor="start" x="439.617" y="432.2" font-family="Times,serif" font-size="14.00">show</text>
<polyline fill="none" stroke="black" points="431.617,439 616.383,439 "/>
<polyline fill="none" stroke="black" points="431.617,463 616.383,463 "/>
<text text-anchor="start" x="439.617" y="478.2" font-family="Times,serif" font-size="14.00">_layout</text>
</g>
<!-- Frontend::InformationController -->
<g id="node10" class="node"><title>Frontend::InformationController</title>
<path fill="none" stroke="black" d="M-330.373,-163C-330.373,-163 -155.627,-163 -155.627,-163 -149.627,-163 -143.627,-169 -143.627,-175 -143.627,-175 -143.627,-269 -143.627,-269 -143.627,-275 -149.627,-281 -155.627,-281 -155.627,-281 -330.373,-281 -330.373,-281 -336.373,-281 -342.373,-275 -342.373,-269 -342.373,-269 -342.373,-175 -342.373,-175 -342.373,-169 -336.373,-163 -330.373,-163"/>
<text text-anchor="middle" x="-243" y="-265.8" font-family="Times,serif" font-size="14.00">Frontend::InformationController</text>
<polyline fill="none" stroke="black" points="-342.373,-259 -143.627,-259 "/>
<text text-anchor="start" x="-334.373" y="-243.8" font-family="Times,serif" font-size="14.00">index</text>
<text text-anchor="start" x="-334.373" y="-229.8" font-family="Times,serif" font-size="14.00">show</text>
<polyline fill="none" stroke="black" points="-342.373,-223 -143.627,-223 "/>
<polyline fill="none" stroke="black" points="-342.373,-199 -143.627,-199 "/>
<text text-anchor="start" x="-334.373" y="-183.8" font-family="Times,serif" font-size="14.00">_layout</text>
<text text-anchor="start" x="-334.373" y="-169.8" font-family="Times,serif" font-size="14.00">set_information</text>
</g>
<!-- Frontend::InsurancesController -->
<g id="node11" class="node"><title>Frontend::InsurancesController</title>
<path fill="none" stroke="black" d="M-419.869,431C-419.869,431 -252.131,431 -252.131,431 -246.131,431 -240.131,425 -240.131,419 -240.131,419 -240.131,337 -240.131,337 -240.131,331 -246.131,325 -252.131,325 -252.131,325 -419.869,325 -419.869,325 -425.869,325 -431.869,331 -431.869,337 -431.869,337 -431.869,419 -431.869,419 -431.869,425 -425.869,431 -419.869,431"/>
<text text-anchor="middle" x="-336" y="340.2" font-family="Times,serif" font-size="14.00">Frontend::InsurancesController</text>
<polyline fill="none" stroke="black" points="-431.869,347 -240.131,347 "/>
<text text-anchor="start" x="-423.869" y="362.2" font-family="Times,serif" font-size="14.00">index</text>
<text text-anchor="start" x="-423.869" y="376.2" font-family="Times,serif" font-size="14.00">show</text>
<polyline fill="none" stroke="black" points="-431.869,383 -240.131,383 "/>
<polyline fill="none" stroke="black" points="-431.869,407 -240.131,407 "/>
</g>
<!-- Frontend::MainController -->
<g id="node12" class="node"><title>Frontend::MainController</title>
<path fill="none" stroke="black" d="M-473.714,251C-473.714,251 -336.286,251 -336.286,251 -330.286,251 -324.286,245 -324.286,239 -324.286,239 -324.286,159 -324.286,159 -324.286,153 -330.286,147 -336.286,147 -336.286,147 -473.714,147 -473.714,147 -479.714,147 -485.714,153 -485.714,159 -485.714,159 -485.714,239 -485.714,239 -485.714,245 -479.714,251 -473.714,251"/>
<text text-anchor="middle" x="-405" y="162.2" font-family="Times,serif" font-size="14.00">Frontend::MainController</text>
<polyline fill="none" stroke="black" points="-485.714,169 -324.286,169 "/>
<text text-anchor="start" x="-477.714" y="184.2" font-family="Times,serif" font-size="14.00">index</text>
<text text-anchor="start" x="-477.714" y="198.2" font-family="Times,serif" font-size="14.00">upload_position</text>
<polyline fill="none" stroke="black" points="-485.714,205 -324.286,205 "/>
<polyline fill="none" stroke="black" points="-485.714,229 -324.286,229 "/>
<text text-anchor="start" x="-477.714" y="244.2" font-family="Times,serif" font-size="14.00">_layout</text>
</g>
<!-- Frontend::MaternitiesController -->
<g id="node13" class="node"><title>Frontend::MaternitiesController</title>
<path fill="none" stroke="black" d="M462.183,161C462.183,161 633.817,161 633.817,161 639.817,161 645.817,155 645.817,149 645.817,149 645.817,69 645.817,69 645.817,63 639.817,57 633.817,57 633.817,57 462.183,57 462.183,57 456.183,57 450.183,63 450.183,69 450.183,69 450.183,149 450.183,149 450.183,155 456.183,161 462.183,161"/>
<text text-anchor="middle" x="548" y="72.2" font-family="Times,serif" font-size="14.00">Frontend::MaternitiesController</text>
<polyline fill="none" stroke="black" points="450.183,79 645.817,79 "/>
<text text-anchor="start" x="458.183" y="94.2" font-family="Times,serif" font-size="14.00">index</text>
<text text-anchor="start" x="458.183" y="108.2" font-family="Times,serif" font-size="14.00">show</text>
<polyline fill="none" stroke="black" points="450.183,115 645.817,115 "/>
<polyline fill="none" stroke="black" points="450.183,139 645.817,139 "/>
<text text-anchor="start" x="458.183" y="154.2" font-family="Times,serif" font-size="14.00">_layout</text>
</g>
<!-- Frontend::MedicalsController -->
<g id="node14" class="node"><title>Frontend::MedicalsController</title>
<path fill="none" stroke="black" d="M228.403,485C228.403,485 387.597,485 387.597,485 393.597,485 399.597,479 399.597,473 399.597,473 399.597,393 399.597,393 399.597,387 393.597,381 387.597,381 387.597,381 228.403,381 228.403,381 222.403,381 216.403,387 216.403,393 216.403,393 216.403,473 216.403,473 216.403,479 222.403,485 228.403,485"/>
<text text-anchor="middle" x="308" y="396.2" font-family="Times,serif" font-size="14.00">Frontend::MedicalsController</text>
<polyline fill="none" stroke="black" points="216.403,403 399.597,403 "/>
<text text-anchor="start" x="224.403" y="418.2" font-family="Times,serif" font-size="14.00">index</text>
<text text-anchor="start" x="224.403" y="432.2" font-family="Times,serif" font-size="14.00">show</text>
<polyline fill="none" stroke="black" points="216.403,439 399.597,439 "/>
<polyline fill="none" stroke="black" points="216.403,463 399.597,463 "/>
<text text-anchor="start" x="224.403" y="478.2" font-family="Times,serif" font-size="14.00">_layout</text>
</g>
<!-- Frontend::NursingRoomsController -->
<g id="node15" class="node"><title>Frontend::NursingRoomsController</title>
<path fill="none" stroke="black" d="M-96.3311,-361C-96.3311,-361 96.3311,-361 96.3311,-361 102.331,-361 108.331,-367 108.331,-373 108.331,-373 108.331,-453 108.331,-453 108.331,-459 102.331,-465 96.3311,-465 96.3311,-465 -96.3311,-465 -96.3311,-465 -102.331,-465 -108.331,-459 -108.331,-453 -108.331,-453 -108.331,-373 -108.331,-373 -108.331,-367 -102.331,-361 -96.3311,-361"/>
<text text-anchor="middle" x="0" y="-449.8" font-family="Times,serif" font-size="14.00">Frontend::NursingRoomsController</text>
<polyline fill="none" stroke="black" points="-108.331,-443 108.331,-443 "/>
<text text-anchor="start" x="-100.331" y="-427.8" font-family="Times,serif" font-size="14.00">index</text>
<text text-anchor="start" x="-100.331" y="-413.8" font-family="Times,serif" font-size="14.00">show</text>
<polyline fill="none" stroke="black" points="-108.331,-407 108.331,-407 "/>
<polyline fill="none" stroke="black" points="-108.331,-383 108.331,-383 "/>
<text text-anchor="start" x="-100.331" y="-367.8" font-family="Times,serif" font-size="14.00">_layout</text>
</g>
<!-- Frontend::PersonCustomsController -->
<g id="node16" class="node"><title>Frontend::PersonCustomsController</title>
<path fill="none" stroke="black" d="M-365.5,107C-365.5,107 -170.5,107 -170.5,107 -164.5,107 -158.5,101 -158.5,95 -158.5,95 -158.5,29 -158.5,29 -158.5,23 -164.5,17 -170.5,17 -170.5,17 -365.5,17 -365.5,17 -371.5,17 -377.5,23 -377.5,29 -377.5,29 -377.5,95 -377.5,95 -377.5,101 -371.5,107 -365.5,107"/>
<text text-anchor="middle" x="-268" y="32.2" font-family="Times,serif" font-size="14.00">Frontend::PersonCustomsController</text>
<polyline fill="none" stroke="black" points="-377.5,39 -158.5,39 "/>
<text text-anchor="start" x="-369.5" y="54.2" font-family="Times,serif" font-size="14.00">index</text>
<polyline fill="none" stroke="black" points="-377.5,61 -158.5,61 "/>
<polyline fill="none" stroke="black" points="-377.5,85 -158.5,85 "/>
<text text-anchor="start" x="-369.5" y="100.2" font-family="Times,serif" font-size="14.00">_layout</text>
</g>
<!-- Frontend::QuestionsController -->
<g id="node17" class="node"><title>Frontend::QuestionsController</title>
<path fill="none" stroke="black" d="M-311.938,-325C-311.938,-325 -148.062,-325 -148.062,-325 -142.062,-325 -136.062,-331 -136.062,-337 -136.062,-337 -136.062,-459 -136.062,-459 -136.062,-465 -142.062,-471 -148.062,-471 -148.062,-471 -311.938,-471 -311.938,-471 -317.938,-471 -323.938,-465 -323.938,-459 -323.938,-459 -323.938,-337 -323.938,-337 -323.938,-331 -317.938,-325 -311.938,-325"/>
<text text-anchor="middle" x="-230" y="-455.8" font-family="Times,serif" font-size="14.00">Frontend::QuestionsController</text>
<polyline fill="none" stroke="black" points="-323.938,-449 -136.062,-449 "/>
<text text-anchor="start" x="-315.938" y="-433.8" font-family="Times,serif" font-size="14.00">create</text>
<text text-anchor="start" x="-315.938" y="-419.8" font-family="Times,serif" font-size="14.00">new</text>
<text text-anchor="start" x="-315.938" y="-405.8" font-family="Times,serif" font-size="14.00">show</text>
<polyline fill="none" stroke="black" points="-323.938,-399 -136.062,-399 "/>
<polyline fill="none" stroke="black" points="-323.938,-375 -136.062,-375 "/>
<text text-anchor="start" x="-315.938" y="-359.8" font-family="Times,serif" font-size="14.00">_layout</text>
<text text-anchor="start" x="-315.938" y="-345.8" font-family="Times,serif" font-size="14.00">question_params</text>
<text text-anchor="start" x="-315.938" y="-331.8" font-family="Times,serif" font-size="14.00">set_question</text>
</g>
<!-- Frontend::SearchesController -->
<g id="node18" class="node"><title>Frontend::SearchesController</title>
<path fill="none" stroke="black" d="M-491.814,-505C-491.814,-505 -334.186,-505 -334.186,-505 -328.186,-505 -322.186,-511 -322.186,-517 -322.186,-517 -322.186,-597 -322.186,-597 -322.186,-603 -328.186,-609 -334.186,-609 -334.186,-609 -491.814,-609 -491.814,-609 -497.814,-609 -503.814,-603 -503.814,-597 -503.814,-597 -503.814,-517 -503.814,-517 -503.814,-511 -497.814,-505 -491.814,-505"/>
<text text-anchor="middle" x="-413" y="-593.8" font-family="Times,serif" font-size="14.00">Frontend::SearchesController</text>
<polyline fill="none" stroke="black" points="-503.814,-587 -322.186,-587 "/>
<text text-anchor="start" x="-495.814" y="-571.8" font-family="Times,serif" font-size="14.00">create</text>
<text text-anchor="start" x="-495.814" y="-557.8" font-family="Times,serif" font-size="14.00">index</text>
<polyline fill="none" stroke="black" points="-503.814,-551 -322.186,-551 "/>
<polyline fill="none" stroke="black" points="-503.814,-527 -322.186,-527 "/>
<text text-anchor="start" x="-495.814" y="-511.8" font-family="Times,serif" font-size="14.00">_layout</text>
</g>
<!-- Frontend::SubscriptionsController -->
<g id="node19" class="node"><title>Frontend::SubscriptionsController</title>
<path fill="none" stroke="black" d="M389.948,-379C389.948,-379 574.052,-379 574.052,-379 580.052,-379 586.052,-385 586.052,-391 586.052,-391 586.052,-471 586.052,-471 586.052,-477 580.052,-483 574.052,-483 574.052,-483 389.948,-483 389.948,-483 383.948,-483 377.948,-477 377.948,-471 377.948,-471 377.948,-391 377.948,-391 377.948,-385 383.948,-379 389.948,-379"/>
<text text-anchor="middle" x="482" y="-467.8" font-family="Times,serif" font-size="14.00">Frontend::SubscriptionsController</text>
<polyline fill="none" stroke="black" points="377.948,-461 586.052,-461 "/>
<text text-anchor="start" x="385.948" y="-445.8" font-family="Times,serif" font-size="14.00">create</text>
<text text-anchor="start" x="385.948" y="-431.8" font-family="Times,serif" font-size="14.00">index</text>
<polyline fill="none" stroke="black" points="377.948,-425 586.052,-425 "/>
<polyline fill="none" stroke="black" points="377.948,-401 586.052,-401 "/>
<text text-anchor="start" x="385.948" y="-385.8" font-family="Times,serif" font-size="14.00">_layout</text>
</g>
<!-- Frontend::Users::ConfirmationsController -->
<g id="node20" class="node"><title>Frontend::Users::ConfirmationsController</title>
<path fill="none" stroke="black" d="M174.172,161C174.172,161 401.828,161 401.828,161 407.828,161 413.828,155 413.828,149 413.828,149 413.828,55 413.828,55 413.828,49 407.828,43 401.828,43 401.828,43 174.172,43 174.172,43 168.172,43 162.172,49 162.172,55 162.172,55 162.172,149 162.172,149 162.172,155 168.172,161 174.172,161"/>
<text text-anchor="middle" x="288" y="58.2" font-family="Times,serif" font-size="14.00">Frontend::Users::ConfirmationsController</text>
<polyline fill="none" stroke="black" points="162.172,65 413.828,65 "/>
<text text-anchor="start" x="170.172" y="80.2" font-family="Times,serif" font-size="14.00">reset_email_password</text>
<text text-anchor="start" x="170.172" y="94.2" font-family="Times,serif" font-size="14.00">show</text>
<polyline fill="none" stroke="black" points="162.172,101 413.828,101 "/>
<polyline fill="none" stroke="black" points="162.172,125 413.828,125 "/>
<text text-anchor="start" x="170.172" y="140.2" font-family="Times,serif" font-size="14.00">_layout</text>
<text text-anchor="start" x="170.172" y="154.2" font-family="Times,serif" font-size="14.00">set_user</text>
</g>
<!-- Frontend::Users::MeController -->
<g id="node21" class="node"><title>Frontend::Users::MeController</title>
<path fill="none" stroke="black" d="M263.9,341C263.9,341 430.1,341 430.1,341 436.1,341 442.1,335 442.1,329 442.1,329 442.1,207 442.1,207 442.1,201 436.1,195 430.1,195 430.1,195 263.9,195 263.9,195 257.9,195 251.9,201 251.9,207 251.9,207 251.9,329 251.9,329 251.9,335 257.9,341 263.9,341"/>
<text text-anchor="middle" x="347" y="210.2" font-family="Times,serif" font-size="14.00">Frontend::Users::MeController</text>
<polyline fill="none" stroke="black" points="251.9,217 442.1,217 "/>
<text text-anchor="start" x="259.9" y="232.2" font-family="Times,serif" font-size="14.00">edit</text>
<text text-anchor="start" x="259.9" y="246.2" font-family="Times,serif" font-size="14.00">index</text>
<text text-anchor="start" x="259.9" y="260.2" font-family="Times,serif" font-size="14.00">update</text>
<polyline fill="none" stroke="black" points="251.9,267 442.1,267 "/>
<polyline fill="none" stroke="black" points="251.9,291 442.1,291 "/>
<text text-anchor="start" x="259.9" y="306.2" font-family="Times,serif" font-size="14.00">_layout</text>
<text text-anchor="start" x="259.9" y="320.2" font-family="Times,serif" font-size="14.00">get_user</text>
<text text-anchor="start" x="259.9" y="334.2" font-family="Times,serif" font-size="14.00">user_params</text>
</g>
<!-- Frontend::Users::PasswordsController -->
<g id="node22" class="node"><title>Frontend::Users::PasswordsController</title>
<path fill="none" stroke="black" d="M155.672,-145C155.672,-145 362.328,-145 362.328,-145 368.328,-145 374.328,-151 374.328,-157 374.328,-157 374.328,-335 374.328,-335 374.328,-341 368.328,-347 362.328,-347 362.328,-347 155.672,-347 155.672,-347 149.672,-347 143.672,-341 143.672,-335 143.672,-335 143.672,-157 143.672,-157 143.672,-151 149.672,-145 155.672,-145"/>
<text text-anchor="middle" x="259" y="-331.8" font-family="Times,serif" font-size="14.00">Frontend::Users::PasswordsController</text>
<polyline fill="none" stroke="black" points="143.672,-325 374.328,-325 "/>
<text text-anchor="start" x="151.672" y="-309.8" font-family="Times,serif" font-size="14.00">update</text>
<text text-anchor="start" x="151.672" y="-295.8" font-family="Times,serif" font-size="14.00">email</text>
<text text-anchor="start" x="151.672" y="-281.8" font-family="Times,serif" font-size="14.00">email_edit</text>
<text text-anchor="start" x="151.672" y="-267.8" font-family="Times,serif" font-size="14.00">email_new</text>
<text text-anchor="start" x="151.672" y="-253.8" font-family="Times,serif" font-size="14.00">new</text>
<text text-anchor="start" x="151.672" y="-239.8" font-family="Times,serif" font-size="14.00">send_mail</text>
<text text-anchor="start" x="151.672" y="-225.8" font-family="Times,serif" font-size="14.00">telephone</text>
<text text-anchor="start" x="151.672" y="-211.8" font-family="Times,serif" font-size="14.00">telephone_new</text>
<text text-anchor="start" x="151.672" y="-197.8" font-family="Times,serif" font-size="14.00">edit</text>
<polyline fill="none" stroke="black" points="143.672,-191 374.328,-191 "/>
<polyline fill="none" stroke="black" points="143.672,-167 374.328,-167 "/>
<text text-anchor="start" x="151.672" y="-151.8" font-family="Times,serif" font-size="14.00">_layout</text>
</g>
<!-- Frontend::Users::RegistrationsController -->
<g id="node23" class="node"><title>Frontend::Users::RegistrationsController</title>
<path fill="none" stroke="black" d="M-113.71,107C-113.71,107 107.71,107 107.71,107 113.71,107 119.71,101 119.71,95 119.71,95 119.71,-97 119.71,-97 119.71,-103 113.71,-109 107.71,-109 107.71,-109 -113.71,-109 -113.71,-109 -119.71,-109 -125.71,-103 -125.71,-97 -125.71,-97 -125.71,95 -125.71,95 -125.71,101 -119.71,107 -113.71,107"/>
<text text-anchor="middle" x="-3" y="-93.8" font-family="Times,serif" font-size="14.00">Frontend::Users::RegistrationsController</text>
<polyline fill="none" stroke="black" points="-125.71,-87 119.71,-87 "/>
<text text-anchor="start" x="-117.71" y="-71.8" font-family="Times,serif" font-size="14.00">email_new</text>
<text text-anchor="start" x="-117.71" y="-57.8" font-family="Times,serif" font-size="14.00">check_register_telephone</text>
<text text-anchor="start" x="-117.71" y="-43.8" font-family="Times,serif" font-size="14.00">email</text>
<text text-anchor="start" x="-117.71" y="-29.8" font-family="Times,serif" font-size="14.00">check_register_email</text>
<text text-anchor="start" x="-117.71" y="-15.8" font-family="Times,serif" font-size="14.00">telephone</text>
<text text-anchor="start" x="-117.71" y="-1.8" font-family="Times,serif" font-size="14.00">telephone_new</text>
<text text-anchor="start" x="-117.71" y="12.2" font-family="Times,serif" font-size="14.00">update</text>
<polyline fill="none" stroke="black" points="-125.71,19 119.71,19 "/>
<polyline fill="none" stroke="black" points="-125.71,43 119.71,43 "/>
<text text-anchor="start" x="-117.71" y="58.2" font-family="Times,serif" font-size="14.00">_layout</text>
<text text-anchor="start" x="-117.71" y="72.2" font-family="Times,serif" font-size="14.00">send_mail</text>
<text text-anchor="start" x="-117.71" y="86.2" font-family="Times,serif" font-size="14.00">user_email_params</text>
<text text-anchor="start" x="-117.71" y="100.2" font-family="Times,serif" font-size="14.00">user_telephone_params</text>
</g>
<!-- Frontend::Users::SessionsController -->
<g id="node24" class="node"><title>Frontend::Users::SessionsController</title>
<path fill="none" stroke="black" d="M12.1138,323C12.1138,323 207.886,323 207.886,323 213.886,323 219.886,317 219.886,311 219.886,311 219.886,217 219.886,217 219.886,211 213.886,205 207.886,205 207.886,205 12.1138,205 12.1138,205 6.11377,205 0.11377,211 0.11377,217 0.11377,217 0.11377,311 0.11377,311 0.11377,317 6.11377,323 12.1138,323"/>
<text text-anchor="middle" x="110" y="220.2" font-family="Times,serif" font-size="14.00">Frontend::Users::SessionsController</text>
<polyline fill="none" stroke="black" points="0.11377,227 219.886,227 "/>
<text text-anchor="start" x="8.11377" y="242.2" font-family="Times,serif" font-size="14.00">create</text>
<text text-anchor="start" x="8.11377" y="256.2" font-family="Times,serif" font-size="14.00">destroy</text>
<text text-anchor="start" x="8.11377" y="270.2" font-family="Times,serif" font-size="14.00">new</text>
<polyline fill="none" stroke="black" points="0.11377,277 219.886,277 "/>
<polyline fill="none" stroke="black" points="0.11377,301 219.886,301 "/>
<text text-anchor="start" x="8.11377" y="316.2" font-family="Times,serif" font-size="14.00">_layout</text>
</g>
<!-- Frontend::Users::SmsController -->
<g id="node25" class="node"><title>Frontend::Users::SmsController</title>
<path fill="none" stroke="black" d="M-275.831,-505C-275.831,-505 -104.169,-505 -104.169,-505 -98.1689,-505 -92.1689,-511 -92.1689,-517 -92.1689,-517 -92.1689,-583 -92.1689,-583 -92.1689,-589 -98.1689,-595 -104.169,-595 -104.169,-595 -275.831,-595 -275.831,-595 -281.831,-595 -287.831,-589 -287.831,-583 -287.831,-583 -287.831,-517 -287.831,-517 -287.831,-511 -281.831,-505 -275.831,-505"/>
<text text-anchor="middle" x="-190" y="-579.8" font-family="Times,serif" font-size="14.00">Frontend::Users::SmsController</text>
<polyline fill="none" stroke="black" points="-287.831,-573 -92.1689,-573 "/>
<text text-anchor="start" x="-279.831" y="-557.8" font-family="Times,serif" font-size="14.00">create</text>
<polyline fill="none" stroke="black" points="-287.831,-551 -92.1689,-551 "/>
<polyline fill="none" stroke="black" points="-287.831,-527 -92.1689,-527 "/>
<text text-anchor="start" x="-279.831" y="-511.8" font-family="Times,serif" font-size="14.00">_layout</text>
</g>
<!-- FrontendController -->
<g id="node26" class="node"><title>FrontendController</title>
<path fill="none" stroke="black" d="M371.952,-541C371.952,-541 472.048,-541 472.048,-541 478.048,-541 484.048,-547 484.048,-553 484.048,-553 484.048,-619 484.048,-619 484.048,-625 478.048,-631 472.048,-631 472.048,-631 371.952,-631 371.952,-631 365.952,-631 359.952,-625 359.952,-619 359.952,-619 359.952,-553 359.952,-553 359.952,-547 365.952,-541 371.952,-541"/>
<text text-anchor="middle" x="422" y="-615.8" font-family="Times,serif" font-size="14.00">FrontendController</text>
<polyline fill="none" stroke="black" points="359.952,-609 484.048,-609 "/>
<text text-anchor="start" x="367.952" y="-593.8" font-family="Times,serif" font-size="14.00">auth_check</text>
<polyline fill="none" stroke="black" points="359.952,-587 484.048,-587 "/>
<polyline fill="none" stroke="black" points="359.952,-563 484.048,-563 "/>
<text text-anchor="start" x="367.952" y="-547.8" font-family="Times,serif" font-size="14.00">_layout</text>
</g>
<!-- StaticPagesController -->
<g id="node27" class="node"><title>StaticPagesController</title>
<path fill="none" stroke="black" d="M-96.2588,-145C-96.2588,-145 100.259,-145 100.259,-145 106.259,-145 112.259,-151 112.259,-157 112.259,-157 112.259,-307 112.259,-307 112.259,-313 106.259,-319 100.259,-319 100.259,-319 -96.2588,-319 -96.2588,-319 -102.259,-319 -108.259,-313 -108.259,-307 -108.259,-307 -108.259,-157 -108.259,-157 -108.259,-151 -102.259,-145 -96.2588,-145"/>
<text text-anchor="middle" x="2" y="-303.8" font-family="Times,serif" font-size="14.00">StaticPagesController</text>
<polyline fill="none" stroke="black" points="-108.259,-297 112.259,-297 "/>
<text text-anchor="start" x="-100.259" y="-281.8" font-family="Times,serif" font-size="14.00">finish_user_info_for_phone_register</text>
<text text-anchor="start" x="-100.259" y="-267.8" font-family="Times,serif" font-size="14.00">find_password_by_phone</text>
<text text-anchor="start" x="-100.259" y="-253.8" font-family="Times,serif" font-size="14.00">finish_user_info_for_email_register</text>
<text text-anchor="start" x="-100.259" y="-239.8" font-family="Times,serif" font-size="14.00">find_password_by_email</text>
<text text-anchor="start" x="-100.259" y="-225.8" font-family="Times,serif" font-size="14.00">hospital_list</text>
<text text-anchor="start" x="-100.259" y="-211.8" font-family="Times,serif" font-size="14.00">register_with_email</text>
<text text-anchor="start" x="-100.259" y="-197.8" font-family="Times,serif" font-size="14.00">set_password_for_email_register</text>
<polyline fill="none" stroke="black" points="-108.259,-191 112.259,-191 "/>
<polyline fill="none" stroke="black" points="-108.259,-167 112.259,-167 "/>
<text text-anchor="start" x="-100.259" y="-151.8" font-family="Times,serif" font-size="14.00">_layout</text>
</g>
<!-- Users::ConfirmationsController -->
<g id="node28" class="node"><title>Users::ConfirmationsController</title>
<path fill="none" stroke="black" d="M426.338,-145C426.338,-145 595.662,-145 595.662,-145 601.662,-145 607.662,-151 607.662,-157 607.662,-157 607.662,-225 607.662,-225 607.662,-231 601.662,-237 595.662,-237 595.662,-237 426.338,-237 426.338,-237 420.338,-237 414.338,-231 414.338,-225 414.338,-225 414.338,-157 414.338,-157 414.338,-151 420.338,-145 426.338,-145"/>
<text text-anchor="middle" x="511" y="-221.8" font-family="Times,serif" font-size="14.00">Users::ConfirmationsController</text>
<polyline fill="none" stroke="black" points="414.338,-215 607.662,-215 "/>
<polyline fill="none" stroke="black" points="414.338,-191 607.662,-191 "/>
<polyline fill="none" stroke="black" points="414.338,-167 607.662,-167 "/>
<text text-anchor="start" x="422.338" y="-151.8" font-family="Times,serif" font-size="14.00">_layout</text>
</g>
<!-- Users::OmniauthCallbacksController -->
<g id="node29" class="node"><title>Users::OmniauthCallbacksController</title>
<path fill="none" stroke="black" d="M173.796,-1C173.796,-1 374.204,-1 374.204,-1 380.204,-1 386.204,-7 386.204,-13 386.204,-13 386.204,-81 386.204,-81 386.204,-87 380.204,-93 374.204,-93 374.204,-93 173.796,-93 173.796,-93 167.796,-93 161.796,-87 161.796,-81 161.796,-81 161.796,-13 161.796,-13 161.796,-7 167.796,-1 173.796,-1"/>
<text text-anchor="middle" x="274" y="-77.8" font-family="Times,serif" font-size="14.00">Users::OmniauthCallbacksController</text>
<polyline fill="none" stroke="black" points="161.796,-71 386.204,-71 "/>
<polyline fill="none" stroke="black" points="161.796,-47 386.204,-47 "/>
<polyline fill="none" stroke="black" points="161.796,-23 386.204,-23 "/>
<text text-anchor="start" x="169.796" y="-7.8" font-family="Times,serif" font-size="14.00">_layout</text>
</g>
<!-- Users::PasswordsController -->
<g id="node30" class="node"><title>Users::PasswordsController</title>
<path fill="none" stroke="black" d="M-42.1621,-505C-42.1621,-505 106.162,-505 106.162,-505 112.162,-505 118.162,-511 118.162,-517 118.162,-517 118.162,-585 118.162,-585 118.162,-591 112.162,-597 106.162,-597 106.162,-597 -42.1621,-597 -42.1621,-597 -48.1621,-597 -54.1621,-591 -54.1621,-585 -54.1621,-585 -54.1621,-517 -54.1621,-517 -54.1621,-511 -48.1621,-505 -42.1621,-505"/>
<text text-anchor="middle" x="32" y="-581.8" font-family="Times,serif" font-size="14.00">Users::PasswordsController</text>
<polyline fill="none" stroke="black" points="-54.1621,-575 118.162,-575 "/>
<polyline fill="none" stroke="black" points="-54.1621,-551 118.162,-551 "/>
<polyline fill="none" stroke="black" points="-54.1621,-527 118.162,-527 "/>
<text text-anchor="start" x="-46.1621" y="-511.8" font-family="Times,serif" font-size="14.00">_layout</text>
</g>
<!-- Users::RegistrationsController -->
<g id="node31" class="node"><title>Users::RegistrationsController</title>
<path fill="none" stroke="black" d="M12.4551,449C12.4551,449 175.545,449 175.545,449 181.545,449 187.545,443 187.545,437 187.545,437 187.545,369 187.545,369 187.545,363 181.545,357 175.545,357 175.545,357 12.4551,357 12.4551,357 6.45508,357 0.455078,363 0.455078,369 0.455078,369 0.455078,437 0.455078,437 0.455078,443 6.45508,449 12.4551,449"/>
<text text-anchor="middle" x="94" y="372.2" font-family="Times,serif" font-size="14.00">Users::RegistrationsController</text>
<polyline fill="none" stroke="black" points="0.455078,379 187.545,379 "/>
<polyline fill="none" stroke="black" points="0.455078,403 187.545,403 "/>
<polyline fill="none" stroke="black" points="0.455078,427 187.545,427 "/>
<text text-anchor="start" x="8.45508" y="442.2" font-family="Times,serif" font-size="14.00">_layout</text>
</g>
<!-- Users::SessionsController -->
<g id="node32" class="node"><title>Users::SessionsController</title>
<path fill="none" stroke="black" d="M534.279,-523C534.279,-523 671.721,-523 671.721,-523 677.721,-523 683.721,-529 683.721,-535 683.721,-535 683.721,-603 683.721,-603 683.721,-609 677.721,-615 671.721,-615 671.721,-615 534.279,-615 534.279,-615 528.279,-615 522.279,-609 522.279,-603 522.279,-603 522.279,-535 522.279,-535 522.279,-529 528.279,-523 534.279,-523"/>
<text text-anchor="middle" x="603" y="-599.8" font-family="Times,serif" font-size="14.00">Users::SessionsController</text>
<polyline fill="none" stroke="black" points="522.279,-593 683.721,-593 "/>
<polyline fill="none" stroke="black" points="522.279,-569 683.721,-569 "/>
<polyline fill="none" stroke="black" points="522.279,-545 683.721,-545 "/>
<text text-anchor="start" x="530.279" y="-529.8" font-family="Times,serif" font-size="14.00">_layout</text>
</g>
<!-- Users::UnlocksController -->
<g id="node33" class="node"><title>Users::UnlocksController</title>
<path fill="none" stroke="black" d="M-185.935,413C-185.935,413 -50.0654,413 -50.0654,413 -44.0654,413 -38.0654,407 -38.0654,401 -38.0654,401 -38.0654,333 -38.0654,333 -38.0654,327 -44.0654,321 -50.0654,321 -50.0654,321 -185.935,321 -185.935,321 -191.935,321 -197.935,327 -197.935,333 -197.935,333 -197.935,401 -197.935,401 -197.935,407 -191.935,413 -185.935,413"/>
<text text-anchor="middle" x="-118" y="336.2" font-family="Times,serif" font-size="14.00">Users::UnlocksController</text>
<polyline fill="none" stroke="black" points="-197.935,343 -38.0654,343 "/>
<polyline fill="none" stroke="black" points="-197.935,367 -38.0654,367 "/>
<polyline fill="none" stroke="black" points="-197.935,391 -38.0654,391 "/>
<text text-anchor="start" x="-189.935" y="406.2" font-family="Times,serif" font-size="14.00">_layout</text>
</g>
</g>
</svg>
