<?xml version="1.0" encoding="UTF-8" standalone="no"?>
<!DOCTYPE svg PUBLIC "-//W3C//DTD SVG 1.1//EN"
 "http://www.w3.org/Graphics/SVG/1.1/DTD/svg11.dtd">
<!-- Generated by graphviz version 2.38.0 (20140413.2041)
 -->
<!-- Title: models_diagram Pages: 1 -->
<svg width="1952pt" height="649pt"
 viewBox="0.00 0.00 1951.76 649.00" xmlns="http://www.w3.org/2000/svg" xmlns:xlink="http://www.w3.org/1999/xlink">
<g id="graph0" class="graph" transform="scale(1 1) rotate(0) translate(4 645)">
<title>models_diagram</title>
<polygon fill="none" stroke="none" points="-4,4 -4,-645 1947.76,-645 1947.76,4 -4,4"/>
<!-- _diagram_info -->
<g id="node1" class="node"><title>_diagram_info</title>
<text text-anchor="start" x="8" y="-626.6" font-family="Times,serif" font-size="13.00">Models diagram</text>
<text text-anchor="start" x="8" y="-613.6" font-family="Times,serif" font-size="13.00">Date: Mar 31 2016 &#45; 18:31</text>
<text text-anchor="start" x="8" y="-600.6" font-family="Times,serif" font-size="13.00">Generated by RailRoady 1.4.2</text>
<text text-anchor="start" x="8" y="-587.6" font-family="Times,serif" font-size="13.00">http://railroady.prestonlee.com</text>
</g>
<!-- Admin -->
<g id="node2" class="node"><title>Admin</title>
<ellipse fill="none" stroke="black" cx="227.72" cy="-611" rx="34.8458" ry="18"/>
<text text-anchor="middle" x="227.72" y="-606.8" font-family="Times,serif" font-size="14.00">Admin</text>
</g>
<!-- Advertisement -->
<g id="node3" class="node"><title>Advertisement</title>
<ellipse fill="none" stroke="black" cx="342.72" cy="-611" rx="62.3407" ry="18"/>
<text text-anchor="middle" x="342.72" y="-606.8" font-family="Times,serif" font-size="14.00">Advertisement</text>
</g>
<!-- Answer -->
<g id="node4" class="node"><title>Answer</title>
<ellipse fill="none" stroke="black" cx="460.72" cy="-611" rx="37.7266" ry="18"/>
<text text-anchor="middle" x="460.72" y="-606.8" font-family="Times,serif" font-size="14.00">Answer</text>
</g>
<!-- App -->
<g id="node5" class="node"><title>App</title>
<ellipse fill="none" stroke="black" cx="573.72" cy="-526" rx="27" ry="18"/>
<text text-anchor="middle" x="573.72" y="-521.8" font-family="Times,serif" font-size="14.00">App</text>
</g>
<!-- AppCategory -->
<g id="node6" class="node"><title>AppCategory</title>
<ellipse fill="none" stroke="black" cx="573.72" cy="-611" rx="57.5065" ry="18"/>
<text text-anchor="middle" x="573.72" y="-606.8" font-family="Times,serif" font-size="14.00">AppCategory</text>
</g>
<!-- AppCategory&#45;&gt;App -->
<g id="edge1" class="edge"><title>AppCategory&#45;&gt;App</title>
<path fill="none" stroke="#e2836d" d="M573.72,-584.621C573.72,-574.992 573.72,-563.992 573.72,-554.202"/>
<ellipse fill="none" stroke="#e2836d" cx="573.72" cy="-588.802" rx="4" ry="4"/>
<polygon fill="#e2836d" stroke="#e2836d" points="573.72,-554.176 578.22,-544.176 573.72,-549.176 573.72,-544.176 573.72,-544.176 573.72,-544.176 573.72,-549.176 569.22,-544.176 573.72,-554.176 573.72,-554.176"/>
</g>
<!-- Banner -->
<g id="node7" class="node"><title>Banner</title>
<ellipse fill="none" stroke="black" cx="684.72" cy="-611" rx="35.7887" ry="18"/>
<text text-anchor="middle" x="684.72" y="-606.8" font-family="Times,serif" font-size="14.00">Banner</text>
</g>
<!-- Category -->
<g id="node8" class="node"><title>Category</title>
<ellipse fill="none" stroke="black" cx="780.72" cy="-611" rx="42.5456" ry="18"/>
<text text-anchor="middle" x="780.72" y="-606.8" font-family="Times,serif" font-size="14.00">Category</text>
</g>
<!-- City -->
<g id="node9" class="node"><title>City</title>
<ellipse fill="none" stroke="black" cx="880.72" cy="-453" rx="27" ry="18"/>
<text text-anchor="middle" x="880.72" y="-448.8" font-family="Times,serif" font-size="14.00">City</text>
</g>
<!-- County -->
<g id="node14" class="node"><title>County</title>
<ellipse fill="none" stroke="black" cx="816.72" cy="-380" rx="36.2992" ry="18"/>
<text text-anchor="middle" x="816.72" y="-375.8" font-family="Times,serif" font-size="14.00">County</text>
</g>
<!-- City&#45;&gt;County -->
<g id="edge2" class="edge"><title>City&#45;&gt;County</title>
<path fill="none" stroke="#7f167f" d="M861.886,-431.106C854.284,-422.672 845.48,-412.905 837.675,-404.247"/>
<ellipse fill="none" stroke="#7f167f" cx="864.781" cy="-434.318" rx="4.00002" ry="4.00002"/>
<polygon fill="#7f167f" stroke="#7f167f" points="837.547,-404.105 834.194,-393.664 834.2,-400.391 830.852,-396.677 830.852,-396.677 830.852,-396.677 834.2,-400.391 827.509,-399.69 837.547,-404.105 837.547,-404.105"/>
</g>
<!-- DrugStore -->
<g id="node23" class="node"><title>DrugStore</title>
<ellipse fill="none" stroke="black" cx="873.72" cy="-307" rx="46.8977" ry="18"/>
<text text-anchor="middle" x="873.72" y="-302.8" font-family="Times,serif" font-size="14.00">DrugStore</text>
</g>
<!-- City&#45;&gt;DrugStore -->
<g id="edge5" class="edge"><title>City&#45;&gt;DrugStore</title>
<path fill="none" stroke="#2bd10d" d="M879.497,-426.838C878.249,-401.172 876.32,-361.477 875.039,-335.124"/>
<ellipse fill="none" stroke="#2bd10d" cx="879.695" cy="-430.921" rx="4" ry="4"/>
<polygon fill="#2bd10d" stroke="#2bd10d" points="875.035,-335.05 879.044,-324.843 874.792,-330.056 874.55,-325.062 874.55,-325.062 874.55,-325.062 874.792,-330.056 870.055,-325.28 875.035,-335.05 875.035,-335.05"/>
</g>
<!-- Hospital -->
<g id="node30" class="node"><title>Hospital</title>
<ellipse fill="none" stroke="black" cx="1026.72" cy="-307" rx="40.149" ry="18"/>
<text text-anchor="middle" x="1026.72" y="-302.8" font-family="Times,serif" font-size="14.00">Hospital</text>
</g>
<!-- City&#45;&gt;Hospital -->
<g id="edge3" class="edge"><title>City&#45;&gt;Hospital</title>
<path fill="none" stroke="#8deb86" d="M913.281,-443.412C929.518,-437.893 948.64,-429.39 962.72,-417 988.493,-394.32 1006.67,-358.653 1016.9,-334.342"/>
<ellipse fill="none" stroke="#8deb86" cx="909.385" cy="-444.663" rx="4.00001" ry="4.00001"/>
<polygon fill="#8deb86" stroke="#8deb86" points="1016.93,-334.274 1024.85,-326.692 1018.81,-329.639 1020.68,-325.004 1020.68,-325.004 1020.68,-325.004 1018.81,-329.639 1016.51,-323.316 1016.93,-334.274 1016.93,-334.274"/>
</g>
<!-- Maternity -->
<g id="node36" class="node"><title>Maternity</title>
<ellipse fill="none" stroke="black" cx="730.72" cy="-253" rx="44.9596" ry="18"/>
<text text-anchor="middle" x="730.72" y="-248.8" font-family="Times,serif" font-size="14.00">Maternity</text>
</g>
<!-- City&#45;&gt;Maternity -->
<g id="edge4" class="edge"><title>City&#45;&gt;Maternity</title>
<path fill="none" stroke="#bd374c" d="M847.779,-443.118C823.651,-435.035 791.747,-420.816 771.72,-398 742.883,-365.147 734.24,-313.315 731.704,-281.617"/>
<ellipse fill="none" stroke="#bd374c" cx="851.825" cy="-444.41" rx="4.00001" ry="4.00001"/>
<polygon fill="#bd374c" stroke="#bd374c" points="731.683,-281.288 735.529,-271.019 731.36,-276.299 731.038,-271.309 731.038,-271.309 731.038,-271.309 731.36,-276.299 726.548,-271.599 731.683,-281.288 731.683,-281.288"/>
</g>
<!-- NursingRoom -->
<g id="node38" class="node"><title>NursingRoom</title>
<ellipse fill="none" stroke="black" cx="836.72" cy="-145" rx="60.4462" ry="18"/>
<text text-anchor="middle" x="836.72" y="-140.8" font-family="Times,serif" font-size="14.00">NursingRoom</text>
</g>
<!-- City&#45;&gt;NursingRoom -->
<g id="edge6" class="edge"><title>City&#45;&gt;NursingRoom</title>
<path fill="none" stroke="#311b54" d="M897.115,-429.589C918.321,-397.668 950.239,-337.592 929.72,-289 911.87,-246.727 878.929,-256.586 855.72,-217 847.852,-203.579 843.168,-186.838 840.421,-172.982"/>
<ellipse fill="none" stroke="#311b54" cx="894.769" cy="-433.027" rx="4.00002" ry="4.00002"/>
<polygon fill="#311b54" stroke="#311b54" points="840.407,-172.902 843.109,-162.274 839.542,-167.977 838.677,-163.053 838.677,-163.053 838.677,-163.053 839.542,-167.977 834.245,-163.831 840.407,-172.902 840.407,-172.902"/>
</g>
<!-- Comment -->
<g id="node10" class="node"><title>Comment</title>
<ellipse fill="none" stroke="black" cx="755.72" cy="-18" rx="44.9768" ry="18"/>
<text text-anchor="middle" x="755.72" y="-13.8" font-family="Times,serif" font-size="14.00">Comment</text>
</g>
<!-- Commodity -->
<g id="node11" class="node"><title>Commodity</title>
<ellipse fill="none" stroke="black" cx="375.72" cy="-18" rx="52.2278" ry="18"/>
<text text-anchor="middle" x="375.72" y="-13.8" font-family="Times,serif" font-size="14.00">Commodity</text>
</g>
<!-- ConfinementCenter -->
<g id="node12" class="node"><title>ConfinementCenter</title>
<ellipse fill="none" stroke="black" cx="629.72" cy="-91" rx="79.2385" ry="18"/>
<text text-anchor="middle" x="629.72" y="-86.8" font-family="Times,serif" font-size="14.00">ConfinementCenter</text>
</g>
<!-- ConfinementCenter&#45;&gt;Comment -->
<g id="edge7" class="edge"><title>ConfinementCenter&#45;&gt;Comment</title>
<path fill="none" stroke="#10fdda" d="M665.133,-70.0453C682.863,-60.0545 704.226,-48.0168 721.752,-38.141"/>
<ellipse fill="none" stroke="#10fdda" cx="661.482" cy="-72.1025" rx="4.00002" ry="4.00002"/>
<polygon fill="#10fdda" stroke="#10fdda" points="721.815,-38.1052 732.737,-37.1164 726.171,-35.6505 730.527,-33.1959 730.527,-33.1959 730.527,-33.1959 726.171,-35.6505 728.318,-29.2755 721.815,-38.1052 721.815,-38.1052"/>
</g>
<!-- ConfinementCenter&#45;&gt;Commodity -->
<g id="edge8" class="edge"><title>ConfinementCenter&#45;&gt;Commodity</title>
<path fill="none" stroke="#10a3f3" d="M573.822,-74.375C529.378,-61.9515 467.792,-44.7366 425.137,-32.8132"/>
<ellipse fill="none" stroke="#10a3f3" cx="577.794" cy="-75.4851" rx="4.00001" ry="4.00001"/>
<polygon fill="#10a3f3" stroke="#10a3f3" points="424.892,-32.7449 416.473,-25.7189 420.077,-31.3989 415.261,-30.0528 415.261,-30.0528 415.261,-30.0528 420.077,-31.3989 414.05,-34.3867 424.892,-32.7449 424.892,-32.7449"/>
</g>
<!-- Country -->
<g id="node13" class="node"><title>Country</title>
<ellipse fill="none" stroke="black" cx="880.72" cy="-611" rx="39.1887" ry="18"/>
<text text-anchor="middle" x="880.72" y="-606.8" font-family="Times,serif" font-size="14.00">Country</text>
</g>
<!-- Province -->
<g id="node40" class="node"><title>Province</title>
<ellipse fill="none" stroke="black" cx="880.72" cy="-526" rx="41.5852" ry="18"/>
<text text-anchor="middle" x="880.72" y="-521.8" font-family="Times,serif" font-size="14.00">Province</text>
</g>
<!-- Country&#45;&gt;Province -->
<g id="edge9" class="edge"><title>Country&#45;&gt;Province</title>
<path fill="none" stroke="#d60394" d="M880.72,-584.621C880.72,-574.992 880.72,-563.992 880.72,-554.202"/>
<ellipse fill="none" stroke="#d60394" cx="880.72" cy="-588.802" rx="4" ry="4"/>
<polygon fill="#d60394" stroke="#d60394" points="880.72,-554.176 885.22,-544.176 880.72,-549.176 880.72,-544.176 880.72,-544.176 880.72,-544.176 880.72,-549.176 876.22,-544.176 880.72,-554.176 880.72,-554.176"/>
</g>
<!-- County&#45;&gt;DrugStore -->
<g id="edge12" class="edge"><title>County&#45;&gt;DrugStore</title>
<path fill="none" stroke="#177fa2" d="M834.879,-356.382C840.975,-348.788 847.801,-340.286 854.01,-332.551"/>
<ellipse fill="none" stroke="#177fa2" cx="832.159" cy="-359.77" rx="4.00002" ry="4.00002"/>
<polygon fill="#177fa2" stroke="#177fa2" points="854.181,-332.338 863.951,-327.357 857.311,-328.439 860.442,-324.54 860.442,-324.54 860.442,-324.54 857.311,-328.439 856.933,-321.723 854.181,-332.338 854.181,-332.338"/>
</g>
<!-- County&#45;&gt;Hospital -->
<g id="edge10" class="edge"><title>County&#45;&gt;Hospital</title>
<path fill="none" stroke="#b563a3" d="M853.659,-366.511C890.69,-353.991 947.567,-334.761 985.912,-321.797"/>
<ellipse fill="none" stroke="#b563a3" cx="849.709" cy="-367.847" rx="4.00001" ry="4.00001"/>
<polygon fill="#b563a3" stroke="#b563a3" points="986.247,-321.684 997.161,-322.744 990.983,-320.083 995.72,-318.481 995.72,-318.481 995.72,-318.481 990.983,-320.083 994.279,-314.218 986.247,-321.684 986.247,-321.684"/>
</g>
<!-- County&#45;&gt;Maternity -->
<g id="edge11" class="edge"><title>County&#45;&gt;Maternity</title>
<path fill="none" stroke="#f7083e" d="M795.797,-357.46C791.952,-353.134 788.092,-348.524 784.72,-344 769.419,-323.472 754.647,-298.366 744.433,-279.891"/>
<ellipse fill="none" stroke="#f7083e" cx="798.663" cy="-360.598" rx="4.00002" ry="4.00002"/>
<polygon fill="#f7083e" stroke="#f7083e" points="744.314,-279.674 743.479,-268.74 741.921,-275.284 739.528,-270.894 739.528,-270.894 739.528,-270.894 741.921,-275.284 735.577,-273.048 744.314,-279.674 744.314,-279.674"/>
</g>
<!-- County&#45;&gt;NursingRoom -->
<g id="edge13" class="edge"><title>County&#45;&gt;NursingRoom</title>
<path fill="none" stroke="#b4f43e" d="M814.549,-353.34C811.984,-315.239 809.573,-241.677 822.72,-181 823.311,-178.276 824.092,-175.489 824.985,-172.736"/>
<ellipse fill="none" stroke="#b4f43e" cx="814.872" cy="-357.806" rx="4" ry="4"/>
<polygon fill="#b4f43e" stroke="#b4f43e" points="825.086,-172.462 832.781,-164.65 826.824,-167.774 828.562,-163.086 828.562,-163.086 828.562,-163.086 826.824,-167.774 824.342,-161.522 825.086,-172.462 825.086,-172.462"/>
</g>
<!-- Department -->
<g id="node15" class="node"><title>Department</title>
<ellipse fill="none" stroke="black" cx="1154.72" cy="-199" rx="51.7002" ry="18"/>
<text text-anchor="middle" x="1154.72" y="-194.8" font-family="Times,serif" font-size="14.00">Department</text>
</g>
<!-- Department&#45;&gt;Department -->
<g id="edge14" class="edge"><title>Department&#45;&gt;Department</title>
<path fill="none" stroke="#b1bd2c" d="M1205.69,-208.816C1216.64,-207.842 1224.57,-204.57 1224.57,-199 1224.57,-193.805 1217.67,-190.609 1207.86,-189.412"/>
<ellipse fill="none" stroke="#b1bd2c" cx="1201.69" cy="-208.969" rx="4" ry="4"/>
<polygon fill="#b1bd2c" stroke="#b1bd2c" points="1207.68,-189.403 1197.93,-184.384 1202.69,-189.14 1197.69,-188.877 1197.69,-188.877 1197.69,-188.877 1202.69,-189.14 1197.46,-193.371 1207.68,-189.403 1207.68,-189.403"/>
<text text-anchor="middle" x="1276.28" y="-194.8" font-family="Times,serif" font-size="14.00">child_departments</text>
</g>
<!-- Disease -->
<g id="node16" class="node"><title>Disease</title>
<ellipse fill="none" stroke="black" cx="1249.72" cy="-91" rx="37.7179" ry="18"/>
<text text-anchor="middle" x="1249.72" y="-86.8" font-family="Times,serif" font-size="14.00">Disease</text>
</g>
<!-- Department&#45;&gt;Disease -->
<g id="edge16" class="edge"><title>Department&#45;&gt;Disease</title>
<path fill="none" stroke="#f2e819" d="M1174.94,-175.435C1190.76,-157.786 1212.68,-133.327 1228.7,-115.455"/>
<ellipse fill="none" stroke="#f2e819" cx="1172.23" cy="-178.459" rx="4.00002" ry="4.00002"/>
<polygon fill="#f2e819" stroke="#f2e819" points="1228.93,-115.202 1238.95,-110.758 1232.26,-111.478 1235.6,-107.755 1235.6,-107.755 1235.6,-107.755 1232.26,-111.478 1232.25,-104.751 1228.93,-115.202 1228.93,-115.202"/>
</g>
<!-- Doctor -->
<g id="node18" class="node"><title>Doctor</title>
<ellipse fill="none" stroke="black" cx="1086.72" cy="-91" rx="34.8285" ry="18"/>
<text text-anchor="middle" x="1086.72" y="-86.8" font-family="Times,serif" font-size="14.00">Doctor</text>
</g>
<!-- Department&#45;&gt;Doctor -->
<g id="edge15" class="edge"><title>Department&#45;&gt;Doctor</title>
<path fill="none" stroke="#dae1bb" d="M1139.47,-174.235C1128.5,-157.129 1113.73,-134.11 1102.61,-116.777"/>
<ellipse fill="none" stroke="#dae1bb" cx="1141.63" cy="-177.602" rx="4.00002" ry="4.00002"/>
<polygon fill="#dae1bb" stroke="#dae1bb" points="1102.57,-116.709 1100.96,-105.862 1099.87,-112.501 1097.17,-108.292 1097.17,-108.292 1097.17,-108.292 1099.87,-112.501 1093.38,-110.722 1102.57,-116.709 1102.57,-116.709"/>
</g>
<!-- DoctorDisease -->
<g id="node19" class="node"><title>DoctorDisease</title>
<ellipse fill="none" stroke="black" cx="1086.72" cy="-18" rx="62.3321" ry="18"/>
<text text-anchor="middle" x="1086.72" y="-13.8" font-family="Times,serif" font-size="14.00">DoctorDisease</text>
</g>
<!-- Disease&#45;&gt;DoctorDisease -->
<g id="edge17" class="edge"><title>Disease&#45;&gt;DoctorDisease</title>
<path fill="none" stroke="#298e80" d="M1215.17,-74.949C1190.03,-64.0021 1155.87,-49.1185 1129.09,-37.4543"/>
<ellipse fill="none" stroke="#298e80" cx="1219.14" cy="-76.6784" rx="4.00002" ry="4.00002"/>
<polygon fill="#298e80" stroke="#298e80" points="1128.75,-37.3093 1121.38,-29.1902 1124.17,-35.3126 1119.59,-33.3158 1119.59,-33.3158 1119.59,-33.3158 1124.17,-35.3126 1117.79,-37.4415 1128.75,-37.3093 1128.75,-37.3093"/>
</g>
<!-- DiseaseInfoCategory -->
<g id="node17" class="node"><title>DiseaseInfoCategory</title>
<ellipse fill="none" stroke="black" cx="1024.72" cy="-526" rx="84.5169" ry="18"/>
<text text-anchor="middle" x="1024.72" y="-521.8" font-family="Times,serif" font-size="14.00">DiseaseInfoCategory</text>
</g>
<!-- DiseaseInfoCategory&#45;&gt;DiseaseInfoCategory -->
<g id="edge18" class="edge"><title>DiseaseInfoCategory&#45;&gt;DiseaseInfoCategory</title>
<path fill="none" stroke="#3e66a0" d="M1112.44,-531.591C1121.6,-530.499 1127.48,-528.635 1127.48,-526 1127.48,-523.573 1122.5,-521.801 1114.55,-520.683"/>
<ellipse fill="none" stroke="#3e66a0" cx="1108.41" cy="-531.948" rx="4" ry="4"/>
<polygon fill="#3e66a0" stroke="#3e66a0" points="1114.38,-520.666 1104.86,-515.22 1109.4,-520.183 1104.43,-519.699 1104.43,-519.699 1104.43,-519.699 1109.4,-520.183 1103.99,-524.178 1114.38,-520.666 1114.38,-520.666"/>
<text text-anchor="middle" x="1150.41" y="-521.8" font-family="Times,serif" font-size="14.00">children</text>
</g>
<!-- Information -->
<g id="node33" class="node"><title>Information</title>
<ellipse fill="none" stroke="black" cx="1024.72" cy="-453" rx="52.1934" ry="18"/>
<text text-anchor="middle" x="1024.72" y="-448.8" font-family="Times,serif" font-size="14.00">Information</text>
</g>
<!-- DiseaseInfoCategory&#45;&gt;Information -->
<g id="edge19" class="edge"><title>DiseaseInfoCategory&#45;&gt;Information</title>
<path fill="none" stroke="#2e4a0e" d="M1024.72,-499.791C1024.72,-493.832 1024.72,-487.45 1024.72,-481.399"/>
<ellipse fill="none" stroke="#2e4a0e" cx="1024.72" cy="-503.813" rx="4" ry="4"/>
<polygon fill="#2e4a0e" stroke="#2e4a0e" points="1024.72,-481.029 1029.22,-471.029 1024.72,-476.029 1024.72,-471.029 1024.72,-471.029 1024.72,-471.029 1024.72,-476.029 1020.22,-471.029 1024.72,-481.029 1024.72,-481.029"/>
</g>
<!-- Doctor&#45;&gt;Comment -->
<g id="edge20" class="edge"><title>Doctor&#45;&gt;Comment</title>
<path fill="none" stroke="#525313" d="M1064.47,-69.9446C1056.55,-63.8536 1047.22,-57.7794 1037.72,-54 997.551,-38.0231 880.22,-27.5184 810.199,-22.4811"/>
<ellipse fill="none" stroke="#525313" cx="1067.66" cy="-72.5069" rx="4.00002" ry="4.00002"/>
<polygon fill="#525313" stroke="#525313" points="809.782,-22.4518 800.123,-17.2597 804.794,-22.1002 799.807,-21.7486 799.807,-21.7486 799.807,-21.7486 804.794,-22.1002 799.49,-26.2374 809.782,-22.4518 809.782,-22.4518"/>
</g>
<!-- Doctor&#45;&gt;DoctorDisease -->
<g id="edge21" class="edge"><title>Doctor&#45;&gt;DoctorDisease</title>
<path fill="none" stroke="#99e138" d="M1086.72,-64.791C1086.72,-58.832 1086.72,-52.4496 1086.72,-46.3988"/>
<ellipse fill="none" stroke="#99e138" cx="1086.72" cy="-68.8129" rx="4" ry="4"/>
<polygon fill="#99e138" stroke="#99e138" points="1086.72,-46.0288 1091.22,-36.0288 1086.72,-41.0288 1086.72,-36.0288 1086.72,-36.0288 1086.72,-36.0288 1086.72,-41.0288 1082.22,-36.0289 1086.72,-46.0288 1086.72,-46.0288"/>
</g>
<!-- Drug -->
<g id="node20" class="node"><title>Drug</title>
<ellipse fill="none" stroke="black" cx="503.72" cy="-91" rx="28.0651" ry="18"/>
<text text-anchor="middle" x="503.72" y="-86.8" font-family="Times,serif" font-size="14.00">Drug</text>
</g>
<!-- Drug&#45;&gt;Comment -->
<g id="edge23" class="edge"><title>Drug&#45;&gt;Comment</title>
<path fill="none" stroke="#565aa4" d="M533.093,-76.2606C535.982,-75.0907 538.891,-73.9815 541.72,-73 596.967,-53.8342 662.397,-38.3287 706.234,-28.9306"/>
<ellipse fill="none" stroke="#565aa4" cx="529.245" cy="-77.8915" rx="4.00002" ry="4.00002"/>
<polygon fill="#565aa4" stroke="#565aa4" points="706.287,-28.9194 717.003,-31.249 711.179,-27.8831 716.07,-26.8467 716.07,-26.8467 716.07,-26.8467 711.179,-27.8831 715.137,-22.4444 706.287,-28.9194 706.287,-28.9194"/>
</g>
<!-- Drug&#45;&gt;Commodity -->
<g id="edge24" class="edge"><title>Drug&#45;&gt;Commodity</title>
<path fill="none" stroke="#6152f0" d="M482.952,-69.896C476.482,-64.2852 469.1,-58.4998 461.72,-54 449.427,-46.5042 435.243,-39.9783 421.984,-34.658"/>
<ellipse fill="none" stroke="#6152f0" cx="486.107" cy="-72.7243" rx="4.00002" ry="4.00002"/>
<polygon fill="#6152f0" stroke="#6152f0" points="421.859,-34.6097 414.157,-26.8037 417.196,-32.8051 412.533,-31.0004 412.533,-31.0004 412.533,-31.0004 417.196,-32.8051 410.909,-35.1971 421.859,-34.6097 421.859,-34.6097"/>
</g>
<!-- DrugDetail -->
<g id="node22" class="node"><title>DrugDetail</title>
<ellipse fill="none" stroke="black" cx="547.72" cy="-18" rx="49.7792" ry="18"/>
<text text-anchor="middle" x="547.72" y="-13.8" font-family="Times,serif" font-size="14.00">DrugDetail</text>
</g>
<!-- Drug&#45;&gt;DrugDetail -->
<g id="edge22" class="edge"><title>Drug&#45;&gt;DrugDetail</title>
<path fill="none" stroke="#3bc5bf" d="M518.039,-66.8951C522.417,-59.8302 527.259,-52.0163 531.741,-44.7851"/>
<ellipse fill="none" stroke="#3bc5bf" cx="515.812" cy="-70.489" rx="4.00002" ry="4.00002"/>
<polygon fill="#3bc5bf" stroke="#3bc5bf" points="531.894,-44.5374 540.987,-38.4078 534.528,-40.2874 537.162,-36.0373 537.162,-36.0373 537.162,-36.0373 534.528,-40.2874 533.337,-33.6668 531.894,-44.5374 531.894,-44.5374"/>
</g>
<!-- DrugCategory -->
<g id="node21" class="node"><title>DrugCategory</title>
<ellipse fill="none" stroke="black" cx="1158.72" cy="-611" rx="60.896" ry="18"/>
<text text-anchor="middle" x="1158.72" y="-606.8" font-family="Times,serif" font-size="14.00">DrugCategory</text>
</g>
<!-- DrugCategory&#45;&gt;DrugCategory -->
<g id="edge25" class="edge"><title>DrugCategory&#45;&gt;DrugCategory</title>
<path fill="none" stroke="#a9a194" d="M1219.78,-619.4C1230.2,-618.251 1237.42,-615.451 1237.42,-611 1237.42,-606.852 1231.15,-604.137 1221.86,-602.857"/>
<ellipse fill="none" stroke="#a9a194" cx="1215.68" cy="-619.676" rx="4" ry="4"/>
<polygon fill="#a9a194" stroke="#a9a194" points="1221.65,-602.841 1212.04,-597.569 1216.67,-602.448 1211.68,-602.055 1211.68,-602.055 1211.68,-602.055 1216.67,-602.448 1211.33,-606.541 1221.65,-602.841 1221.65,-602.841"/>
<text text-anchor="middle" x="1260.35" y="-606.8" font-family="Times,serif" font-size="14.00">children</text>
</g>
<!-- Editor -->
<g id="node24" class="node"><title>Editor</title>
<ellipse fill="none" stroke="black" cx="1332.72" cy="-611" rx="32.4237" ry="18"/>
<text text-anchor="middle" x="1332.72" y="-606.8" font-family="Times,serif" font-size="14.00">Editor</text>
</g>
<!-- Examination -->
<g id="node25" class="node"><title>Examination</title>
<ellipse fill="none" stroke="black" cx="220.72" cy="-91" rx="55.0922" ry="18"/>
<text text-anchor="middle" x="220.72" y="-86.8" font-family="Times,serif" font-size="14.00">Examination</text>
</g>
<!-- Examination&#45;&gt;Comment -->
<g id="edge26" class="edge"><title>Examination&#45;&gt;Comment</title>
<path fill="none" stroke="#c81889" d="M276.348,-80.3034C291.38,-77.7994 307.656,-75.1938 322.72,-73 459.492,-53.0825 621.242,-34.1272 702.898,-24.8791"/>
<ellipse fill="none" stroke="#c81889" cx="272.085" cy="-81.0187" rx="4.00001" ry="4.00001"/>
<polygon fill="#c81889" stroke="#c81889" points="702.991,-24.8687 713.433,-28.218 707.959,-24.3075 712.928,-23.7464 712.928,-23.7464 712.928,-23.7464 707.959,-24.3075 712.423,-19.2748 702.991,-24.8687 702.991,-24.8687"/>
</g>
<!-- Examination&#45;&gt;Commodity -->
<g id="edge27" class="edge"><title>Examination&#45;&gt;Commodity</title>
<path fill="none" stroke="#09e592" d="M254.996,-71.3046C265.979,-65.5337 278.264,-59.3053 289.72,-54 303.506,-47.6156 318.798,-41.1881 332.619,-35.6147"/>
<ellipse fill="none" stroke="#09e592" cx="251.161" cy="-73.3368" rx="4.00002" ry="4.00002"/>
<polygon fill="#09e592" stroke="#09e592" points="332.627,-35.6112 343.583,-36.0829 337.271,-33.7574 341.915,-31.9036 341.915,-31.9036 341.915,-31.9036 337.271,-33.7574 340.246,-27.7243 332.627,-35.6112 332.627,-35.6112"/>
</g>
<!-- ExaminationDetail -->
<g id="node27" class="node"><title>ExaminationDetail</title>
<ellipse fill="none" stroke="black" cx="112.72" cy="-18" rx="76.8071" ry="18"/>
<text text-anchor="middle" x="112.72" y="-13.8" font-family="Times,serif" font-size="14.00">ExaminationDetail</text>
</g>
<!-- Examination&#45;&gt;ExaminationDetail -->
<g id="edge28" class="edge"><title>Examination&#45;&gt;ExaminationDetail</title>
<path fill="none" stroke="#9f32f0" d="M190.35,-70.0342C176.449,-60.8961 159.947,-50.0474 145.739,-40.7071"/>
<ellipse fill="none" stroke="#9f32f0" cx="193.943" cy="-72.3967" rx="4.00002" ry="4.00002"/>
<polygon fill="#9f32f0" stroke="#9f32f0" points="145.589,-40.6085 139.705,-31.3549 141.411,-37.8618 137.233,-35.1152 137.233,-35.1152 137.233,-35.1152 141.411,-37.8618 134.761,-38.8754 145.589,-40.6085 145.589,-40.6085"/>
</g>
<!-- ExaminationCategory -->
<g id="node26" class="node"><title>ExaminationCategory</title>
<ellipse fill="none" stroke="black" cx="91.7202" cy="-199" rx="87.9239" ry="18"/>
<text text-anchor="middle" x="91.7202" y="-194.8" font-family="Times,serif" font-size="14.00">ExaminationCategory</text>
</g>
<!-- ExaminationCategory&#45;&gt;Examination -->
<g id="edge29" class="edge"><title>ExaminationCategory&#45;&gt;Examination</title>
<path fill="none" stroke="#52ac36" d="M118.188,-176.251C140.132,-158.22 171.214,-132.679 193.393,-114.455"/>
<ellipse fill="none" stroke="#52ac36" cx="114.967" cy="-178.898" rx="4.00002" ry="4.00002"/>
<polygon fill="#52ac36" stroke="#52ac36" points="193.402,-114.448 203.985,-111.576 197.265,-111.273 201.128,-108.099 201.128,-108.099 201.128,-108.099 197.265,-111.273 198.271,-104.622 193.402,-114.448 193.402,-114.448"/>
</g>
<!-- Feedback -->
<g id="node28" class="node"><title>Feedback</title>
<ellipse fill="none" stroke="black" cx="1210.72" cy="-18" rx="43.9819" ry="18"/>
<text text-anchor="middle" x="1210.72" y="-13.8" font-family="Times,serif" font-size="14.00">Feedback</text>
</g>
<!-- HealthInformation -->
<g id="node29" class="node"><title>HealthInformation</title>
<ellipse fill="none" stroke="black" cx="1458.72" cy="-611" rx="75.838" ry="18"/>
<text text-anchor="middle" x="1458.72" y="-606.8" font-family="Times,serif" font-size="14.00">HealthInformation</text>
</g>
<!-- Hospital&#45;&gt;Comment -->
<g id="edge32" class="edge"><title>Hospital&#45;&gt;Comment</title>
<path fill="none" stroke="#8d2df5" d="M1031.27,-280.667C1034.71,-253.887 1036.13,-211.397 1017.72,-181 968.654,-99.9649 862.047,-53.5096 801.022,-32.5783"/>
<ellipse fill="none" stroke="#8d2df5" cx="1030.68" cy="-284.815" rx="4.00001" ry="4.00001"/>
<polygon fill="#8d2df5" stroke="#8d2df5" points="800.756,-32.4893 792.699,-25.0505 796.014,-30.9038 791.272,-29.3183 791.272,-29.3183 791.272,-29.3183 796.014,-30.9038 789.845,-33.586 800.756,-32.4893 800.756,-32.4893"/>
</g>
<!-- Hospital&#45;&gt;Department -->
<g id="edge30" class="edge"><title>Hospital&#45;&gt;Department</title>
<path fill="none" stroke="#f2ca1f" d="M1060.34,-289.493C1069.9,-284.155 1080.06,-277.832 1088.72,-271 1105.95,-257.408 1122.75,-239.239 1135.09,-224.684"/>
<ellipse fill="none" stroke="#f2ca1f" cx="1056.7" cy="-291.467" rx="4.00002" ry="4.00002"/>
<polygon fill="#f2ca1f" stroke="#f2ca1f" points="1135.42,-224.287 1145.27,-219.469 1138.62,-220.441 1141.81,-216.594 1141.81,-216.594 1141.81,-216.594 1138.62,-220.441 1138.35,-213.719 1135.42,-224.287 1135.42,-224.287"/>
</g>
<!-- Hospital&#45;&gt;Doctor -->
<g id="edge31" class="edge"><title>Hospital&#45;&gt;Doctor</title>
<path fill="none" stroke="#d88818" d="M1044.36,-283.028C1046.77,-279.158 1049,-275.072 1050.72,-271 1072.24,-220.061 1081.15,-155.423 1084.64,-119.411"/>
<ellipse fill="none" stroke="#d88818" cx="1042.12" cy="-286.382" rx="4.00002" ry="4.00002"/>
<polygon fill="#d88818" stroke="#d88818" points="1084.66,-119.161 1090.04,-109.604 1085.11,-114.181 1085.56,-109.201 1085.56,-109.201 1085.56,-109.201 1085.11,-114.181 1081.08,-108.799 1084.66,-119.161 1084.66,-119.161"/>
</g>
<!-- Recommendation -->
<g id="node42" class="node"><title>Recommendation</title>
<ellipse fill="none" stroke="black" cx="936.72" cy="-199" rx="72.4722" ry="18"/>
<text text-anchor="middle" x="936.72" y="-194.8" font-family="Times,serif" font-size="14.00">Recommendation</text>
</g>
<!-- Hospital&#45;&gt;Recommendation -->
<g id="edge33" class="edge"><title>Hospital&#45;&gt;Recommendation</title>
<path fill="none" stroke="#a02684" d="M1007.85,-283.771C993.181,-266.499 972.853,-242.556 957.683,-224.689"/>
<ellipse fill="none" stroke="#a02684" cx="1010.46" cy="-286.852" rx="4.00002" ry="4.00002"/>
<polygon fill="#a02684" stroke="#a02684" points="957.587,-224.577 954.545,-214.041 954.351,-220.765 951.115,-216.954 951.115,-216.954 951.115,-216.954 954.351,-220.765 947.684,-219.866 957.587,-224.577 957.587,-224.577"/>
</g>
<!-- HotAction -->
<g id="node31" class="node"><title>HotAction</title>
<ellipse fill="none" stroke="black" cx="1599.72" cy="-611" rx="47.3823" ry="18"/>
<text text-anchor="middle" x="1599.72" y="-606.8" font-family="Times,serif" font-size="14.00">HotAction</text>
</g>
<!-- ImportDrug -->
<g id="node32" class="node"><title>ImportDrug</title>
<ellipse fill="none" stroke="black" cx="1717.72" cy="-611" rx="52.202" ry="18"/>
<text text-anchor="middle" x="1717.72" y="-606.8" font-family="Times,serif" font-size="14.00">ImportDrug</text>
</g>
<!-- Insurance -->
<g id="node34" class="node"><title>Insurance</title>
<ellipse fill="none" stroke="black" cx="375.72" cy="-91" rx="44.4578" ry="18"/>
<text text-anchor="middle" x="375.72" y="-86.8" font-family="Times,serif" font-size="14.00">Insurance</text>
</g>
<!-- Insurance&#45;&gt;Comment -->
<g id="edge34" class="edge"><title>Insurance&#45;&gt;Comment</title>
<path fill="none" stroke="#c6d6eb" d="M423.296,-81.1108C495.586,-67.6039 632.437,-42.0344 705.988,-28.2921"/>
<ellipse fill="none" stroke="#c6d6eb" cx="419.243" cy="-81.868" rx="4.00001" ry="4.00001"/>
<polygon fill="#c6d6eb" stroke="#c6d6eb" points="706.103,-28.2707 716.759,-30.8574 711.018,-27.3523 715.933,-26.434 715.933,-26.434 715.933,-26.434 711.018,-27.3523 715.106,-22.0105 706.103,-28.2707 706.103,-28.2707"/>
</g>
<!-- Insurance&#45;&gt;Commodity -->
<g id="edge35" class="edge"><title>Insurance&#45;&gt;Commodity</title>
<path fill="none" stroke="#f818b1" d="M375.72,-64.791C375.72,-58.832 375.72,-52.4496 375.72,-46.3988"/>
<ellipse fill="none" stroke="#f818b1" cx="375.72" cy="-68.8129" rx="4" ry="4"/>
<polygon fill="#f818b1" stroke="#f818b1" points="375.72,-46.0288 380.22,-36.0288 375.72,-41.0288 375.72,-36.0288 375.72,-36.0288 375.72,-36.0288 375.72,-41.0288 371.22,-36.0289 375.72,-46.0288 375.72,-46.0288"/>
</g>
<!-- InsuranceCompany -->
<g id="node35" class="node"><title>InsuranceCompany</title>
<ellipse fill="none" stroke="black" cx="410.72" cy="-199" rx="78.7367" ry="18"/>
<text text-anchor="middle" x="410.72" y="-194.8" font-family="Times,serif" font-size="14.00">InsuranceCompany</text>
</g>
<!-- InsuranceCompany&#45;&gt;Insurance -->
<g id="edge36" class="edge"><title>InsuranceCompany&#45;&gt;Insurance</title>
<path fill="none" stroke="#75bc46" d="M402.555,-173.271C397.154,-156.914 390.075,-135.476 384.545,-118.725"/>
<ellipse fill="none" stroke="#75bc46" cx="403.843" cy="-177.171" rx="4.00001" ry="4.00001"/>
<polygon fill="#75bc46" stroke="#75bc46" points="384.465,-118.484 385.603,-107.578 382.897,-113.736 381.33,-108.988 381.33,-108.988 381.33,-108.988 382.897,-113.736 377.057,-110.399 384.465,-118.484 384.465,-118.484"/>
</g>
<!-- Maternity&#45;&gt;Comment -->
<g id="edge37" class="edge"><title>Maternity&#45;&gt;Comment</title>
<path fill="none" stroke="#dc1ef0" d="M735.832,-226.68C743.088,-189.314 756.018,-117.117 760.72,-55 760.932,-52.206 760.919,-49.298 760.755,-46.3998"/>
<ellipse fill="none" stroke="#dc1ef0" cx="734.974" cy="-231.046" rx="4.00001" ry="4.00001"/>
<polygon fill="#dc1ef0" stroke="#dc1ef0" points="760.722,-46.1045 764.089,-35.6684 760.169,-41.1352 759.616,-36.1658 759.616,-36.1658 759.616,-36.1658 760.169,-41.1352 755.144,-36.6632 760.722,-46.1045 760.722,-46.1045"/>
</g>
<!-- Maternity&#45;&gt;Commodity -->
<g id="edge38" class="edge"><title>Maternity&#45;&gt;Commodity</title>
<path fill="none" stroke="#c98b8a" d="M677.389,-251.354C572.232,-249.525 346.241,-242.624 322.72,-217 279.443,-169.851 298.505,-132.242 322.72,-73 327.652,-60.9355 336.722,-50.1112 345.982,-41.3781"/>
<ellipse fill="none" stroke="#c98b8a" cx="681.661" cy="-251.425" rx="4" ry="4"/>
<polygon fill="#c98b8a" stroke="#c98b8a" points="346.219,-41.1686 356.695,-37.9273 349.969,-37.8607 353.718,-34.5528 353.718,-34.5528 353.718,-34.5528 349.969,-37.8607 350.741,-31.1783 346.219,-41.1686 346.219,-41.1686"/>
</g>
<!-- Medical -->
<g id="node37" class="node"><title>Medical</title>
<ellipse fill="none" stroke="black" cx="236.72" cy="-199" rx="39.1627" ry="18"/>
<text text-anchor="middle" x="236.72" y="-194.8" font-family="Times,serif" font-size="14.00">Medical</text>
</g>
<!-- Medical&#45;&gt;Comment -->
<g id="edge39" class="edge"><title>Medical&#45;&gt;Comment</title>
<path fill="none" stroke="#fadfc9" d="M279.73,-189.368C293.459,-186.647 308.721,-183.659 322.72,-181 498.033,-147.697 578.493,-220.622 717.72,-109 736.99,-93.5513 746.633,-66.5578 751.366,-46.1517"/>
<ellipse fill="none" stroke="#fadfc9" cx="275.768" cy="-190.155" rx="4.00001" ry="4.00001"/>
<polygon fill="#fadfc9" stroke="#fadfc9" points="751.403,-45.972 757.826,-37.0842 752.41,-41.0746 753.418,-36.1772 753.418,-36.1772 753.418,-36.1772 752.41,-41.0746 749.011,-35.2701 751.403,-45.972 751.403,-45.972"/>
</g>
<!-- Medical&#45;&gt;Commodity -->
<g id="edge40" class="edge"><title>Medical&#45;&gt;Commodity</title>
<path fill="none" stroke="#2b67de" d="M208.91,-178.654C176.029,-153.416 129.055,-108.315 156.72,-73 176.227,-48.0995 258.326,-33.1217 316.252,-25.4592"/>
<ellipse fill="none" stroke="#2b67de" cx="212.48" cy="-181.329" rx="4.00002" ry="4.00002"/>
<polygon fill="#2b67de" stroke="#2b67de" points="316.486,-25.4292 326.978,-28.6211 321.446,-24.7934 326.405,-24.1576 326.405,-24.1576 326.405,-24.1576 321.446,-24.7934 325.833,-19.6941 316.486,-25.4292 316.486,-25.4292"/>
</g>
<!-- Medical&#45;&gt;Examination -->
<g id="edge41" class="edge"><title>Medical&#45;&gt;Examination</title>
<path fill="none" stroke="#e2927d" d="M232.948,-173.008C230.505,-156.823 227.324,-135.748 224.819,-119.152"/>
<ellipse fill="none" stroke="#e2927d" cx="233.552" cy="-177.014" rx="4.00001" ry="4.00001"/>
<polygon fill="#e2927d" stroke="#e2927d" points="224.777,-118.876 227.734,-108.317 224.031,-113.932 223.285,-108.988 223.285,-108.988 223.285,-108.988 224.031,-113.932 218.835,-109.66 224.777,-118.876 224.777,-118.876"/>
</g>
<!-- NursingRoom&#45;&gt;Comment -->
<g id="edge42" class="edge"><title>NursingRoom&#45;&gt;Comment</title>
<path fill="none" stroke="#626446" d="M825.809,-119.431C816.995,-100.732 803.637,-74.7636 788.72,-54 785.885,-50.0534 782.634,-46.0927 779.302,-42.3282"/>
<ellipse fill="none" stroke="#626446" cx="827.617" cy="-123.334" rx="4.00002" ry="4.00002"/>
<polygon fill="#626446" stroke="#626446" points="779.256,-42.2781 775.758,-31.8849 775.857,-38.611 772.458,-34.9439 772.458,-34.9439 772.458,-34.9439 775.857,-38.611 769.157,-38.0029 779.256,-42.2781 779.256,-42.2781"/>
</g>
<!-- NursingRoom&#45;&gt;Commodity -->
<g id="edge43" class="edge"><title>NursingRoom&#45;&gt;Commodity</title>
<path fill="none" stroke="#f5f6a0" d="M768.535,-142.989C676.661,-140.704 518.641,-133.259 466.72,-109 462.483,-107.02 424.452,-68.71 398.915,-42.717"/>
<ellipse fill="none" stroke="#f5f6a0" cx="772.669" cy="-143.087" rx="4" ry="4"/>
<polygon fill="#f5f6a0" stroke="#f5f6a0" points="398.766,-42.5646 394.975,-32.2749 395.264,-38.9955 391.762,-35.4264 391.762,-35.4264 391.762,-35.4264 395.264,-38.9955 388.55,-38.5779 398.766,-42.5646 398.766,-42.5646"/>
</g>
<!-- Part -->
<g id="node39" class="node"><title>Part</title>
<ellipse fill="none" stroke="black" cx="1814.72" cy="-611" rx="27" ry="18"/>
<text text-anchor="middle" x="1814.72" y="-606.8" font-family="Times,serif" font-size="14.00">Part</text>
</g>
<!-- Symptom -->
<g id="node44" class="node"><title>Symptom</title>
<ellipse fill="none" stroke="black" cx="1814.72" cy="-526" rx="44.5096" ry="18"/>
<text text-anchor="middle" x="1814.72" y="-521.8" font-family="Times,serif" font-size="14.00">Symptom</text>
</g>
<!-- Part&#45;&gt;Symptom -->
<g id="edge44" class="edge"><title>Part&#45;&gt;Symptom</title>
<path fill="none" stroke="#84c7ca" d="M1814.72,-584.621C1814.72,-574.992 1814.72,-563.992 1814.72,-554.202"/>
<ellipse fill="none" stroke="#84c7ca" cx="1814.72" cy="-588.802" rx="4" ry="4"/>
<polygon fill="#84c7ca" stroke="#84c7ca" points="1814.72,-554.176 1819.22,-544.176 1814.72,-549.176 1814.72,-544.176 1814.72,-544.176 1814.72,-544.176 1814.72,-549.176 1810.22,-544.176 1814.72,-554.176 1814.72,-554.176"/>
</g>
<!-- Province&#45;&gt;City -->
<g id="edge45" class="edge"><title>Province&#45;&gt;City</title>
<path fill="none" stroke="#f34725" d="M880.72,-499.791C880.72,-493.832 880.72,-487.45 880.72,-481.399"/>
<ellipse fill="none" stroke="#f34725" cx="880.72" cy="-503.813" rx="4" ry="4"/>
<polygon fill="#f34725" stroke="#f34725" points="880.72,-481.029 885.22,-471.029 880.72,-476.029 880.72,-471.029 880.72,-471.029 880.72,-471.029 880.72,-476.029 876.22,-471.029 880.72,-481.029 880.72,-481.029"/>
</g>
<!-- Question -->
<g id="node41" class="node"><title>Question</title>
<ellipse fill="none" stroke="black" cx="1901.72" cy="-611" rx="42.0784" ry="18"/>
<text text-anchor="middle" x="1901.72" y="-606.8" font-family="Times,serif" font-size="14.00">Question</text>
</g>
<!-- Subscription -->
<g id="node43" class="node"><title>Subscription</title>
<ellipse fill="none" stroke="black" cx="1024.72" cy="-611" rx="54.6334" ry="18"/>
<text text-anchor="middle" x="1024.72" y="-606.8" font-family="Times,serif" font-size="14.00">Subscription</text>
</g>
<!-- Subscription&#45;&gt;DiseaseInfoCategory -->
<g id="edge46" class="edge"><title>Subscription&#45;&gt;DiseaseInfoCategory</title>
<path fill="none" stroke="#3185f6" d="M1024.72,-584.621C1024.72,-574.377 1024.72,-562.583 1024.72,-552.343"/>
<ellipse fill="none" stroke="#3185f6" cx="1024.72" cy="-588.802" rx="4" ry="4"/>
<ellipse fill="#3185f6" stroke="#3185f6" cx="1024.72" cy="-548.176" rx="4" ry="4"/>
</g>
<!-- SymptomDetail -->
<g id="node45" class="node"><title>SymptomDetail</title>
<ellipse fill="none" stroke="black" cx="1814.72" cy="-453" rx="66.2253" ry="18"/>
<text text-anchor="middle" x="1814.72" y="-448.8" font-family="Times,serif" font-size="14.00">SymptomDetail</text>
</g>
<!-- Symptom&#45;&gt;SymptomDetail -->
<g id="edge47" class="edge"><title>Symptom&#45;&gt;SymptomDetail</title>
<path fill="none" stroke="#89abf7" d="M1814.72,-499.791C1814.72,-493.832 1814.72,-487.45 1814.72,-481.399"/>
<ellipse fill="none" stroke="#89abf7" cx="1814.72" cy="-503.813" rx="4" ry="4"/>
<polygon fill="#89abf7" stroke="#89abf7" points="1814.72,-481.029 1819.22,-471.029 1814.72,-476.029 1814.72,-471.029 1814.72,-471.029 1814.72,-471.029 1814.72,-476.029 1810.22,-471.029 1814.72,-481.029 1814.72,-481.029"/>
</g>
<!-- User -->
<g id="node46" class="node"><title>User</title>
<ellipse fill="none" stroke="black" cx="1166.72" cy="-91" rx="27" ry="18"/>
<text text-anchor="middle" x="1166.72" y="-86.8" font-family="Times,serif" font-size="14.00">User</text>
</g>
<!-- User&#45;&gt;Comment -->
<g id="edge49" class="edge"><title>User&#45;&gt;Comment</title>
<path fill="none" stroke="#9212ae" d="M1138.45,-76.0015C1135.86,-74.9188 1133.26,-73.8991 1130.72,-73 1097.08,-61.0991 1087.84,-60.3218 1052.72,-54 968.431,-38.8255 869.452,-28.6746 809.711,-23.3738"/>
<ellipse fill="none" stroke="#9212ae" cx="1142.42" cy="-77.7612" rx="4.00002" ry="4.00002"/>
<polygon fill="#9212ae" stroke="#9212ae" points="809.71,-23.3738 800.14,-18.0196 804.729,-22.9381 799.748,-22.5025 799.748,-22.5025 799.748,-22.5025 804.729,-22.9381 799.355,-26.9854 809.71,-23.3738 809.71,-23.3738"/>
</g>
<!-- User&#45;&gt;Feedback -->
<g id="edge48" class="edge"><title>User&#45;&gt;Feedback</title>
<path fill="none" stroke="#533615" d="M1180.92,-67.0858C1185.4,-59.8629 1190.37,-51.8414 1194.95,-44.4528"/>
<ellipse fill="none" stroke="#533615" cx="1178.81" cy="-70.489" rx="4.00002" ry="4.00002"/>
<polygon fill="#533615" stroke="#533615" points="1195.2,-44.0401 1204.3,-37.9104 1197.84,-39.79 1200.47,-35.54 1200.47,-35.54 1200.47,-35.54 1197.84,-39.79 1196.65,-33.1695 1195.2,-44.0401 1195.2,-44.0401"/>
</g>
</g>
</svg>
