<?xml version="1.0" encoding="UTF-8" standalone="no"?>
<!DOCTYPE svg PUBLIC "-//W3C//DTD SVG 1.1//EN"
 "http://www.w3.org/Graphics/SVG/1.1/DTD/svg11.dtd">
<!-- Generated by graphviz version 2.38.0 (20140413.2041)
 -->
<!-- Title: models_diagram Pages: 1 -->
<svg width="1852pt" height="795pt"
 viewBox="0.00 0.00 1851.76 795.00" xmlns="http://www.w3.org/2000/svg" xmlns:xlink="http://www.w3.org/1999/xlink">
<g id="graph0" class="graph" transform="scale(1 1) rotate(0) translate(4 791)">
<title>models_diagram</title>
<polygon fill="none" stroke="none" points="-4,4 -4,-791 1847.76,-791 1847.76,4 -4,4"/>
<!-- _diagram_info -->
<g id="node1" class="node"><title>_diagram_info</title>
<text text-anchor="start" x="8" y="-772.6" font-family="Times,serif" font-size="13.00">Models diagram</text>
<text text-anchor="start" x="8" y="-759.6" font-family="Times,serif" font-size="13.00">Date: Apr 01 2016 &#45; 17:56</text>
<text text-anchor="start" x="8" y="-746.6" font-family="Times,serif" font-size="13.00">Generated by RailRoady 1.4.2</text>
<text text-anchor="start" x="8" y="-733.6" font-family="Times,serif" font-size="13.00">http://railroady.prestonlee.com</text>
</g>
<!-- Admin -->
<g id="node2" class="node"><title>Admin</title>
<ellipse fill="none" stroke="black" cx="227.72" cy="-757" rx="34.8458" ry="18"/>
<text text-anchor="middle" x="227.72" y="-752.8" font-family="Times,serif" font-size="14.00">Admin</text>
</g>
<!-- Advertisement -->
<g id="node3" class="node"><title>Advertisement</title>
<ellipse fill="none" stroke="black" cx="342.72" cy="-757" rx="62.3407" ry="18"/>
<text text-anchor="middle" x="342.72" y="-752.8" font-family="Times,serif" font-size="14.00">Advertisement</text>
</g>
<!-- Answer -->
<g id="node4" class="node"><title>Answer</title>
<ellipse fill="none" stroke="black" cx="460.72" cy="-757" rx="37.7266" ry="18"/>
<text text-anchor="middle" x="460.72" y="-752.8" font-family="Times,serif" font-size="14.00">Answer</text>
</g>
<!-- App -->
<g id="node5" class="node"><title>App</title>
<ellipse fill="none" stroke="black" cx="573.72" cy="-672" rx="27" ry="18"/>
<text text-anchor="middle" x="573.72" y="-667.8" font-family="Times,serif" font-size="14.00">App</text>
</g>
<!-- AppCategory -->
<g id="node6" class="node"><title>AppCategory</title>
<ellipse fill="none" stroke="black" cx="573.72" cy="-757" rx="57.5065" ry="18"/>
<text text-anchor="middle" x="573.72" y="-752.8" font-family="Times,serif" font-size="14.00">AppCategory</text>
</g>
<!-- AppCategory&#45;&gt;App -->
<g id="edge1" class="edge"><title>AppCategory&#45;&gt;App</title>
<path fill="none" stroke="#096853" d="M573.72,-730.621C573.72,-720.992 573.72,-709.992 573.72,-700.202"/>
<ellipse fill="none" stroke="#096853" cx="573.72" cy="-734.802" rx="4" ry="4"/>
<polygon fill="#096853" stroke="#096853" points="573.72,-700.176 578.22,-690.176 573.72,-695.176 573.72,-690.176 573.72,-690.176 573.72,-690.176 573.72,-695.176 569.22,-690.176 573.72,-700.176 573.72,-700.176"/>
</g>
<!-- Banner -->
<g id="node7" class="node"><title>Banner</title>
<ellipse fill="none" stroke="black" cx="684.72" cy="-757" rx="35.7887" ry="18"/>
<text text-anchor="middle" x="684.72" y="-752.8" font-family="Times,serif" font-size="14.00">Banner</text>
</g>
<!-- Category -->
<g id="node8" class="node"><title>Category</title>
<ellipse fill="none" stroke="black" cx="780.72" cy="-757" rx="42.5456" ry="18"/>
<text text-anchor="middle" x="780.72" y="-752.8" font-family="Times,serif" font-size="14.00">Category</text>
</g>
<!-- City -->
<g id="node9" class="node"><title>City</title>
<ellipse fill="none" stroke="black" cx="880.72" cy="-599" rx="27" ry="18"/>
<text text-anchor="middle" x="880.72" y="-594.8" font-family="Times,serif" font-size="14.00">City</text>
</g>
<!-- County -->
<g id="node14" class="node"><title>County</title>
<ellipse fill="none" stroke="black" cx="880.72" cy="-526" rx="36.2992" ry="18"/>
<text text-anchor="middle" x="880.72" y="-521.8" font-family="Times,serif" font-size="14.00">County</text>
</g>
<!-- City&#45;&gt;County -->
<g id="edge2" class="edge"><title>City&#45;&gt;County</title>
<path fill="none" stroke="#03c48e" d="M880.72,-572.791C880.72,-566.832 880.72,-560.45 880.72,-554.399"/>
<ellipse fill="none" stroke="#03c48e" cx="880.72" cy="-576.813" rx="4" ry="4"/>
<polygon fill="#03c48e" stroke="#03c48e" points="880.72,-554.029 885.22,-544.029 880.72,-549.029 880.72,-544.029 880.72,-544.029 880.72,-544.029 880.72,-549.029 876.22,-544.029 880.72,-554.029 880.72,-554.029"/>
</g>
<!-- DrugStore -->
<g id="node24" class="node"><title>DrugStore</title>
<ellipse fill="none" stroke="black" cx="1383.72" cy="-18" rx="46.8977" ry="18"/>
<text text-anchor="middle" x="1383.72" y="-13.8" font-family="Times,serif" font-size="14.00">DrugStore</text>
</g>
<!-- City&#45;&gt;DrugStore -->
<g id="edge5" class="edge"><title>City&#45;&gt;DrugStore</title>
<path fill="none" stroke="#f300a0" d="M914.075,-590.36C929.171,-587.112 947.28,-583.504 963.72,-581 1023,-571.972 1500.72,-586.968 1500.72,-527 1500.72,-527 1500.72,-527 1500.72,-90 1500.72,-57.0553 1466.4,-38.9695 1434.93,-29.3114"/>
<ellipse fill="none" stroke="#f300a0" cx="909.936" cy="-591.265" rx="4.00001" ry="4.00001"/>
<polygon fill="#f300a0" stroke="#f300a0" points="1434.92,-29.3079 1426.53,-22.2484 1430.11,-27.9427 1425.3,-26.5774 1425.3,-26.5774 1425.3,-26.5774 1430.11,-27.9427 1424.07,-30.9064 1434.92,-29.3079 1434.92,-29.3079"/>
</g>
<!-- Hospital -->
<g id="node32" class="node"><title>Hospital</title>
<ellipse fill="none" stroke="black" cx="1122.72" cy="-453" rx="40.149" ry="18"/>
<text text-anchor="middle" x="1122.72" y="-448.8" font-family="Times,serif" font-size="14.00">Hospital</text>
</g>
<!-- City&#45;&gt;Hospital -->
<g id="edge3" class="edge"><title>City&#45;&gt;Hospital</title>
<path fill="none" stroke="#979fd1" d="M907.012,-582.356C951.677,-555.778 1042.22,-501.9 1090.58,-473.126"/>
<ellipse fill="none" stroke="#979fd1" cx="903.552" cy="-584.414" rx="4.00002" ry="4.00002"/>
<polygon fill="#979fd1" stroke="#979fd1" points="1090.78,-473.003 1101.68,-471.757 1095.08,-470.446 1099.38,-467.89 1099.38,-467.89 1099.38,-467.89 1095.08,-470.446 1097.08,-464.022 1090.78,-473.003 1090.78,-473.003"/>
</g>
<!-- Maternity -->
<g id="node40" class="node"><title>Maternity</title>
<ellipse fill="none" stroke="black" cx="771.72" cy="-399" rx="44.9596" ry="18"/>
<text text-anchor="middle" x="771.72" y="-394.8" font-family="Times,serif" font-size="14.00">Maternity</text>
</g>
<!-- City&#45;&gt;Maternity -->
<g id="edge4" class="edge"><title>City&#45;&gt;Maternity</title>
<path fill="none" stroke="#746558" d="M860.083,-577.71C837.577,-554.245 802.411,-513.379 784.72,-471 778.969,-457.221 775.755,-440.889 773.962,-427.364"/>
<ellipse fill="none" stroke="#746558" cx="863.001" cy="-580.707" rx="4.00002" ry="4.00002"/>
<polygon fill="#746558" stroke="#746558" points="773.939,-427.158 777.279,-416.713 773.374,-422.19 772.808,-417.222 772.808,-417.222 772.808,-417.222 773.374,-422.19 768.337,-417.731 773.939,-427.158 773.939,-427.158"/>
</g>
<!-- NursingRoom -->
<g id="node42" class="node"><title>NursingRoom</title>
<ellipse fill="none" stroke="black" cx="497.72" cy="-291" rx="60.4462" ry="18"/>
<text text-anchor="middle" x="497.72" y="-286.8" font-family="Times,serif" font-size="14.00">NursingRoom</text>
</g>
<!-- City&#45;&gt;NursingRoom -->
<g id="edge6" class="edge"><title>City&#45;&gt;NursingRoom</title>
<path fill="none" stroke="#59d4e1" d="M845.372,-598.297C699.852,-599.06 154.72,-597.233 154.72,-527 154.72,-527 154.72,-527 154.72,-398 154.72,-340.68 331.786,-311.007 431.478,-298.844"/>
<ellipse fill="none" stroke="#59d4e1" cx="849.585" cy="-598.272" rx="4" ry="4"/>
<polygon fill="#59d4e1" stroke="#59d4e1" points="431.535,-298.837 441.998,-302.12 436.5,-298.245 441.465,-297.652 441.465,-297.652 441.465,-297.652 436.5,-298.245 440.932,-293.184 431.535,-298.837 431.535,-298.837"/>
</g>
<!-- Comment -->
<g id="node10" class="node"><title>Comment</title>
<ellipse fill="none" stroke="black" cx="813.72" cy="-18" rx="44.9768" ry="18"/>
<text text-anchor="middle" x="813.72" y="-13.8" font-family="Times,serif" font-size="14.00">Comment</text>
</g>
<!-- Commodity -->
<g id="node11" class="node"><title>Commodity</title>
<ellipse fill="none" stroke="black" cx="427.72" cy="-18" rx="52.2278" ry="18"/>
<text text-anchor="middle" x="427.72" y="-13.8" font-family="Times,serif" font-size="14.00">Commodity</text>
</g>
<!-- ConfinementCenter -->
<g id="node12" class="node"><title>ConfinementCenter</title>
<ellipse fill="none" stroke="black" cx="690.72" cy="-91" rx="79.2385" ry="18"/>
<text text-anchor="middle" x="690.72" y="-86.8" font-family="Times,serif" font-size="14.00">ConfinementCenter</text>
</g>
<!-- ConfinementCenter&#45;&gt;Comment -->
<g id="edge7" class="edge"><title>ConfinementCenter&#45;&gt;Comment</title>
<path fill="none" stroke="#d9dddf" d="M725.29,-70.0453C742.439,-60.1462 763.069,-48.2375 780.089,-38.4134"/>
<ellipse fill="none" stroke="#d9dddf" cx="721.788" cy="-72.0665" rx="4.00002" ry="4.00002"/>
<polygon fill="#d9dddf" stroke="#d9dddf" points="780.467,-38.1952 791.377,-37.0932 784.797,-35.6956 789.127,-33.1959 789.127,-33.1959 789.127,-33.1959 784.797,-35.6956 786.878,-29.2986 780.467,-38.1952 780.467,-38.1952"/>
</g>
<!-- ConfinementCenter&#45;&gt;Commodity -->
<g id="edge8" class="edge"><title>ConfinementCenter&#45;&gt;Commodity</title>
<path fill="none" stroke="#627cea" d="M634.018,-74.6924C587.416,-62.1119 522.039,-44.4625 477.453,-32.4261"/>
<ellipse fill="none" stroke="#627cea" cx="638.007" cy="-75.7693" rx="4.00001" ry="4.00001"/>
<polygon fill="#627cea" stroke="#627cea" points="477.366,-32.4024 468.884,-25.4516 472.538,-31.0992 467.711,-29.796 467.711,-29.796 467.711,-29.796 472.538,-31.0992 466.538,-34.1405 477.366,-32.4024 477.366,-32.4024"/>
</g>
<!-- Country -->
<g id="node13" class="node"><title>Country</title>
<ellipse fill="none" stroke="black" cx="880.72" cy="-757" rx="39.1887" ry="18"/>
<text text-anchor="middle" x="880.72" y="-752.8" font-family="Times,serif" font-size="14.00">Country</text>
</g>
<!-- Province -->
<g id="node44" class="node"><title>Province</title>
<ellipse fill="none" stroke="black" cx="880.72" cy="-672" rx="41.5852" ry="18"/>
<text text-anchor="middle" x="880.72" y="-667.8" font-family="Times,serif" font-size="14.00">Province</text>
</g>
<!-- Country&#45;&gt;Province -->
<g id="edge9" class="edge"><title>Country&#45;&gt;Province</title>
<path fill="none" stroke="#1baada" d="M880.72,-730.621C880.72,-720.992 880.72,-709.992 880.72,-700.202"/>
<ellipse fill="none" stroke="#1baada" cx="880.72" cy="-734.802" rx="4" ry="4"/>
<polygon fill="#1baada" stroke="#1baada" points="880.72,-700.176 885.22,-690.176 880.72,-695.176 880.72,-690.176 880.72,-690.176 880.72,-690.176 880.72,-695.176 876.22,-690.176 880.72,-700.176 880.72,-700.176"/>
</g>
<!-- County&#45;&gt;DrugStore -->
<g id="edge12" class="edge"><title>County&#45;&gt;DrugStore</title>
<path fill="none" stroke="#c8df84" d="M924.608,-522.145C1032.27,-514.556 1300.72,-491.839 1300.72,-454 1300.72,-454 1300.72,-454 1300.72,-90 1300.72,-65.4434 1321.96,-47.5628 1342.95,-35.8877"/>
<ellipse fill="none" stroke="#c8df84" cx="920.52" cy="-522.429" rx="4" ry="4"/>
<polygon fill="#c8df84" stroke="#c8df84" points="1342.99,-35.8666 1353.94,-35.2574 1347.43,-33.5647 1351.87,-31.2627 1351.87,-31.2627 1351.87,-31.2627 1347.43,-33.5647 1349.8,-27.268 1342.99,-35.8666 1342.99,-35.8666"/>
</g>
<!-- County&#45;&gt;Hospital -->
<g id="edge10" class="edge"><title>County&#45;&gt;Hospital</title>
<path fill="none" stroke="#aab75b" d="M919.228,-513.702C963.115,-500.826 1034.64,-479.843 1080.15,-466.49"/>
<ellipse fill="none" stroke="#aab75b" cx="915.208" cy="-514.882" rx="4.00001" ry="4.00001"/>
<polygon fill="#aab75b" stroke="#aab75b" points="1080.41,-466.414 1091.27,-467.916 1085.21,-465.006 1090,-463.598 1090,-463.598 1090,-463.598 1085.21,-465.006 1088.74,-459.28 1080.41,-466.414 1080.41,-466.414"/>
</g>
<!-- County&#45;&gt;Maternity -->
<g id="edge11" class="edge"><title>County&#45;&gt;Maternity</title>
<path fill="none" stroke="#c3ecb2" d="M849.361,-508.551C841.088,-503.315 832.568,-497.031 825.72,-490 807.448,-471.24 792.672,-445.179 783.227,-425.926"/>
<ellipse fill="none" stroke="#c3ecb2" cx="852.788" cy="-510.625" rx="4.00002" ry="4.00002"/>
<polygon fill="#c3ecb2" stroke="#c3ecb2" points="783.192,-425.853 782.969,-414.89 781.048,-421.336 778.904,-416.819 778.904,-416.819 778.904,-416.819 781.048,-421.336 774.839,-418.749 783.192,-425.853 783.192,-425.853"/>
</g>
<!-- County&#45;&gt;NursingRoom -->
<g id="edge13" class="edge"><title>County&#45;&gt;NursingRoom</title>
<path fill="none" stroke="#2fa63e" d="M877.993,-499.477C873.174,-467.218 860.149,-412.151 825.72,-381 754.369,-316.442 640.819,-298.018 567.788,-293.148"/>
<ellipse fill="none" stroke="#2fa63e" cx="878.555" cy="-503.583" rx="4.00001" ry="4.00001"/>
<polygon fill="#2fa63e" stroke="#2fa63e" points="567.743,-293.146 558.03,-288.056 562.752,-292.847 557.761,-292.548 557.761,-292.548 557.761,-292.548 562.752,-292.847 557.492,-297.04 567.743,-293.146 567.743,-293.146"/>
</g>
<!-- Department -->
<g id="node15" class="node"><title>Department</title>
<ellipse fill="none" stroke="black" cx="957.72" cy="-345" rx="51.7002" ry="18"/>
<text text-anchor="middle" x="957.72" y="-340.8" font-family="Times,serif" font-size="14.00">Department</text>
</g>
<!-- Department&#45;&gt;Department -->
<g id="edge14" class="edge"><title>Department&#45;&gt;Department</title>
<path fill="none" stroke="#58a5c6" d="M1008.69,-354.816C1019.64,-353.842 1027.57,-350.57 1027.57,-345 1027.57,-339.805 1020.67,-336.609 1010.86,-335.412"/>
<ellipse fill="none" stroke="#58a5c6" cx="1004.69" cy="-354.969" rx="4" ry="4"/>
<polygon fill="#58a5c6" stroke="#58a5c6" points="1010.68,-335.403 1000.93,-330.384 1005.69,-335.14 1000.69,-334.877 1000.69,-334.877 1000.69,-334.877 1005.69,-335.14 1000.46,-339.371 1010.68,-335.403 1010.68,-335.403"/>
<text text-anchor="middle" x="1050.5" y="-340.8" font-family="Times,serif" font-size="14.00">children</text>
</g>
<!-- Disease -->
<g id="node16" class="node"><title>Disease</title>
<ellipse fill="none" stroke="black" cx="988.72" cy="-237" rx="37.7179" ry="18"/>
<text text-anchor="middle" x="988.72" y="-232.8" font-family="Times,serif" font-size="14.00">Disease</text>
</g>
<!-- Department&#45;&gt;Disease -->
<g id="edge16" class="edge"><title>Department&#45;&gt;Disease</title>
<path fill="none" stroke="#5b3e4d" d="M964.952,-319.271C969.736,-302.914 976.006,-281.476 980.904,-264.725"/>
<ellipse fill="none" stroke="#5b3e4d" cx="963.824" cy="-323.13" rx="4.00001" ry="4.00001"/>
<polygon fill="#5b3e4d" stroke="#5b3e4d" points="980.945,-264.586 988.071,-256.252 982.348,-259.787 983.752,-254.988 983.752,-254.988 983.752,-254.988 982.348,-259.787 979.433,-253.725 980.945,-264.586 980.945,-264.586"/>
</g>
<!-- Doctor -->
<g id="node18" class="node"><title>Doctor</title>
<ellipse fill="none" stroke="black" cx="898.72" cy="-237" rx="34.8285" ry="18"/>
<text text-anchor="middle" x="898.72" y="-232.8" font-family="Times,serif" font-size="14.00">Doctor</text>
</g>
<!-- Department&#45;&gt;Doctor -->
<g id="edge15" class="edge"><title>Department&#45;&gt;Doctor</title>
<path fill="none" stroke="#fb8a08" d="M944.223,-319.752C934.867,-302.941 922.43,-280.597 912.923,-263.518"/>
<ellipse fill="none" stroke="#fb8a08" cx="946.295" cy="-323.474" rx="4.00002" ry="4.00002"/>
<polygon fill="#fb8a08" stroke="#fb8a08" points="912.845,-263.377 911.914,-252.45 910.413,-259.008 907.982,-254.639 907.982,-254.639 907.982,-254.639 910.413,-259.008 904.05,-256.828 912.845,-263.377 912.845,-263.377"/>
</g>
<!-- DoctorDisease -->
<g id="node19" class="node"><title>DoctorDisease</title>
<ellipse fill="none" stroke="black" cx="969.72" cy="-164" rx="62.3321" ry="18"/>
<text text-anchor="middle" x="969.72" y="-159.8" font-family="Times,serif" font-size="14.00">DoctorDisease</text>
</g>
<!-- Disease&#45;&gt;DoctorDisease -->
<g id="edge17" class="edge"><title>Disease&#45;&gt;DoctorDisease</title>
<path fill="none" stroke="#ea48ca" d="M982.051,-211.08C980.404,-204.924 978.632,-198.302 976.959,-192.051"/>
<ellipse fill="none" stroke="#ea48ca" cx="983.087" cy="-214.949" rx="4.00001" ry="4.00001"/>
<polygon fill="#ea48ca" stroke="#ea48ca" points="976.862,-191.689 978.624,-180.866 975.57,-186.859 974.277,-182.029 974.277,-182.029 974.277,-182.029 975.57,-186.859 969.93,-183.192 976.862,-191.689 976.862,-191.689"/>
</g>
<!-- DrugName -->
<g id="node23" class="node"><title>DrugName</title>
<ellipse fill="none" stroke="black" cx="1148.72" cy="-164" rx="49.2946" ry="18"/>
<text text-anchor="middle" x="1148.72" y="-159.8" font-family="Times,serif" font-size="14.00">DrugName</text>
</g>
<!-- Disease&#45;&gt;DrugName -->
<g id="edge18" class="edge"><title>Disease&#45;&gt;DrugName</title>
<path fill="none" stroke="#03896c" d="M1024.65,-220.056C1049.84,-208.877 1083.51,-193.938 1109.42,-182.442"/>
<polygon fill="#03896c" stroke="#03896c" points="1024.64,-220.06 1013.68,-220.003 1020.07,-222.088 1015.5,-224.116 1015.5,-224.116 1015.5,-224.116 1020.07,-222.088 1017.33,-228.229 1024.64,-220.06 1024.64,-220.06"/>
<polygon fill="#03896c" stroke="#03896c" points="1109.44,-182.432 1120.4,-182.489 1114.01,-180.403 1118.58,-178.375 1118.58,-178.375 1118.58,-178.375 1114.01,-180.403 1116.75,-174.262 1109.44,-182.432 1109.44,-182.432"/>
</g>
<!-- DiseaseInfoCategory -->
<g id="node17" class="node"><title>DiseaseInfoCategory</title>
<ellipse fill="none" stroke="black" cx="1024.72" cy="-672" rx="84.5169" ry="18"/>
<text text-anchor="middle" x="1024.72" y="-667.8" font-family="Times,serif" font-size="14.00">DiseaseInfoCategory</text>
</g>
<!-- DiseaseInfoCategory&#45;&gt;DiseaseInfoCategory -->
<g id="edge19" class="edge"><title>DiseaseInfoCategory&#45;&gt;DiseaseInfoCategory</title>
<path fill="none" stroke="#1640f1" d="M1112.44,-677.591C1121.6,-676.499 1127.48,-674.635 1127.48,-672 1127.48,-669.573 1122.5,-667.801 1114.55,-666.683"/>
<ellipse fill="none" stroke="#1640f1" cx="1108.41" cy="-677.948" rx="4" ry="4"/>
<polygon fill="#1640f1" stroke="#1640f1" points="1114.38,-666.666 1104.86,-661.22 1109.4,-666.183 1104.43,-665.699 1104.43,-665.699 1104.43,-665.699 1109.4,-666.183 1103.99,-670.178 1114.38,-666.666 1114.38,-666.666"/>
<text text-anchor="middle" x="1150.41" y="-667.8" font-family="Times,serif" font-size="14.00">children</text>
</g>
<!-- Information -->
<g id="node36" class="node"><title>Information</title>
<ellipse fill="none" stroke="black" cx="1024.72" cy="-599" rx="52.1934" ry="18"/>
<text text-anchor="middle" x="1024.72" y="-594.8" font-family="Times,serif" font-size="14.00">Information</text>
</g>
<!-- DiseaseInfoCategory&#45;&gt;Information -->
<g id="edge20" class="edge"><title>DiseaseInfoCategory&#45;&gt;Information</title>
<path fill="none" stroke="#52e1c6" d="M1024.72,-645.791C1024.72,-639.832 1024.72,-633.45 1024.72,-627.399"/>
<ellipse fill="none" stroke="#52e1c6" cx="1024.72" cy="-649.813" rx="4" ry="4"/>
<polygon fill="#52e1c6" stroke="#52e1c6" points="1024.72,-627.029 1029.22,-617.029 1024.72,-622.029 1024.72,-617.029 1024.72,-617.029 1024.72,-617.029 1024.72,-622.029 1020.22,-617.029 1024.72,-627.029 1024.72,-627.029"/>
</g>
<!-- Doctor&#45;&gt;Comment -->
<g id="edge21" class="edge"><title>Doctor&#45;&gt;Comment</title>
<path fill="none" stroke="#1f1f9f" d="M894.643,-210.892C887.98,-174.509 872.519,-105.819 843.72,-54 841.621,-50.2225 839.072,-46.4813 836.358,-42.9292"/>
<ellipse fill="none" stroke="#1f1f9f" cx="895.381" cy="-215.056" rx="4.00001" ry="4.00001"/>
<polygon fill="#1f1f9f" stroke="#1f1f9f" points="836.223,-42.766 833.324,-32.1902 833.039,-38.911 829.854,-35.056 829.854,-35.056 829.854,-35.056 833.039,-38.911 826.385,-37.9218 836.223,-42.766 836.223,-42.766"/>
</g>
<!-- Doctor&#45;&gt;DoctorDisease -->
<g id="edge22" class="edge"><title>Doctor&#45;&gt;DoctorDisease</title>
<path fill="none" stroke="#be9e5d" d="M919.794,-214.926C928.026,-206.695 937.505,-197.215 945.977,-188.743"/>
<ellipse fill="none" stroke="#be9e5d" cx="916.955" cy="-217.766" rx="4.00002" ry="4.00002"/>
<polygon fill="#be9e5d" stroke="#be9e5d" points="946.035,-188.685 956.288,-184.796 949.571,-185.15 953.106,-181.614 953.106,-181.614 953.106,-181.614 949.571,-185.15 949.924,-178.432 946.035,-188.685 946.035,-188.685"/>
</g>
<!-- Drug -->
<g id="node20" class="node"><title>Drug</title>
<ellipse fill="none" stroke="black" cx="1244.72" cy="-91" rx="28.0651" ry="18"/>
<text text-anchor="middle" x="1244.72" y="-86.8" font-family="Times,serif" font-size="14.00">Drug</text>
</g>
<!-- Drug&#45;&gt;Comment -->
<g id="edge23" class="edge"><title>Drug&#45;&gt;Comment</title>
<path fill="none" stroke="#e0db8f" d="M1215.99,-75.8217C1213.24,-74.76 1210.45,-73.7951 1207.72,-73 1144.87,-54.6911 958.923,-33.875 866.747,-24.3135"/>
<ellipse fill="none" stroke="#e0db8f" cx="1219.92" cy="-77.4655" rx="4.00001" ry="4.00001"/>
<polygon fill="#e0db8f" stroke="#e0db8f" points="866.735,-24.3123 857.249,-18.8101 861.761,-23.7993 856.788,-23.2863 856.788,-23.2863 856.788,-23.2863 861.761,-23.7993 856.326,-27.7626 866.735,-24.3123 866.735,-24.3123"/>
</g>
<!-- Drug&#45;&gt;Commodity -->
<g id="edge24" class="edge"><title>Drug&#45;&gt;Commodity</title>
<path fill="none" stroke="#c58bf4" d="M1216.04,-75.6256C1213.28,-74.6049 1210.48,-73.7031 1207.72,-73 1138.92,-55.4405 661.572,-30.5135 489.432,-21.9908"/>
<ellipse fill="none" stroke="#c58bf4" cx="1219.98" cy="-77.2356" rx="4.00001" ry="4.00001"/>
<polygon fill="#c58bf4" stroke="#c58bf4" points="489.259,-21.9823 479.493,-16.9947 484.265,-21.7358 479.271,-21.4892 479.271,-21.4892 479.271,-21.4892 484.265,-21.7358 479.049,-25.9837 489.259,-21.9823 489.259,-21.9823"/>
</g>
<!-- Drug&#45;&gt;DrugStore -->
<g id="edge25" class="edge"><title>Drug&#45;&gt;DrugStore</title>
<path fill="none" stroke="#f71b6f" d="M1267.01,-68.3019C1273.08,-63.1443 1279.87,-57.988 1286.72,-54 1302.09,-45.0451 1320.15,-37.7684 1336.49,-32.2165"/>
<polygon fill="#f71b6f" stroke="#f71b6f" points="1266.72,-68.5667 1256.26,-71.8689 1262.99,-71.8964 1259.26,-75.226 1259.26,-75.226 1259.26,-75.226 1262.99,-71.8964 1262.25,-78.5831 1266.72,-68.5667 1266.72,-68.5667"/>
<polygon fill="#f71b6f" stroke="#f71b6f" points="1336.89,-32.0846 1347.79,-33.261 1341.64,-30.5338 1346.4,-28.9829 1346.4,-28.9829 1346.4,-28.9829 1341.64,-30.5338 1345,-24.7049 1336.89,-32.0846 1336.89,-32.0846"/>
</g>
<!-- Manufactory -->
<g id="node39" class="node"><title>Manufactory</title>
<ellipse fill="none" stroke="black" cx="1244.72" cy="-18" rx="55.5596" ry="18"/>
<text text-anchor="middle" x="1244.72" y="-13.8" font-family="Times,serif" font-size="14.00">Manufactory</text>
</g>
<!-- Drug&#45;&gt;Manufactory -->
<g id="edge26" class="edge"><title>Drug&#45;&gt;Manufactory</title>
<path fill="none" stroke="#d4758e" d="M1244.72,-62.7534C1244.72,-57.2761 1244.72,-51.5214 1244.72,-46.0508"/>
<polygon fill="#d4758e" stroke="#d4758e" points="1244.72,-62.8129 1240.22,-72.8128 1244.72,-67.8129 1244.72,-72.8129 1244.72,-72.8129 1244.72,-72.8129 1244.72,-67.8129 1249.22,-72.8129 1244.72,-62.8129 1244.72,-62.8129"/>
<polygon fill="#d4758e" stroke="#d4758e" points="1244.72,-46.0288 1249.22,-36.0288 1244.72,-41.0288 1244.72,-36.0288 1244.72,-36.0288 1244.72,-36.0288 1244.72,-41.0288 1240.22,-36.0289 1244.72,-46.0288 1244.72,-46.0288"/>
</g>
<!-- DrugCategory -->
<g id="node21" class="node"><title>DrugCategory</title>
<ellipse fill="none" stroke="black" cx="1148.72" cy="-237" rx="60.896" ry="18"/>
<text text-anchor="middle" x="1148.72" y="-232.8" font-family="Times,serif" font-size="14.00">DrugCategory</text>
</g>
<!-- DrugCategory&#45;&gt;DrugCategory -->
<g id="edge27" class="edge"><title>DrugCategory&#45;&gt;DrugCategory</title>
<path fill="none" stroke="#d7e998" d="M1213.39,-242.935C1221.83,-241.915 1227.42,-239.937 1227.42,-237 1227.42,-234.33 1222.8,-232.453 1215.62,-231.367"/>
<ellipse fill="none" stroke="#d7e998" cx="1209.3" cy="-243.264" rx="4" ry="4"/>
<polygon fill="#d7e998" stroke="#d7e998" points="1215.27,-231.334 1205.73,-225.934 1210.29,-230.875 1205.31,-230.415 1205.31,-230.415 1205.31,-230.415 1210.29,-230.875 1204.9,-234.896 1215.27,-231.334 1215.27,-231.334"/>
<text text-anchor="middle" x="1250.35" y="-232.8" font-family="Times,serif" font-size="14.00">children</text>
</g>
<!-- DrugCategory&#45;&gt;DrugName -->
<g id="edge28" class="edge"><title>DrugCategory&#45;&gt;DrugName</title>
<path fill="none" stroke="#64e4ca" d="M1148.72,-210.791C1148.72,-204.832 1148.72,-198.45 1148.72,-192.399"/>
<ellipse fill="none" stroke="#64e4ca" cx="1148.72" cy="-214.813" rx="4" ry="4"/>
<polygon fill="#64e4ca" stroke="#64e4ca" points="1148.72,-192.029 1153.22,-182.029 1148.72,-187.029 1148.72,-182.029 1148.72,-182.029 1148.72,-182.029 1148.72,-187.029 1144.22,-182.029 1148.72,-192.029 1148.72,-192.029"/>
</g>
<!-- DrugDetail -->
<g id="node22" class="node"><title>DrugDetail</title>
<ellipse fill="none" stroke="black" cx="1148.72" cy="-91" rx="49.7792" ry="18"/>
<text text-anchor="middle" x="1148.72" y="-86.8" font-family="Times,serif" font-size="14.00">DrugDetail</text>
</g>
<!-- DrugName&#45;&gt;Drug -->
<g id="edge29" class="edge"><title>DrugName&#45;&gt;Drug</title>
<path fill="none" stroke="#6ac815" d="M1176.25,-142.636C1189.59,-132.772 1205.52,-120.99 1218.66,-111.274"/>
<ellipse fill="none" stroke="#6ac815" cx="1172.77" cy="-145.216" rx="4.00002" ry="4.00002"/>
<polygon fill="#6ac815" stroke="#6ac815" points="1218.79,-111.175 1229.51,-108.846 1222.81,-108.202 1226.83,-105.228 1226.83,-105.228 1226.83,-105.228 1222.81,-108.202 1224.16,-101.61 1218.79,-111.175 1218.79,-111.175"/>
</g>
<!-- DrugName&#45;&gt;DrugDetail -->
<g id="edge30" class="edge"><title>DrugName&#45;&gt;DrugDetail</title>
<path fill="none" stroke="#feeacf" d="M1148.72,-137.791C1148.72,-131.832 1148.72,-125.45 1148.72,-119.399"/>
<ellipse fill="none" stroke="#feeacf" cx="1148.72" cy="-141.813" rx="4" ry="4"/>
<polygon fill="#feeacf" stroke="#feeacf" points="1148.72,-119.029 1153.22,-109.029 1148.72,-114.029 1148.72,-109.029 1148.72,-109.029 1148.72,-109.029 1148.72,-114.029 1144.22,-109.029 1148.72,-119.029 1148.72,-119.029"/>
</g>
<!-- DrugStoreAdmin -->
<g id="node25" class="node"><title>DrugStoreAdmin</title>
<ellipse fill="none" stroke="black" cx="1400.72" cy="-91" rx="71.529" ry="18"/>
<text text-anchor="middle" x="1400.72" y="-86.8" font-family="Times,serif" font-size="14.00">DrugStoreAdmin</text>
</g>
<!-- DrugStoreAdmin&#45;&gt;DrugStore -->
<g id="edge31" class="edge"><title>DrugStoreAdmin&#45;&gt;DrugStore</title>
<path fill="none" stroke="#3c7e93" d="M1394.68,-64.791C1393.22,-58.683 1391.65,-52.1302 1390.17,-45.9457"/>
<ellipse fill="none" stroke="#3c7e93" cx="1395.67" cy="-68.9228" rx="4.00001" ry="4.00001"/>
<polygon fill="#3c7e93" stroke="#3c7e93" points="1390.13,-45.754 1392.17,-34.981 1388.96,-40.8914 1387.8,-36.0288 1387.8,-36.0288 1387.8,-36.0288 1388.96,-40.8914 1383.42,-37.0767 1390.13,-45.754 1390.13,-45.754"/>
</g>
<!-- Editor -->
<g id="node26" class="node"><title>Editor</title>
<ellipse fill="none" stroke="black" cx="1129.72" cy="-757" rx="32.4237" ry="18"/>
<text text-anchor="middle" x="1129.72" y="-752.8" font-family="Times,serif" font-size="14.00">Editor</text>
</g>
<!-- Examination -->
<g id="node27" class="node"><title>Examination</title>
<ellipse fill="none" stroke="black" cx="379.72" cy="-91" rx="55.0922" ry="18"/>
<text text-anchor="middle" x="379.72" y="-86.8" font-family="Times,serif" font-size="14.00">Examination</text>
</g>
<!-- Examination&#45;&gt;Comment -->
<g id="edge32" class="edge"><title>Examination&#45;&gt;Comment</title>
<path fill="none" stroke="#1dc184" d="M415.134,-71.9724C429.813,-65.2608 447.235,-58.2494 463.72,-54 565.526,-27.7572 688.695,-20.982 758.45,-19.359"/>
<ellipse fill="none" stroke="#1dc184" cx="411.351" cy="-73.743" rx="4.00002" ry="4.00002"/>
<polygon fill="#1dc184" stroke="#1dc184" points="758.762,-19.3527 768.852,-23.6469 763.761,-19.2503 768.76,-19.1478 768.76,-19.1478 768.76,-19.1478 763.761,-19.2503 768.668,-14.6488 758.762,-19.3527 758.762,-19.3527"/>
</g>
<!-- Examination&#45;&gt;Commodity -->
<g id="edge33" class="edge"><title>Examination&#45;&gt;Commodity</title>
<path fill="none" stroke="#326ab1" d="M386.314,-64.9994C387.809,-61.1743 389.599,-57.3792 391.72,-54 394.307,-49.8796 397.477,-45.8922 400.853,-42.1757"/>
<ellipse fill="none" stroke="#326ab1" cx="384.944" cy="-68.9867" rx="4.00001" ry="4.00001"/>
<polygon fill="#326ab1" stroke="#326ab1" points="400.933,-42.095 411.157,-38.13 404.442,-38.5333 407.951,-34.9717 407.951,-34.9717 407.951,-34.9717 404.442,-38.5333 404.746,-31.8134 400.933,-42.095 400.933,-42.095"/>
</g>
<!-- ExaminationDetail -->
<g id="node29" class="node"><title>ExaminationDetail</title>
<ellipse fill="none" stroke="black" cx="280.72" cy="-18" rx="76.8071" ry="18"/>
<text text-anchor="middle" x="280.72" y="-13.8" font-family="Times,serif" font-size="14.00">ExaminationDetail</text>
</g>
<!-- Examination&#45;&gt;ExaminationDetail -->
<g id="edge34" class="edge"><title>Examination&#45;&gt;ExaminationDetail</title>
<path fill="none" stroke="#a87bce" d="M351.074,-69.4559C338.832,-60.6763 324.508,-50.4033 311.991,-41.4266"/>
<ellipse fill="none" stroke="#a87bce" cx="354.498" cy="-71.9116" rx="4.00002" ry="4.00002"/>
<polygon fill="#a87bce" stroke="#a87bce" points="311.788,-41.2813 306.285,-31.7965 307.725,-38.3673 303.662,-35.4533 303.662,-35.4533 303.662,-35.4533 307.725,-38.3673 301.04,-39.1101 311.788,-41.2813 311.788,-41.2813"/>
</g>
<!-- ExaminationCategory -->
<g id="node28" class="node"><title>ExaminationCategory</title>
<ellipse fill="none" stroke="black" cx="442.72" cy="-164" rx="87.9239" ry="18"/>
<text text-anchor="middle" x="442.72" y="-159.8" font-family="Times,serif" font-size="14.00">ExaminationCategory</text>
</g>
<!-- ExaminationCategory&#45;&gt;Examination -->
<g id="edge36" class="edge"><title>ExaminationCategory&#45;&gt;Examination</title>
<path fill="none" stroke="#1a8ae3" d="M422.365,-140.061C415.715,-132.565 408.303,-124.212 401.548,-116.599"/>
<ellipse fill="none" stroke="#1a8ae3" cx="425.135" cy="-143.182" rx="4.00002" ry="4.00002"/>
<polygon fill="#1a8ae3" stroke="#1a8ae3" points="401.18,-116.185 397.909,-105.719 397.862,-112.445 394.543,-108.705 394.543,-108.705 394.543,-108.705 397.862,-112.445 391.177,-111.692 401.18,-116.185 401.18,-116.185"/>
</g>
<!-- ExaminationCategory&#45;&gt;ExaminationCategory -->
<g id="edge35" class="edge"><title>ExaminationCategory&#45;&gt;ExaminationCategory</title>
<path fill="none" stroke="#c4940c" d="M533.255,-169.556C542.516,-168.46 548.432,-166.608 548.432,-164 548.432,-161.573 543.308,-159.801 535.131,-158.683"/>
<ellipse fill="none" stroke="#c4940c" cx="529.144" cy="-169.921" rx="4" ry="4"/>
<polygon fill="#c4940c" stroke="#c4940c" points="535.114,-158.681 525.589,-153.247 530.137,-158.204 525.16,-157.726 525.16,-157.726 525.16,-157.726 530.137,-158.204 524.73,-162.206 535.114,-158.681 535.114,-158.681"/>
<text text-anchor="middle" x="571.366" y="-159.8" font-family="Times,serif" font-size="14.00">children</text>
</g>
<!-- Feedback -->
<g id="node30" class="node"><title>Feedback</title>
<ellipse fill="none" stroke="black" cx="1053.72" cy="-18" rx="43.9819" ry="18"/>
<text text-anchor="middle" x="1053.72" y="-13.8" font-family="Times,serif" font-size="14.00">Feedback</text>
</g>
<!-- HealthInformation -->
<g id="node31" class="node"><title>HealthInformation</title>
<ellipse fill="none" stroke="black" cx="1255.72" cy="-757" rx="75.838" ry="18"/>
<text text-anchor="middle" x="1255.72" y="-752.8" font-family="Times,serif" font-size="14.00">HealthInformation</text>
</g>
<!-- Hospital&#45;&gt;Comment -->
<g id="edge39" class="edge"><title>Hospital&#45;&gt;Comment</title>
<path fill="none" stroke="#32afa4" d="M1158.07,-436.642C1203.47,-414.655 1273.1,-371.882 1243.72,-327 1199.89,-260.059 1133.11,-313.685 1078.72,-255 1043.85,-217.37 1073.7,-185.303 1040.72,-146 991.876,-87.7835 909.159,-51.2265 858.207,-33.009"/>
<ellipse fill="none" stroke="#32afa4" cx="1154.35" cy="-438.405" rx="4.00002" ry="4.00002"/>
<polygon fill="#32afa4" stroke="#32afa4" points="857.902,-32.9026 849.942,-25.3601 853.181,-31.2558 848.46,-29.6091 848.46,-29.6091 848.46,-29.6091 853.181,-31.2558 846.978,-33.858 857.902,-32.9026 857.902,-32.9026"/>
</g>
<!-- Hospital&#45;&gt;Department -->
<g id="edge37" class="edge"><title>Hospital&#45;&gt;Department</title>
<path fill="none" stroke="#3451d1" d="M1093.9,-433.487C1064.82,-414.804 1020.01,-386.016 989.81,-366.615"/>
<ellipse fill="none" stroke="#3451d1" cx="1097.44" cy="-435.762" rx="4.00002" ry="4.00002"/>
<polygon fill="#3451d1" stroke="#3451d1" points="989.737,-366.568 983.756,-357.377 985.53,-363.866 981.324,-361.163 981.324,-361.163 981.324,-361.163 985.53,-363.866 978.891,-364.949 989.737,-366.568 989.737,-366.568"/>
</g>
<!-- Hospital&#45;&gt;Doctor -->
<g id="edge38" class="edge"><title>Hospital&#45;&gt;Doctor</title>
<path fill="none" stroke="#2c8642" d="M1074.81,-448.898C1020.6,-442.482 934.885,-422.864 896.72,-363 877.974,-333.595 883.547,-291.861 890.296,-264.858"/>
<ellipse fill="none" stroke="#2c8642" cx="1078.92" cy="-449.349" rx="4.00001" ry="4.00001"/>
<polygon fill="#2c8642" stroke="#2c8642" points="890.368,-264.596 897.335,-256.127 891.68,-259.771 892.992,-254.946 892.992,-254.946 892.992,-254.946 891.68,-259.771 888.65,-253.765 890.368,-264.596 890.368,-264.596"/>
</g>
<!-- Recommendation -->
<g id="node46" class="node"><title>Recommendation</title>
<ellipse fill="none" stroke="black" cx="1162.72" cy="-345" rx="72.4722" ry="18"/>
<text text-anchor="middle" x="1162.72" y="-340.8" font-family="Times,serif" font-size="14.00">Recommendation</text>
</g>
<!-- Hospital&#45;&gt;Recommendation -->
<g id="edge40" class="edge"><title>Hospital&#45;&gt;Recommendation</title>
<path fill="none" stroke="#05a24d" d="M1132.05,-427.271C1138.22,-410.914 1146.31,-389.476 1152.64,-372.725"/>
<ellipse fill="none" stroke="#05a24d" cx="1130.56" cy="-431.227" rx="4.00001" ry="4.00001"/>
<polygon fill="#05a24d" stroke="#05a24d" points="1152.78,-372.344 1160.52,-364.577 1154.54,-367.666 1156.31,-362.988 1156.31,-362.988 1156.31,-362.988 1154.54,-367.666 1152.1,-361.4 1152.78,-372.344 1152.78,-372.344"/>
</g>
<!-- HotAction -->
<g id="node33" class="node"><title>HotAction</title>
<ellipse fill="none" stroke="black" cx="1396.72" cy="-757" rx="47.3823" ry="18"/>
<text text-anchor="middle" x="1396.72" y="-752.8" font-family="Times,serif" font-size="14.00">HotAction</text>
</g>
<!-- HotWord -->
<g id="node34" class="node"><title>HotWord</title>
<ellipse fill="none" stroke="black" cx="1504.72" cy="-757" rx="42.6078" ry="18"/>
<text text-anchor="middle" x="1504.72" y="-752.8" font-family="Times,serif" font-size="14.00">HotWord</text>
</g>
<!-- ImportDrug -->
<g id="node35" class="node"><title>ImportDrug</title>
<ellipse fill="none" stroke="black" cx="1617.72" cy="-757" rx="52.202" ry="18"/>
<text text-anchor="middle" x="1617.72" y="-752.8" font-family="Times,serif" font-size="14.00">ImportDrug</text>
</g>
<!-- Insurance -->
<g id="node37" class="node"><title>Insurance</title>
<ellipse fill="none" stroke="black" cx="548.72" cy="-91" rx="44.4578" ry="18"/>
<text text-anchor="middle" x="548.72" y="-86.8" font-family="Times,serif" font-size="14.00">Insurance</text>
</g>
<!-- Insurance&#45;&gt;Comment -->
<g id="edge41" class="edge"><title>Insurance&#45;&gt;Comment</title>
<path fill="none" stroke="#965064" d="M590,-76.7514C594.286,-75.4517 598.585,-74.1791 602.72,-73 658.603,-57.0655 723.431,-40.8022 766.325,-30.3471"/>
<ellipse fill="none" stroke="#965064" cx="586.161" cy="-77.9309" rx="4.00001" ry="4.00001"/>
<polygon fill="#965064" stroke="#965064" points="766.485,-30.3083 777.265,-32.3206 771.344,-29.1281 776.202,-27.9478 776.202,-27.9478 776.202,-27.9478 771.344,-29.1281 775.14,-23.575 766.485,-30.3083 766.485,-30.3083"/>
</g>
<!-- Insurance&#45;&gt;Commodity -->
<g id="edge42" class="edge"><title>Insurance&#45;&gt;Commodity</title>
<path fill="none" stroke="#0f979d" d="M498.691,-83.1177C478.879,-78.1629 457.189,-69.6441 441.72,-55 438.926,-52.3549 436.681,-49.0871 434.88,-45.6087"/>
<ellipse fill="none" stroke="#0f979d" cx="502.853" cy="-84.0738" rx="4.00001" ry="4.00001"/>
<polygon fill="#0f979d" stroke="#0f979d" points="434.821,-45.4634 435.246,-34.5057 432.947,-40.8277 431.074,-36.192 431.074,-36.192 431.074,-36.192 432.947,-40.8277 426.902,-37.8782 434.821,-45.4634 434.821,-45.4634"/>
</g>
<!-- InsuranceCompany -->
<g id="node38" class="node"><title>InsuranceCompany</title>
<ellipse fill="none" stroke="black" cx="690.72" cy="-164" rx="78.7367" ry="18"/>
<text text-anchor="middle" x="690.72" y="-159.8" font-family="Times,serif" font-size="14.00">InsuranceCompany</text>
</g>
<!-- InsuranceCompany&#45;&gt;Insurance -->
<g id="edge43" class="edge"><title>InsuranceCompany&#45;&gt;Insurance</title>
<path fill="none" stroke="#a28850" d="M652.243,-143.761C631.174,-133.227 605.231,-120.255 584.586,-109.933"/>
<ellipse fill="none" stroke="#a28850" cx="655.98" cy="-145.63" rx="4.00002" ry="4.00002"/>
<polygon fill="#a28850" stroke="#a28850" points="584.454,-109.867 577.523,-101.37 579.982,-107.631 575.51,-105.395 575.51,-105.395 575.51,-105.395 579.982,-107.631 573.498,-109.42 584.454,-109.867 584.454,-109.867"/>
</g>
<!-- Maternity&#45;&gt;Comment -->
<g id="edge44" class="edge"><title>Maternity&#45;&gt;Comment</title>
<path fill="none" stroke="#ce5da1" d="M778.188,-373.233C787.553,-336.111 804.551,-263.698 811.72,-201 819.095,-136.507 814.831,-119.907 815.72,-55 815.758,-52.2206 815.723,-49.3222 815.639,-46.4298"/>
<ellipse fill="none" stroke="#ce5da1" cx="777.189" cy="-377.155" rx="4.00001" ry="4.00001"/>
<polygon fill="#ce5da1" stroke="#ce5da1" points="815.628,-46.1918 819.656,-35.9929 815.394,-41.1973 815.161,-36.2027 815.161,-36.2027 815.161,-36.2027 815.394,-41.1973 810.666,-36.4125 815.628,-46.1918 815.628,-46.1918"/>
</g>
<!-- Maternity&#45;&gt;Commodity -->
<g id="edge45" class="edge"><title>Maternity&#45;&gt;Commodity</title>
<path fill="none" stroke="#0679e2" d="M719.511,-393.924C577.14,-382.114 192.72,-345.292 192.72,-292 192.72,-292 192.72,-292 192.72,-90 192.72,-50.1167 116.976,-101.586 366.72,-36 370.728,-34.9476 374.877,-33.8366 379.04,-32.7071"/>
<ellipse fill="none" stroke="#0679e2" cx="723.739" cy="-394.272" rx="4" ry="4"/>
<polygon fill="#0679e2" stroke="#0679e2" points="379.073,-32.6983 389.906,-34.397 383.895,-31.3776 388.718,-30.0569 388.718,-30.0569 388.718,-30.0569 383.895,-31.3776 387.529,-25.7167 379.073,-32.6983 379.073,-32.6983"/>
</g>
<!-- Medical -->
<g id="node41" class="node"><title>Medical</title>
<ellipse fill="none" stroke="black" cx="297.72" cy="-164" rx="39.1627" ry="18"/>
<text text-anchor="middle" x="297.72" y="-159.8" font-family="Times,serif" font-size="14.00">Medical</text>
</g>
<!-- Medical&#45;&gt;Comment -->
<g id="edge46" class="edge"><title>Medical&#45;&gt;Comment</title>
<path fill="none" stroke="#b5b97d" d="M335.524,-149.574C375.38,-135.33 433.775,-114.176 443.72,-109 468.654,-96.0222 469.689,-83.6055 495.72,-73 583.466,-37.2516 694.136,-25.1688 759.097,-21.085"/>
<ellipse fill="none" stroke="#b5b97d" cx="331.587" cy="-150.979" rx="4.00001" ry="4.00001"/>
<polygon fill="#b5b97d" stroke="#b5b97d" points="759.138,-21.0827 769.384,-24.9881 764.129,-20.7893 769.12,-20.4958 769.12,-20.4958 769.12,-20.4958 764.129,-20.7893 768.856,-16.0036 759.138,-21.0827 759.138,-21.0827"/>
</g>
<!-- Medical&#45;&gt;Commodity -->
<g id="edge47" class="edge"><title>Medical&#45;&gt;Commodity</title>
<path fill="none" stroke="#3f094e" d="M296.934,-137.752C297.598,-118.199 301.433,-91.4295 315.72,-73 330.813,-53.532 354.704,-40.6903 376.552,-32.4356"/>
<ellipse fill="none" stroke="#3f094e" cx="296.878" cy="-141.907" rx="4" ry="4"/>
<polygon fill="#3f094e" stroke="#3f094e" points="376.653,-32.3997 387.581,-33.3083 381.367,-30.7328 386.081,-29.0658 386.081,-29.0658 386.081,-29.0658 381.367,-30.7328 384.581,-24.8232 376.653,-32.3997 376.653,-32.3997"/>
</g>
<!-- Medical&#45;&gt;Examination -->
<g id="edge48" class="edge"><title>Medical&#45;&gt;Examination</title>
<path fill="none" stroke="#c2c676" d="M321.81,-142.142C331.711,-133.569 343.208,-123.614 353.336,-114.845"/>
<ellipse fill="none" stroke="#c2c676" cx="318.537" cy="-144.976" rx="4.00002" ry="4.00002"/>
<polygon fill="#c2c676" stroke="#c2c676" points="353.548,-114.661 364.054,-111.517 357.328,-111.388 361.108,-108.115 361.108,-108.115 361.108,-108.115 357.328,-111.388 358.163,-104.713 353.548,-114.661 353.548,-114.661"/>
</g>
<!-- NursingRoom&#45;&gt;Comment -->
<g id="edge49" class="edge"><title>NursingRoom&#45;&gt;Comment</title>
<path fill="none" stroke="#8e6c0e" d="M562.584,-283.912C650.791,-273.805 797.72,-249.665 797.72,-201 797.72,-201 797.72,-201 797.72,-90 797.72,-75.1444 801.095,-58.9587 804.745,-45.7979"/>
<ellipse fill="none" stroke="#8e6c0e" cx="558.476" cy="-284.372" rx="4.00001" ry="4.00001"/>
<polygon fill="#8e6c0e" stroke="#8e6c0e" points="804.816,-45.5587 811.984,-37.26 806.244,-40.7668 807.671,-35.975 807.671,-35.975 807.671,-35.975 806.244,-40.7668 803.359,-34.69 804.816,-45.5587 804.816,-45.5587"/>
</g>
<!-- NursingRoom&#45;&gt;Commodity -->
<g id="edge50" class="edge"><title>NursingRoom&#45;&gt;Commodity</title>
<path fill="none" stroke="#0f6f23" d="M435.411,-281.897C356.512,-269.856 230.72,-243.929 230.72,-201 230.72,-201 230.72,-201 230.72,-90 230.72,-82.0742 322.159,-51.9929 380.444,-33.6235"/>
<ellipse fill="none" stroke="#0f6f23" cx="439.411" cy="-282.496" rx="4.00001" ry="4.00001"/>
<polygon fill="#0f6f23" stroke="#0f6f23" points="380.662,-33.5552 391.55,-34.8529 385.432,-32.0574 390.202,-30.5596 390.202,-30.5596 390.202,-30.5596 385.432,-32.0574 388.854,-26.2662 380.662,-33.5552 380.662,-33.5552"/>
</g>
<!-- Part -->
<g id="node43" class="node"><title>Part</title>
<ellipse fill="none" stroke="black" cx="1714.72" cy="-757" rx="27" ry="18"/>
<text text-anchor="middle" x="1714.72" y="-752.8" font-family="Times,serif" font-size="14.00">Part</text>
</g>
<!-- Symptom -->
<g id="node48" class="node"><title>Symptom</title>
<ellipse fill="none" stroke="black" cx="1714.72" cy="-672" rx="44.5096" ry="18"/>
<text text-anchor="middle" x="1714.72" y="-667.8" font-family="Times,serif" font-size="14.00">Symptom</text>
</g>
<!-- Part&#45;&gt;Symptom -->
<g id="edge51" class="edge"><title>Part&#45;&gt;Symptom</title>
<path fill="none" stroke="#18bbbd" d="M1714.72,-730.621C1714.72,-720.992 1714.72,-709.992 1714.72,-700.202"/>
<ellipse fill="none" stroke="#18bbbd" cx="1714.72" cy="-734.802" rx="4" ry="4"/>
<polygon fill="#18bbbd" stroke="#18bbbd" points="1714.72,-700.176 1719.22,-690.176 1714.72,-695.176 1714.72,-690.176 1714.72,-690.176 1714.72,-690.176 1714.72,-695.176 1710.22,-690.176 1714.72,-700.176 1714.72,-700.176"/>
</g>
<!-- Province&#45;&gt;City -->
<g id="edge52" class="edge"><title>Province&#45;&gt;City</title>
<path fill="none" stroke="#b4c5e8" d="M880.72,-645.791C880.72,-639.832 880.72,-633.45 880.72,-627.399"/>
<ellipse fill="none" stroke="#b4c5e8" cx="880.72" cy="-649.813" rx="4" ry="4"/>
<polygon fill="#b4c5e8" stroke="#b4c5e8" points="880.72,-627.029 885.22,-617.029 880.72,-622.029 880.72,-617.029 880.72,-617.029 880.72,-617.029 880.72,-622.029 876.22,-617.029 880.72,-627.029 880.72,-627.029"/>
</g>
<!-- Question -->
<g id="node45" class="node"><title>Question</title>
<ellipse fill="none" stroke="black" cx="1801.72" cy="-757" rx="42.0784" ry="18"/>
<text text-anchor="middle" x="1801.72" y="-752.8" font-family="Times,serif" font-size="14.00">Question</text>
</g>
<!-- Subscription -->
<g id="node47" class="node"><title>Subscription</title>
<ellipse fill="none" stroke="black" cx="1024.72" cy="-757" rx="54.6334" ry="18"/>
<text text-anchor="middle" x="1024.72" y="-752.8" font-family="Times,serif" font-size="14.00">Subscription</text>
</g>
<!-- Subscription&#45;&gt;DiseaseInfoCategory -->
<g id="edge53" class="edge"><title>Subscription&#45;&gt;DiseaseInfoCategory</title>
<path fill="none" stroke="#fdf6e5" d="M1024.72,-730.621C1024.72,-720.377 1024.72,-708.583 1024.72,-698.343"/>
<ellipse fill="none" stroke="#fdf6e5" cx="1024.72" cy="-734.802" rx="4" ry="4"/>
<ellipse fill="#fdf6e5" stroke="#fdf6e5" cx="1024.72" cy="-694.176" rx="4" ry="4"/>
</g>
<!-- SymptomDetail -->
<g id="node49" class="node"><title>SymptomDetail</title>
<ellipse fill="none" stroke="black" cx="1714.72" cy="-599" rx="66.2253" ry="18"/>
<text text-anchor="middle" x="1714.72" y="-594.8" font-family="Times,serif" font-size="14.00">SymptomDetail</text>
</g>
<!-- Symptom&#45;&gt;SymptomDetail -->
<g id="edge54" class="edge"><title>Symptom&#45;&gt;SymptomDetail</title>
<path fill="none" stroke="#e60b50" d="M1714.72,-645.791C1714.72,-639.832 1714.72,-633.45 1714.72,-627.399"/>
<ellipse fill="none" stroke="#e60b50" cx="1714.72" cy="-649.813" rx="4" ry="4"/>
<polygon fill="#e60b50" stroke="#e60b50" points="1714.72,-627.029 1719.22,-617.029 1714.72,-622.029 1714.72,-617.029 1714.72,-617.029 1714.72,-617.029 1714.72,-622.029 1710.22,-617.029 1714.72,-627.029 1714.72,-627.029"/>
</g>
<!-- User -->
<g id="node50" class="node"><title>User</title>
<ellipse fill="none" stroke="black" cx="1053.72" cy="-91" rx="27" ry="18"/>
<text text-anchor="middle" x="1053.72" y="-86.8" font-family="Times,serif" font-size="14.00">User</text>
</g>
<!-- User&#45;&gt;Comment -->
<g id="edge56" class="edge"><title>User&#45;&gt;Comment</title>
<path fill="none" stroke="#0acbed" d="M1034.68,-69.4358C1028.25,-63.6036 1020.66,-57.8106 1012.72,-54 967.236,-32.1785 910.054,-23.8288 868.671,-20.7014"/>
<ellipse fill="none" stroke="#0acbed" cx="1037.82" cy="-72.4415" rx="4.00002" ry="4.00002"/>
<polygon fill="#0acbed" stroke="#0acbed" points="868.484,-20.6888 858.811,-15.524 863.496,-20.3513 858.507,-20.0138 858.507,-20.0138 858.507,-20.0138 863.496,-20.3513 858.203,-24.5035 868.484,-20.6888 868.484,-20.6888"/>
</g>
<!-- User&#45;&gt;Feedback -->
<g id="edge55" class="edge"><title>User&#45;&gt;Feedback</title>
<path fill="none" stroke="#29ed08" d="M1053.72,-64.791C1053.72,-58.832 1053.72,-52.4496 1053.72,-46.3988"/>
<ellipse fill="none" stroke="#29ed08" cx="1053.72" cy="-68.8129" rx="4" ry="4"/>
<polygon fill="#29ed08" stroke="#29ed08" points="1053.72,-46.0288 1058.22,-36.0288 1053.72,-41.0288 1053.72,-36.0288 1053.72,-36.0288 1053.72,-36.0288 1053.72,-41.0288 1049.22,-36.0289 1053.72,-46.0288 1053.72,-46.0288"/>
</g>
</g>
</svg>
