<?xml version="1.0" encoding="UTF-8" standalone="no"?>
<!DOCTYPE svg PUBLIC "-//W3C//DTD SVG 1.1//EN"
 "http://www.w3.org/Graphics/SVG/1.1/DTD/svg11.dtd">
<!-- Generated by graphviz version 2.38.0 (20140413.2041)
 -->
<!-- Title: models_diagram Pages: 1 -->
<svg width="1952pt" height="614pt"
 viewBox="0.00 0.00 1952.24 614.00" xmlns="http://www.w3.org/2000/svg" xmlns:xlink="http://www.w3.org/1999/xlink">
<g id="graph0" class="graph" transform="scale(1 1) rotate(0) translate(4 610)">
<title>models_diagram</title>
<polygon fill="none" stroke="none" points="-4,4 -4,-610 1948.24,-610 1948.24,4 -4,4"/>
<!-- _diagram_info -->
<g id="node1" class="node"><title>_diagram_info</title>
<text text-anchor="start" x="321.889" y="-591.6" font-family="Times,serif" font-size="13.00">Models diagram</text>
<text text-anchor="start" x="321.889" y="-578.6" font-family="Times,serif" font-size="13.00">Date: Apr 05 2016 &#45; 09:53</text>
<text text-anchor="start" x="321.889" y="-565.6" font-family="Times,serif" font-size="13.00">Generated by RailRoady 1.4.2</text>
<text text-anchor="start" x="321.889" y="-552.6" font-family="Times,serif" font-size="13.00">http://railroady.prestonlee.com</text>
</g>
<!-- Admin -->
<g id="node2" class="node"><title>Admin</title>
<ellipse fill="none" stroke="black" cx="541.609" cy="-576" rx="34.8458" ry="18"/>
<text text-anchor="middle" x="541.609" y="-571.8" font-family="Times,serif" font-size="14.00">Admin</text>
</g>
<!-- Advertisement -->
<g id="node3" class="node"><title>Advertisement</title>
<ellipse fill="none" stroke="black" cx="656.609" cy="-576" rx="62.3407" ry="18"/>
<text text-anchor="middle" x="656.609" y="-571.8" font-family="Times,serif" font-size="14.00">Advertisement</text>
</g>
<!-- Answer -->
<g id="node4" class="node"><title>Answer</title>
<ellipse fill="none" stroke="black" cx="1617.61" cy="-18" rx="37.7266" ry="18"/>
<text text-anchor="middle" x="1617.61" y="-13.8" font-family="Times,serif" font-size="14.00">Answer</text>
</g>
<!-- App -->
<g id="node5" class="node"><title>App</title>
<ellipse fill="none" stroke="black" cx="890.609" cy="-491" rx="27" ry="18"/>
<text text-anchor="middle" x="890.609" y="-486.8" font-family="Times,serif" font-size="14.00">App</text>
</g>
<!-- AppCategory -->
<g id="node6" class="node"><title>AppCategory</title>
<ellipse fill="none" stroke="black" cx="890.609" cy="-576" rx="57.5065" ry="18"/>
<text text-anchor="middle" x="890.609" y="-571.8" font-family="Times,serif" font-size="14.00">AppCategory</text>
</g>
<!-- AppCategory&#45;&gt;App -->
<g id="edge1" class="edge"><title>AppCategory&#45;&gt;App</title>
<path fill="none" stroke="#f1c07f" d="M890.609,-549.621C890.609,-539.992 890.609,-528.992 890.609,-519.202"/>
<ellipse fill="none" stroke="#f1c07f" cx="890.609" cy="-553.802" rx="4" ry="4"/>
<polygon fill="#f1c07f" stroke="#f1c07f" points="890.609,-519.176 895.109,-509.176 890.609,-514.176 890.609,-509.176 890.609,-509.176 890.609,-509.176 890.609,-514.176 886.109,-509.176 890.609,-519.176 890.609,-519.176"/>
</g>
<!-- Banner -->
<g id="node7" class="node"><title>Banner</title>
<ellipse fill="none" stroke="black" cx="1001.61" cy="-576" rx="35.7887" ry="18"/>
<text text-anchor="middle" x="1001.61" y="-571.8" font-family="Times,serif" font-size="14.00">Banner</text>
</g>
<!-- Category -->
<g id="node8" class="node"><title>Category</title>
<ellipse fill="none" stroke="black" cx="1097.61" cy="-576" rx="42.5456" ry="18"/>
<text text-anchor="middle" x="1097.61" y="-571.8" font-family="Times,serif" font-size="14.00">Category</text>
</g>
<!-- City -->
<g id="node9" class="node"><title>City</title>
<ellipse fill="none" stroke="black" cx="775.609" cy="-418" rx="27" ry="18"/>
<text text-anchor="middle" x="775.609" y="-413.8" font-family="Times,serif" font-size="14.00">City</text>
</g>
<!-- County -->
<g id="node14" class="node"><title>County</title>
<ellipse fill="none" stroke="black" cx="775.609" cy="-345" rx="36.2992" ry="18"/>
<text text-anchor="middle" x="775.609" y="-340.8" font-family="Times,serif" font-size="14.00">County</text>
</g>
<!-- City&#45;&gt;County -->
<g id="edge2" class="edge"><title>City&#45;&gt;County</title>
<path fill="none" stroke="#1b2ce8" d="M775.609,-391.791C775.609,-385.832 775.609,-379.45 775.609,-373.399"/>
<ellipse fill="none" stroke="#1b2ce8" cx="775.609" cy="-395.813" rx="4" ry="4"/>
<polygon fill="#1b2ce8" stroke="#1b2ce8" points="775.609,-373.029 780.109,-363.029 775.609,-368.029 775.609,-363.029 775.609,-363.029 775.609,-363.029 775.609,-368.029 771.109,-363.029 775.609,-373.029 775.609,-373.029"/>
</g>
<!-- DrugStore -->
<g id="node23" class="node"><title>DrugStore</title>
<ellipse fill="none" stroke="black" cx="649.609" cy="-91" rx="46.8977" ry="18"/>
<text text-anchor="middle" x="649.609" y="-86.8" font-family="Times,serif" font-size="14.00">DrugStore</text>
</g>
<!-- City&#45;&gt;DrugStore -->
<g id="edge5" class="edge"><title>City&#45;&gt;DrugStore</title>
<path fill="none" stroke="#dc4015" d="M755.3,-396.713C746.669,-387.153 737.117,-375.186 730.609,-363 695.03,-296.386 704.31,-272.335 682.609,-200 674.292,-172.278 664.594,-140.616 657.873,-118.775"/>
<ellipse fill="none" stroke="#dc4015" cx="758.074" cy="-399.697" rx="4.00002" ry="4.00002"/>
<polygon fill="#dc4015" stroke="#dc4015" points="657.865,-118.749 659.221,-107.867 656.393,-113.971 654.921,-109.192 654.921,-109.192 654.921,-109.192 656.393,-113.971 650.62,-110.517 657.865,-118.749 657.865,-118.749"/>
</g>
<!-- Hospital -->
<g id="node31" class="node"><title>Hospital</title>
<ellipse fill="none" stroke="black" cx="579.609" cy="-272" rx="40.149" ry="18"/>
<text text-anchor="middle" x="579.609" y="-267.8" font-family="Times,serif" font-size="14.00">Hospital</text>
</g>
<!-- City&#45;&gt;Hospital -->
<g id="edge3" class="edge"><title>City&#45;&gt;Hospital</title>
<path fill="none" stroke="#6bd02f" d="M744.179,-406.406C729.267,-400.53 711.678,-392.31 697.609,-382 671.202,-362.649 672.484,-349.4 648.609,-327 636.051,-315.218 621.107,-303.297 608.342,-293.663"/>
<ellipse fill="none" stroke="#6bd02f" cx="747.961" cy="-407.843" rx="4.00001" ry="4.00001"/>
<polygon fill="#6bd02f" stroke="#6bd02f" points="608.337,-293.659 603.004,-284.078 604.327,-290.673 600.316,-287.687 600.316,-287.687 600.316,-287.687 604.327,-290.673 597.629,-291.297 608.337,-293.659 608.337,-293.659"/>
</g>
<!-- Maternity -->
<g id="node41" class="node"><title>Maternity</title>
<ellipse fill="none" stroke="black" cx="823.609" cy="-218" rx="44.9596" ry="18"/>
<text text-anchor="middle" x="823.609" y="-213.8" font-family="Times,serif" font-size="14.00">Maternity</text>
</g>
<!-- City&#45;&gt;Maternity -->
<g id="edge4" class="edge"><title>City&#45;&gt;Maternity</title>
<path fill="none" stroke="#6cc381" d="M797.477,-397.417C806.412,-387.995 815.771,-375.94 820.609,-363 835.037,-324.409 832.136,-275.843 828.235,-246.128"/>
<ellipse fill="none" stroke="#6cc381" cx="794.538" cy="-400.375" rx="4.00002" ry="4.00002"/>
<polygon fill="#6cc381" stroke="#6cc381" points="828.214,-245.983 831.237,-235.442 827.498,-241.035 826.783,-236.086 826.783,-236.086 826.783,-236.086 827.498,-241.035 822.329,-236.73 828.214,-245.983 828.214,-245.983"/>
</g>
<!-- NursingRoom -->
<g id="node43" class="node"><title>NursingRoom</title>
<ellipse fill="none" stroke="black" cx="1004.61" cy="-218" rx="60.4462" ry="18"/>
<text text-anchor="middle" x="1004.61" y="-213.8" font-family="Times,serif" font-size="14.00">NursingRoom</text>
</g>
<!-- City&#45;&gt;NursingRoom -->
<g id="edge6" class="edge"><title>City&#45;&gt;NursingRoom</title>
<path fill="none" stroke="#0f3534" d="M810.274,-413.057C871.258,-403.986 995.797,-375.382 1043.61,-290 1051.43,-276.04 1050.13,-268.611 1043.61,-254 1041.63,-249.56 1038.77,-245.449 1035.5,-241.723"/>
<ellipse fill="none" stroke="#0f3534" cx="806.066" cy="-413.652" rx="4.00001" ry="4.00001"/>
<polygon fill="#0f3534" stroke="#0f3534" points="1035.44,-241.663 1031.49,-231.432 1031.88,-238.148 1028.33,-234.632 1028.33,-234.632 1028.33,-234.632 1031.88,-238.148 1025.16,-237.832 1035.44,-241.663 1035.44,-241.663"/>
</g>
<!-- Comment -->
<g id="node10" class="node"><title>Comment</title>
<ellipse fill="none" stroke="black" cx="876.609" cy="-91" rx="44.9768" ry="18"/>
<text text-anchor="middle" x="876.609" y="-86.8" font-family="Times,serif" font-size="14.00">Comment</text>
</g>
<!-- Commodity -->
<g id="node11" class="node"><title>Commodity</title>
<ellipse fill="none" stroke="black" cx="1198.61" cy="-91" rx="52.2278" ry="18"/>
<text text-anchor="middle" x="1198.61" y="-86.8" font-family="Times,serif" font-size="14.00">Commodity</text>
</g>
<!-- ConfinementCenter -->
<g id="node12" class="node"><title>ConfinementCenter</title>
<ellipse fill="none" stroke="black" cx="1091.61" cy="-164" rx="79.2385" ry="18"/>
<text text-anchor="middle" x="1091.61" y="-159.8" font-family="Times,serif" font-size="14.00">ConfinementCenter</text>
</g>
<!-- ConfinementCenter&#45;&gt;Comment -->
<g id="edge7" class="edge"><title>ConfinementCenter&#45;&gt;Comment</title>
<path fill="none" stroke="#a9e2c8" d="M1047,-144.797C1031.76,-138.827 1014.54,-132.357 998.609,-127 973.865,-118.68 945.896,-110.566 922.985,-104.248"/>
<ellipse fill="none" stroke="#a9e2c8" cx="1051.06" cy="-146.396" rx="4.00001" ry="4.00001"/>
<polygon fill="#a9e2c8" stroke="#a9e2c8" points="922.82,-104.202 914.36,-97.2251 917.997,-102.884 913.174,-101.566 913.174,-101.566 913.174,-101.566 917.997,-102.884 911.987,-105.907 922.82,-104.202 922.82,-104.202"/>
</g>
<!-- ConfinementCenter&#45;&gt;Commodity -->
<g id="edge8" class="edge"><title>ConfinementCenter&#45;&gt;Commodity</title>
<path fill="none" stroke="#144ec7" d="M1123.13,-142.083C1136.94,-132.92 1153.12,-122.187 1166.94,-113.013"/>
<ellipse fill="none" stroke="#144ec7" cx="1119.49" cy="-144.5" rx="4.00002" ry="4.00002"/>
<polygon fill="#144ec7" stroke="#144ec7" points="1167.31,-112.771 1178.13,-110.991 1171.47,-110.006 1175.64,-107.241 1175.64,-107.241 1175.64,-107.241 1171.47,-110.006 1173.15,-103.492 1167.31,-112.771 1167.31,-112.771"/>
</g>
<!-- Country -->
<g id="node13" class="node"><title>Country</title>
<ellipse fill="none" stroke="black" cx="775.609" cy="-576" rx="39.1887" ry="18"/>
<text text-anchor="middle" x="775.609" y="-571.8" font-family="Times,serif" font-size="14.00">Country</text>
</g>
<!-- Province -->
<g id="node45" class="node"><title>Province</title>
<ellipse fill="none" stroke="black" cx="775.609" cy="-491" rx="41.5852" ry="18"/>
<text text-anchor="middle" x="775.609" y="-486.8" font-family="Times,serif" font-size="14.00">Province</text>
</g>
<!-- Country&#45;&gt;Province -->
<g id="edge9" class="edge"><title>Country&#45;&gt;Province</title>
<path fill="none" stroke="#adb9e3" d="M775.609,-549.621C775.609,-539.992 775.609,-528.992 775.609,-519.202"/>
<ellipse fill="none" stroke="#adb9e3" cx="775.609" cy="-553.802" rx="4" ry="4"/>
<polygon fill="#adb9e3" stroke="#adb9e3" points="775.609,-519.176 780.109,-509.176 775.609,-514.176 775.609,-509.176 775.609,-509.176 775.609,-509.176 775.609,-514.176 771.109,-509.176 775.609,-519.176 775.609,-519.176"/>
</g>
<!-- County&#45;&gt;DrugStore -->
<g id="edge12" class="edge"><title>County&#45;&gt;DrugStore</title>
<path fill="none" stroke="#9c31b5" d="M773.424,-318.758C768.576,-268.065 755.423,-156.227 731.609,-127 723.194,-116.673 711.17,-109.334 698.913,-104.141"/>
<ellipse fill="none" stroke="#9c31b5" cx="773.812" cy="-322.931" rx="4" ry="4"/>
<polygon fill="#9c31b5" stroke="#9c31b5" points="698.897,-104.134 691.154,-96.3687 694.224,-102.354 689.552,-100.574 689.552,-100.574 689.552,-100.574 694.224,-102.354 687.95,-104.779 698.897,-104.134 698.897,-104.134"/>
</g>
<!-- County&#45;&gt;Hospital -->
<g id="edge10" class="edge"><title>County&#45;&gt;Hospital</title>
<path fill="none" stroke="#651150" d="M740.069,-330.659C721.737,-323.816 699.002,-315.388 678.609,-308 659.375,-301.031 637.98,-293.447 620.015,-287.125"/>
<ellipse fill="none" stroke="#651150" cx="743.889" cy="-332.087" rx="4.00001" ry="4.00001"/>
<polygon fill="#651150" stroke="#651150" points="619.857,-287.07 611.914,-279.51 615.14,-285.413 610.423,-283.755 610.423,-283.755 610.423,-283.755 615.14,-285.413 608.931,-288.001 619.857,-287.07 619.857,-287.07"/>
</g>
<!-- County&#45;&gt;Maternity -->
<g id="edge11" class="edge"><title>County&#45;&gt;Maternity</title>
<path fill="none" stroke="#b74be2" d="M784.967,-319.631C793.169,-298.272 805.063,-267.296 813.485,-245.364"/>
<ellipse fill="none" stroke="#b74be2" cx="783.516" cy="-323.408" rx="4.00001" ry="4.00001"/>
<polygon fill="#b74be2" stroke="#b74be2" points="813.5,-245.326 821.285,-237.603 815.292,-240.658 817.085,-235.99 817.085,-235.99 817.085,-235.99 815.292,-240.658 812.884,-234.377 813.5,-245.326 813.5,-245.326"/>
</g>
<!-- County&#45;&gt;NursingRoom -->
<g id="edge13" class="edge"><title>County&#45;&gt;NursingRoom</title>
<path fill="none" stroke="#a5b23e" d="M819.28,-341.043C884.133,-335.641 1001.03,-321.673 1026.61,-290 1037.08,-277.031 1031.38,-259.071 1023.17,-244.459"/>
<ellipse fill="none" stroke="#a5b23e" cx="815.243" cy="-341.369" rx="4" ry="4"/>
<polygon fill="#a5b23e" stroke="#a5b23e" points="1023.11,-244.37 1021.67,-233.499 1020.48,-240.12 1017.85,-235.869 1017.85,-235.869 1017.85,-235.869 1020.48,-240.12 1014.02,-238.238 1023.11,-244.37 1023.11,-244.37"/>
</g>
<!-- Department -->
<g id="node15" class="node"><title>Department</title>
<ellipse fill="none" stroke="black" cx="305.609" cy="-418" rx="51.7002" ry="18"/>
<text text-anchor="middle" x="305.609" y="-413.8" font-family="Times,serif" font-size="14.00">Department</text>
</g>
<!-- Department&#45;&gt;Department -->
<g id="edge14" class="edge"><title>Department&#45;&gt;Department</title>
<path fill="none" stroke="#0faf33" d="M361.988,-424.067C370.046,-423.091 375.459,-421.068 375.459,-418 375.459,-415.182 370.893,-413.246 363.907,-412.193"/>
<ellipse fill="none" stroke="#0faf33" cx="357.913" cy="-424.371" rx="4" ry="4"/>
<polygon fill="#0faf33" stroke="#0faf33" points="363.887,-412.191 354.311,-406.847 358.905,-411.761 353.924,-411.331 353.924,-411.331 353.924,-411.331 358.905,-411.761 353.537,-415.814 363.887,-412.191 363.887,-412.191"/>
<text text-anchor="middle" x="398.393" y="-413.8" font-family="Times,serif" font-size="14.00">children</text>
</g>
<!-- Disease -->
<g id="node16" class="node"><title>Disease</title>
<ellipse fill="none" stroke="black" cx="37.6088" cy="-345" rx="37.7179" ry="18"/>
<text text-anchor="middle" x="37.6088" y="-340.8" font-family="Times,serif" font-size="14.00">Disease</text>
</g>
<!-- Department&#45;&gt;Disease -->
<g id="edge16" class="edge"><title>Department&#45;&gt;Disease</title>
<path fill="none" stroke="#cf5f3e" d="M254.327,-406.29C209.038,-396.414 141.407,-380.645 83.6088,-363 81.0259,-362.211 78.3769,-361.357 75.7179,-360.466"/>
<ellipse fill="none" stroke="#cf5f3e" cx="258.327" cy="-407.157" rx="4.00001" ry="4.00001"/>
<polygon fill="#cf5f3e" stroke="#cf5f3e" points="75.5864,-360.42 67.6269,-352.877 70.8655,-358.773 66.1445,-357.126 66.1445,-357.126 66.1445,-357.126 70.8655,-358.773 64.6621,-361.375 75.5864,-360.42 75.5864,-360.42"/>
</g>
<!-- Doctor -->
<g id="node17" class="node"><title>Doctor</title>
<ellipse fill="none" stroke="black" cx="218.609" cy="-164" rx="34.8285" ry="18"/>
<text text-anchor="middle" x="218.609" y="-159.8" font-family="Times,serif" font-size="14.00">Doctor</text>
</g>
<!-- Department&#45;&gt;Doctor -->
<g id="edge15" class="edge"><title>Department&#45;&gt;Doctor</title>
<path fill="none" stroke="#5027a0" d="M301.552,-391.485C298.337,-373.284 293.278,-348.352 286.609,-327 271.182,-277.609 246.341,-222.54 231.336,-191.006"/>
<ellipse fill="none" stroke="#5027a0" cx="302.306" cy="-395.892" rx="4.00001" ry="4.00001"/>
<polygon fill="#5027a0" stroke="#5027a0" points="231.164,-190.647 230.891,-179.684 228.999,-186.139 226.835,-181.632 226.835,-181.632 226.835,-181.632 228.999,-186.139 222.778,-183.58 231.164,-190.647 231.164,-190.647"/>
</g>
<!-- Department&#45;&gt;Hospital -->
<g id="edge17" class="edge"><title>Department&#45;&gt;Hospital</title>
<path fill="none" stroke="#9435ed" d="M330.69,-394.053C353.524,-374.13 388.88,-345.632 423.609,-327 459.387,-307.805 503.34,-293.318 535.464,-284.206"/>
<polygon fill="#9435ed" stroke="#9435ed" points="330.649,-394.089 320.176,-397.34 326.903,-397.4 323.157,-400.711 323.157,-400.711 323.157,-400.711 326.903,-397.4 326.137,-404.083 330.649,-394.089 330.649,-394.089"/>
<polygon fill="#9435ed" stroke="#9435ed" points="535.816,-284.108 546.654,-285.774 540.634,-282.773 545.452,-281.437 545.452,-281.437 545.452,-281.437 540.634,-282.773 544.25,-277.101 535.816,-284.108 535.816,-284.108"/>
</g>
<!-- DoctorDisease -->
<g id="node18" class="node"><title>DoctorDisease</title>
<ellipse fill="none" stroke="black" cx="89.6088" cy="-91" rx="62.3321" ry="18"/>
<text text-anchor="middle" x="89.6088" y="-86.8" font-family="Times,serif" font-size="14.00">DoctorDisease</text>
</g>
<!-- Disease&#45;&gt;DoctorDisease -->
<g id="edge18" class="edge"><title>Disease&#45;&gt;DoctorDisease</title>
<path fill="none" stroke="#7d263e" d="M36.4624,-318.72C35.5064,-280.339 36.7395,-205.537 56.6088,-146 59.913,-136.099 65.3093,-126.11 70.79,-117.462"/>
<ellipse fill="none" stroke="#7d263e" cx="36.587" cy="-322.783" rx="4" ry="4"/>
<polygon fill="#7d263e" stroke="#7d263e" points="70.8919,-117.31 80.1893,-111.495 73.6698,-113.152 76.4478,-108.995 76.4478,-108.995 76.4478,-108.995 73.6698,-113.152 72.7062,-106.495 70.8919,-117.31 70.8919,-117.31"/>
</g>
<!-- DrugName -->
<g id="node22" class="node"><title>DrugName</title>
<ellipse fill="none" stroke="black" cx="124.609" cy="-272" rx="49.2946" ry="18"/>
<text text-anchor="middle" x="124.609" y="-267.8" font-family="Times,serif" font-size="14.00">DrugName</text>
</g>
<!-- Disease&#45;&gt;DrugName -->
<g id="edge19" class="edge"><title>Disease&#45;&gt;DrugName</title>
<path fill="none" stroke="#bdc377" d="M63.9587,-322.496C74.5617,-313.843 86.7832,-303.869 97.4647,-295.152"/>
<polygon fill="#bdc377" stroke="#bdc377" points="63.8068,-322.62 53.214,-325.456 59.933,-325.781 56.0593,-328.943 56.0593,-328.943 56.0593,-328.943 59.933,-325.781 58.9045,-332.429 63.8068,-322.62 63.8068,-322.62"/>
<polygon fill="#bdc377" stroke="#bdc377" points="97.5329,-295.096 108.126,-292.26 101.407,-291.935 105.28,-288.774 105.28,-288.774 105.28,-288.774 101.407,-291.935 102.435,-285.287 97.5329,-295.096 97.5329,-295.096"/>
</g>
<!-- Doctor&#45;&gt;Comment -->
<g id="edge20" class="edge"><title>Doctor&#45;&gt;Comment</title>
<path fill="none" stroke="#2b9b17" d="M251.723,-148.803C255.023,-147.724 258.355,-146.761 261.609,-146 454.42,-100.892 508.413,-127.017 705.609,-109 745.054,-105.396 789.578,-100.958 823.303,-97.52"/>
<ellipse fill="none" stroke="#2b9b17" cx="247.907" cy="-150.156" rx="4.00001" ry="4.00001"/>
<polygon fill="#2b9b17" stroke="#2b9b17" points="823.457,-97.5044 833.863,-100.964 828.432,-96.9958 833.406,-96.4873 833.406,-96.4873 833.406,-96.4873 828.432,-96.9958 832.948,-92.0106 823.457,-97.5044 823.457,-97.5044"/>
</g>
<!-- Doctor&#45;&gt;DoctorDisease -->
<g id="edge21" class="edge"><title>Doctor&#45;&gt;DoctorDisease</title>
<path fill="none" stroke="#9c9da8" d="M188.277,-146.306C169.755,-136.112 145.948,-123.009 126.36,-112.228"/>
<ellipse fill="none" stroke="#9c9da8" cx="192.042" cy="-148.378" rx="4.00002" ry="4.00002"/>
<polygon fill="#9c9da8" stroke="#9c9da8" points="126.17,-112.123 119.579,-103.358 121.789,-109.712 117.409,-107.301 117.409,-107.301 117.409,-107.301 121.789,-109.712 115.239,-111.243 126.17,-112.123 126.17,-112.123"/>
</g>
<!-- Drug -->
<g id="node19" class="node"><title>Drug</title>
<ellipse fill="none" stroke="black" cx="460.609" cy="-164" rx="28.0651" ry="18"/>
<text text-anchor="middle" x="460.609" y="-159.8" font-family="Times,serif" font-size="14.00">Drug</text>
</g>
<!-- Drug&#45;&gt;Comment -->
<g id="edge22" class="edge"><title>Drug&#45;&gt;Comment</title>
<path fill="none" stroke="#c60ef2" d="M489.881,-148.944C492.79,-147.839 495.732,-146.831 498.609,-146 514.101,-141.524 724.49,-112.646 824.499,-99.0538"/>
<ellipse fill="none" stroke="#c60ef2" cx="486.022" cy="-150.526" rx="4.00001" ry="4.00001"/>
<polygon fill="#c60ef2" stroke="#c60ef2" points="824.78,-99.0158 835.294,-102.129 829.734,-98.3429 834.689,-97.67 834.689,-97.67 834.689,-97.67 829.734,-98.3429 834.083,-93.2109 824.78,-99.0158 824.78,-99.0158"/>
</g>
<!-- Drug&#45;&gt;Commodity -->
<g id="edge23" class="edge"><title>Drug&#45;&gt;Commodity</title>
<path fill="none" stroke="#e5cdc2" d="M489.339,-148.926C492.417,-147.788 495.544,-146.779 498.609,-146 529.332,-138.193 972.479,-107.408 1137.38,-96.151"/>
<ellipse fill="none" stroke="#e5cdc2" cx="485.556" cy="-150.459" rx="4.00001" ry="4.00001"/>
<polygon fill="#e5cdc2" stroke="#e5cdc2" points="1137.86,-96.1187 1148.14,-99.9278 1142.85,-95.7785 1147.84,-95.4382 1147.84,-95.4382 1147.84,-95.4382 1142.85,-95.7785 1147.53,-90.9487 1137.86,-96.1187 1137.86,-96.1187"/>
</g>
<!-- Drug&#45;&gt;DrugStore -->
<g id="edge24" class="edge"><title>Drug&#45;&gt;DrugStore</title>
<path fill="none" stroke="#1cf704" d="M492.28,-148.612C494.414,-147.71 496.538,-146.832 498.609,-146 534.236,-131.685 575.3,-117.122 605.603,-106.733"/>
<polygon fill="#1cf704" stroke="#1cf704" points="492.165,-148.662 481.2,-148.514 487.578,-150.652 482.991,-152.643 482.991,-152.643 482.991,-152.643 487.578,-150.652 484.782,-156.771 492.165,-148.662 492.165,-148.662"/>
<polygon fill="#1cf704" stroke="#1cf704" points="605.979,-106.604 616.896,-107.635 610.711,-104.99 615.443,-103.376 615.443,-103.376 615.443,-103.376 610.711,-104.99 613.991,-99.1165 605.979,-106.604 605.979,-106.604"/>
</g>
<!-- Manufactory -->
<g id="node40" class="node"><title>Manufactory</title>
<ellipse fill="none" stroke="black" cx="412.609" cy="-91" rx="55.5596" ry="18"/>
<text text-anchor="middle" x="412.609" y="-86.8" font-family="Times,serif" font-size="14.00">Manufactory</text>
</g>
<!-- Drug&#45;&gt;Manufactory -->
<g id="edge25" class="edge"><title>Drug&#45;&gt;Manufactory</title>
<path fill="none" stroke="#2ecc4f" d="M444.344,-138.941C439.617,-131.95 434.443,-124.296 429.669,-117.235"/>
<polygon fill="#2ecc4f" stroke="#2ecc4f" points="444.355,-138.958 446.228,-149.763 447.156,-143.101 449.956,-147.243 449.956,-147.243 449.956,-147.243 447.156,-143.101 453.684,-144.722 444.355,-138.958 444.355,-138.958"/>
<polygon fill="#2ecc4f" stroke="#2ecc4f" points="429.501,-116.987 427.629,-106.182 426.701,-112.845 423.901,-108.702 423.901,-108.702 423.901,-108.702 426.701,-112.845 420.173,-111.223 429.501,-116.987 429.501,-116.987"/>
</g>
<!-- DrugCategory -->
<g id="node20" class="node"><title>DrugCategory</title>
<ellipse fill="none" stroke="black" cx="153.609" cy="-345" rx="60.896" ry="18"/>
<text text-anchor="middle" x="153.609" y="-340.8" font-family="Times,serif" font-size="14.00">DrugCategory</text>
</g>
<!-- DrugCategory&#45;&gt;DrugCategory -->
<g id="edge26" class="edge"><title>DrugCategory&#45;&gt;DrugCategory</title>
<path fill="none" stroke="#6b1ee9" d="M218.283,-350.935C226.721,-349.915 232.306,-347.937 232.306,-345 232.306,-342.33 227.69,-340.453 220.511,-339.367"/>
<ellipse fill="none" stroke="#6b1ee9" cx="214.19" cy="-351.264" rx="4" ry="4"/>
<polygon fill="#6b1ee9" stroke="#6b1ee9" points="220.16,-339.334 210.616,-333.934 215.181,-338.875 210.202,-338.415 210.202,-338.415 210.202,-338.415 215.181,-338.875 209.789,-342.896 220.16,-339.334 220.16,-339.334"/>
<text text-anchor="middle" x="255.241" y="-340.8" font-family="Times,serif" font-size="14.00">children</text>
</g>
<!-- DrugCategory&#45;&gt;DrugName -->
<g id="edge27" class="edge"><title>DrugCategory&#45;&gt;DrugName</title>
<path fill="none" stroke="#2ff227" d="M143.548,-319.367C140.953,-313.014 138.148,-306.147 135.512,-299.694"/>
<ellipse fill="none" stroke="#2ff227" cx="145.076" cy="-323.11" rx="4.00002" ry="4.00002"/>
<polygon fill="#2ff227" stroke="#2ff227" points="135.346,-299.286 135.73,-288.327 133.455,-294.658 131.564,-290.029 131.564,-290.029 131.564,-290.029 133.455,-294.658 127.398,-291.73 135.346,-299.286 135.346,-299.286"/>
</g>
<!-- DrugDetail -->
<g id="node21" class="node"><title>DrugDetail</title>
<ellipse fill="none" stroke="black" cx="115.609" cy="-164" rx="49.7792" ry="18"/>
<text text-anchor="middle" x="115.609" y="-159.8" font-family="Times,serif" font-size="14.00">DrugDetail</text>
</g>
<!-- DrugName&#45;&gt;Drug -->
<g id="edge28" class="edge"><title>DrugName&#45;&gt;Drug</title>
<path fill="none" stroke="#ce5b27" d="M172.485,-258.989C232.108,-243.522 336.71,-214.709 423.609,-182 425.494,-181.29 427.419,-180.528 429.35,-179.733"/>
<ellipse fill="none" stroke="#ce5b27" cx="168.25" cy="-260.082" rx="4.00001" ry="4.00001"/>
<polygon fill="#ce5b27" stroke="#ce5b27" points="429.738,-179.565 440.703,-179.716 434.326,-177.576 438.913,-175.588 438.913,-175.588 438.913,-175.588 434.326,-177.576 437.123,-171.459 429.738,-179.565 429.738,-179.565"/>
</g>
<!-- DrugName&#45;&gt;DrugDetail -->
<g id="edge29" class="edge"><title>DrugName&#45;&gt;DrugDetail</title>
<path fill="none" stroke="#4e2cb8" d="M122.469,-245.795C121.105,-229.735 119.338,-208.927 117.939,-192.45"/>
<ellipse fill="none" stroke="#4e2cb8" cx="122.824" cy="-249.984" rx="4" ry="4"/>
<polygon fill="#4e2cb8" stroke="#4e2cb8" points="117.927,-192.305 121.565,-181.96 117.504,-187.323 117.081,-182.341 117.081,-182.341 117.081,-182.341 117.504,-187.323 112.597,-182.721 117.927,-192.305 117.927,-192.305"/>
</g>
<!-- DrugStoreAdmin -->
<g id="node24" class="node"><title>DrugStoreAdmin</title>
<ellipse fill="none" stroke="black" cx="342.609" cy="-164" rx="71.529" ry="18"/>
<text text-anchor="middle" x="342.609" y="-159.8" font-family="Times,serif" font-size="14.00">DrugStoreAdmin</text>
</g>
<!-- DrugStoreAdmin&#45;&gt;DrugStore -->
<g id="edge30" class="edge"><title>DrugStoreAdmin&#45;&gt;DrugStore</title>
<path fill="none" stroke="#2ce04c" d="M401.378,-149.408C459.147,-136.048 546.307,-115.891 600.493,-103.359"/>
<ellipse fill="none" stroke="#2ce04c" cx="397.201" cy="-150.374" rx="4.00001" ry="4.00001"/>
<polygon fill="#2ce04c" stroke="#2ce04c" points="600.799,-103.288 611.556,-105.419 605.671,-102.162 610.542,-101.035 610.542,-101.035 610.542,-101.035 605.671,-102.162 609.528,-96.6507 600.799,-103.288 600.799,-103.288"/>
</g>
<!-- Editor -->
<g id="node25" class="node"><title>Editor</title>
<ellipse fill="none" stroke="black" cx="1190.61" cy="-576" rx="32.4237" ry="18"/>
<text text-anchor="middle" x="1190.61" y="-571.8" font-family="Times,serif" font-size="14.00">Editor</text>
</g>
<!-- Examination -->
<g id="node26" class="node"><title>Examination</title>
<ellipse fill="none" stroke="black" cx="1357.61" cy="-164" rx="55.0922" ry="18"/>
<text text-anchor="middle" x="1357.61" y="-159.8" font-family="Times,serif" font-size="14.00">Examination</text>
</g>
<!-- Examination&#45;&gt;Comment -->
<g id="edge31" class="edge"><title>Examination&#45;&gt;Comment</title>
<path fill="none" stroke="#023a3c" d="M1300.36,-154.55C1205.88,-140.603 1018.75,-112.982 928.155,-99.6087"/>
<ellipse fill="none" stroke="#023a3c" cx="1304.44" cy="-155.151" rx="4.00001" ry="4.00001"/>
<polygon fill="#023a3c" stroke="#023a3c" points="928.014,-99.5879 918.778,-93.6758 923.067,-98.8577 918.121,-98.1276 918.121,-98.1276 918.121,-98.1276 923.067,-98.8577 917.464,-102.579 928.014,-99.5879 928.014,-99.5879"/>
</g>
<!-- Examination&#45;&gt;Commodity -->
<g id="edge32" class="edge"><title>Examination&#45;&gt;Commodity</title>
<path fill="none" stroke="#3f1478" d="M1332.85,-141.466C1325.97,-136.215 1318.27,-130.974 1310.61,-127 1292.05,-117.379 1270.37,-109.848 1251.06,-104.276"/>
<ellipse fill="none" stroke="#3f1478" cx="1336.29" cy="-144.189" rx="4.00002" ry="4.00002"/>
<polygon fill="#3f1478" stroke="#3f1478" points="1250.84,-104.216 1242.41,-97.2048 1246.03,-102.878 1241.21,-101.541 1241.21,-101.541 1241.21,-101.541 1246.03,-102.878 1240,-105.877 1250.84,-104.216 1250.84,-104.216"/>
</g>
<!-- ExaminationDetail -->
<g id="node28" class="node"><title>ExaminationDetail</title>
<ellipse fill="none" stroke="black" cx="1374.61" cy="-91" rx="76.8071" ry="18"/>
<text text-anchor="middle" x="1374.61" y="-86.8" font-family="Times,serif" font-size="14.00">ExaminationDetail</text>
</g>
<!-- Examination&#45;&gt;ExaminationDetail -->
<g id="edge33" class="edge"><title>Examination&#45;&gt;ExaminationDetail</title>
<path fill="none" stroke="#12676b" d="M1363.64,-137.791C1365.11,-131.683 1366.68,-125.13 1368.16,-118.946"/>
<ellipse fill="none" stroke="#12676b" cx="1362.66" cy="-141.923" rx="4.00001" ry="4.00001"/>
<polygon fill="#12676b" stroke="#12676b" points="1368.2,-118.754 1374.91,-110.077 1369.37,-113.891 1370.53,-109.029 1370.53,-109.029 1370.53,-109.029 1369.37,-113.891 1366.16,-107.981 1368.2,-118.754 1368.2,-118.754"/>
</g>
<!-- ExaminationCategory -->
<g id="node27" class="node"><title>ExaminationCategory</title>
<ellipse fill="none" stroke="black" cx="1403.61" cy="-272" rx="87.9239" ry="18"/>
<text text-anchor="middle" x="1403.61" y="-267.8" font-family="Times,serif" font-size="14.00">ExaminationCategory</text>
</g>
<!-- ExaminationCategory&#45;&gt;Examination -->
<g id="edge35" class="edge"><title>ExaminationCategory&#45;&gt;Examination</title>
<path fill="none" stroke="#503661" d="M1392.99,-246.534C1385.82,-230.004 1376.36,-208.198 1369.02,-191.296"/>
<ellipse fill="none" stroke="#503661" cx="1394.63" cy="-250.3" rx="4.00002" ry="4.00002"/>
<polygon fill="#503661" stroke="#503661" points="1368.96,-191.162 1369.11,-180.197 1366.97,-186.575 1364.98,-181.988 1364.98,-181.988 1364.98,-181.988 1366.97,-186.575 1360.85,-183.78 1368.96,-191.162 1368.96,-191.162"/>
</g>
<!-- ExaminationCategory&#45;&gt;ExaminationCategory -->
<g id="edge34" class="edge"><title>ExaminationCategory&#45;&gt;ExaminationCategory</title>
<path fill="none" stroke="#316835" d="M1494.14,-277.556C1503.4,-276.46 1509.32,-274.608 1509.32,-272 1509.32,-269.573 1504.2,-267.801 1496.02,-266.683"/>
<ellipse fill="none" stroke="#316835" cx="1490.03" cy="-277.921" rx="4" ry="4"/>
<polygon fill="#316835" stroke="#316835" points="1496,-266.681 1486.48,-261.247 1491.03,-266.204 1486.05,-265.726 1486.05,-265.726 1486.05,-265.726 1491.03,-266.204 1485.62,-270.206 1496,-266.681 1496,-266.681"/>
<text text-anchor="middle" x="1532.26" y="-267.8" font-family="Times,serif" font-size="14.00">children</text>
</g>
<!-- Feedback -->
<g id="node29" class="node"><title>Feedback</title>
<ellipse fill="none" stroke="black" cx="1513.61" cy="-91" rx="43.9819" ry="18"/>
<text text-anchor="middle" x="1513.61" y="-86.8" font-family="Times,serif" font-size="14.00">Feedback</text>
</g>
<!-- HealthInformation -->
<g id="node30" class="node"><title>HealthInformation</title>
<ellipse fill="none" stroke="black" cx="1316.61" cy="-576" rx="75.838" ry="18"/>
<text text-anchor="middle" x="1316.61" y="-571.8" font-family="Times,serif" font-size="14.00">HealthInformation</text>
</g>
<!-- Hospital&#45;&gt;Comment -->
<g id="edge37" class="edge"><title>Hospital&#45;&gt;Comment</title>
<path fill="none" stroke="#3c1e99" d="M610.12,-252.611C666.371,-218.709 785.948,-146.64 843.844,-111.747"/>
<ellipse fill="none" stroke="#3c1e99" cx="606.34" cy="-254.889" rx="4.00002" ry="4.00002"/>
<polygon fill="#3c1e99" stroke="#3c1e99" points="844.022,-111.64 854.91,-110.332 848.305,-109.059 852.587,-106.478 852.587,-106.478 852.587,-106.478 848.305,-109.059 850.264,-102.624 844.022,-111.64 844.022,-111.64"/>
</g>
<!-- Hospital&#45;&gt;Doctor -->
<g id="edge36" class="edge"><title>Hospital&#45;&gt;Doctor</title>
<path fill="none" stroke="#dccf3b" d="M538.318,-260.016C464.655,-240.325 313.443,-199.448 261.609,-182 259.212,-181.193 256.754,-180.328 254.287,-179.43"/>
<ellipse fill="none" stroke="#dccf3b" cx="542.189" cy="-261.05" rx="4.00001" ry="4.00001"/>
<polygon fill="#dccf3b" stroke="#dccf3b" points="254.186,-179.392 246.416,-171.654 249.507,-177.628 244.828,-175.865 244.828,-175.865 244.828,-175.865 249.507,-177.628 243.241,-180.075 254.186,-179.392 254.186,-179.392"/>
</g>
<!-- Recommendation -->
<g id="node47" class="node"><title>Recommendation</title>
<ellipse fill="none" stroke="black" cx="579.609" cy="-164" rx="72.4722" ry="18"/>
<text text-anchor="middle" x="579.609" y="-159.8" font-family="Times,serif" font-size="14.00">Recommendation</text>
</g>
<!-- Hospital&#45;&gt;Recommendation -->
<g id="edge38" class="edge"><title>Hospital&#45;&gt;Recommendation</title>
<path fill="none" stroke="#59ebf5" d="M579.609,-245.795C579.609,-229.735 579.609,-208.927 579.609,-192.45"/>
<ellipse fill="none" stroke="#59ebf5" cx="579.609" cy="-249.969" rx="4" ry="4"/>
<polygon fill="#59ebf5" stroke="#59ebf5" points="579.609,-192.341 584.109,-182.341 579.609,-187.341 579.609,-182.341 579.609,-182.341 579.609,-182.341 579.609,-187.341 575.109,-182.341 579.609,-192.341 579.609,-192.341"/>
</g>
<!-- HospitalCategory -->
<g id="node32" class="node"><title>HospitalCategory</title>
<ellipse fill="none" stroke="black" cx="504.609" cy="-345" rx="72.4808" ry="18"/>
<text text-anchor="middle" x="504.609" y="-340.8" font-family="Times,serif" font-size="14.00">HospitalCategory</text>
</g>
<!-- HospitalCategory&#45;&gt;Hospital -->
<g id="edge40" class="edge"><title>HospitalCategory&#45;&gt;Hospital</title>
<path fill="none" stroke="#3e684c" d="M528.452,-321.428C537.223,-313.125 547.148,-303.73 555.906,-295.439"/>
<ellipse fill="none" stroke="#3e684c" cx="525.288" cy="-324.424" rx="4.00002" ry="4.00002"/>
<polygon fill="#3e684c" stroke="#3e684c" points="555.982,-295.367 566.338,-291.76 559.613,-291.93 563.244,-288.492 563.244,-288.492 563.244,-288.492 559.613,-291.93 560.15,-285.224 555.982,-295.367 555.982,-295.367"/>
</g>
<!-- HospitalCategory&#45;&gt;HospitalCategory -->
<g id="edge39" class="edge"><title>HospitalCategory&#45;&gt;HospitalCategory</title>
<path fill="none" stroke="#5fda74" d="M580.555,-350.757C589.368,-349.693 595.099,-347.774 595.099,-345 595.099,-342.448 590.248,-340.619 582.61,-339.515"/>
<ellipse fill="none" stroke="#5fda74" cx="576.471" cy="-351.108" rx="4" ry="4"/>
<polygon fill="#5fda74" stroke="#5fda74" points="582.441,-339.499 572.912,-334.071 577.463,-339.025 572.486,-338.55 572.486,-338.55 572.486,-338.55 577.463,-339.025 572.059,-343.03 582.441,-339.499 582.441,-339.499"/>
<text text-anchor="middle" x="618.034" y="-340.8" font-family="Times,serif" font-size="14.00">children</text>
</g>
<!-- HotAction -->
<g id="node33" class="node"><title>HotAction</title>
<ellipse fill="none" stroke="black" cx="1457.61" cy="-576" rx="47.3823" ry="18"/>
<text text-anchor="middle" x="1457.61" y="-571.8" font-family="Times,serif" font-size="14.00">HotAction</text>
</g>
<!-- HotWord -->
<g id="node34" class="node"><title>HotWord</title>
<ellipse fill="none" stroke="black" cx="1565.61" cy="-576" rx="42.6078" ry="18"/>
<text text-anchor="middle" x="1565.61" y="-571.8" font-family="Times,serif" font-size="14.00">HotWord</text>
</g>
<!-- ImportDrug -->
<g id="node35" class="node"><title>ImportDrug</title>
<ellipse fill="none" stroke="black" cx="1678.61" cy="-576" rx="52.202" ry="18"/>
<text text-anchor="middle" x="1678.61" y="-571.8" font-family="Times,serif" font-size="14.00">ImportDrug</text>
</g>
<!-- Information -->
<g id="node36" class="node"><title>Information</title>
<ellipse fill="none" stroke="black" cx="1857.61" cy="-91" rx="52.1934" ry="18"/>
<text text-anchor="middle" x="1857.61" y="-86.8" font-family="Times,serif" font-size="14.00">Information</text>
</g>
<!-- InformationCategory -->
<g id="node37" class="node"><title>InformationCategory</title>
<ellipse fill="none" stroke="black" cx="1795.61" cy="-164" rx="84.5255" ry="18"/>
<text text-anchor="middle" x="1795.61" y="-159.8" font-family="Times,serif" font-size="14.00">InformationCategory</text>
</g>
<!-- InformationCategory&#45;&gt;Information -->
<g id="edge43" class="edge"><title>InformationCategory&#45;&gt;Information</title>
<path fill="none" stroke="#ba2e7e" d="M1815.64,-140.061C1822.19,-132.565 1829.48,-124.212 1836.13,-116.599"/>
<ellipse fill="none" stroke="#ba2e7e" cx="1812.93" cy="-143.161" rx="4.00002" ry="4.00002"/>
<polygon fill="#ba2e7e" stroke="#ba2e7e" points="1836.44,-116.238 1846.41,-111.665 1839.73,-112.471 1843.02,-108.705 1843.02,-108.705 1843.02,-108.705 1839.73,-112.471 1839.63,-105.745 1836.44,-116.238 1836.44,-116.238"/>
</g>
<!-- InformationCategory&#45;&gt;InformationCategory -->
<g id="edge41" class="edge"><title>InformationCategory&#45;&gt;InformationCategory</title>
<path fill="none" stroke="#c7548b" d="M1883.33,-169.591C1892.5,-168.499 1898.37,-166.635 1898.37,-164 1898.37,-161.573 1893.39,-159.801 1885.44,-158.683"/>
<ellipse fill="none" stroke="#c7548b" cx="1879.3" cy="-169.948" rx="4" ry="4"/>
<polygon fill="#c7548b" stroke="#c7548b" points="1885.27,-158.666 1875.76,-153.22 1880.3,-158.183 1875.32,-157.699 1875.32,-157.699 1875.32,-157.699 1880.3,-158.183 1874.88,-162.178 1885.27,-158.666 1885.27,-158.666"/>
<text text-anchor="middle" x="1921.31" y="-159.8" font-family="Times,serif" font-size="14.00">children</text>
</g>
<!-- Subscription -->
<g id="node48" class="node"><title>Subscription</title>
<ellipse fill="none" stroke="black" cx="1732.61" cy="-91" rx="54.6334" ry="18"/>
<text text-anchor="middle" x="1732.61" y="-86.8" font-family="Times,serif" font-size="14.00">Subscription</text>
</g>
<!-- InformationCategory&#45;&gt;Subscription -->
<g id="edge42" class="edge"><title>InformationCategory&#45;&gt;Subscription</title>
<path fill="none" stroke="#435a18" d="M1773.96,-138.606C1767.54,-131.365 1760.51,-123.439 1754.09,-116.21"/>
<polygon fill="#435a18" stroke="#435a18" points="1774.04,-138.694 1777.31,-149.161 1777.36,-142.434 1780.68,-146.174 1780.68,-146.174 1780.68,-146.174 1777.36,-142.434 1784.04,-143.187 1774.04,-138.694 1774.04,-138.694"/>
<polygon fill="#435a18" stroke="#435a18" points="1754.07,-116.185 1750.8,-105.719 1750.75,-112.445 1747.43,-108.705 1747.43,-108.705 1747.43,-108.705 1750.75,-112.445 1744.07,-111.692 1754.07,-116.185 1754.07,-116.185"/>
</g>
<!-- Insurance -->
<g id="node38" class="node"><title>Insurance</title>
<ellipse fill="none" stroke="black" cx="912.609" cy="-164" rx="44.4578" ry="18"/>
<text text-anchor="middle" x="912.609" y="-159.8" font-family="Times,serif" font-size="14.00">Insurance</text>
</g>
<!-- Insurance&#45;&gt;Comment -->
<g id="edge44" class="edge"><title>Insurance&#45;&gt;Comment</title>
<path fill="none" stroke="#3465ef" d="M900.388,-138.898C896.926,-132.071 893.145,-124.613 889.637,-117.695"/>
<ellipse fill="none" stroke="#3465ef" cx="902.268" cy="-142.606" rx="4.00002" ry="4.00002"/>
<polygon fill="#3465ef" stroke="#3465ef" points="889.601,-117.624 889.093,-106.67 887.34,-113.165 885.079,-108.705 885.079,-108.705 885.079,-108.705 887.34,-113.165 881.065,-110.74 889.601,-117.624 889.601,-117.624"/>
</g>
<!-- Insurance&#45;&gt;Commodity -->
<g id="edge45" class="edge"><title>Insurance&#45;&gt;Commodity</title>
<path fill="none" stroke="#5511d7" d="M960.351,-153.875C1008.43,-144.636 1077.22,-131.257 1089.61,-128 1111.21,-122.321 1134.79,-114.715 1154.47,-107.958"/>
<ellipse fill="none" stroke="#5511d7" cx="956.158" cy="-154.68" rx="4.00001" ry="4.00001"/>
<polygon fill="#5511d7" stroke="#5511d7" points="1154.64,-107.899 1165.56,-108.87 1159.36,-106.259 1164.08,-104.619 1164.08,-104.619 1164.08,-104.619 1159.36,-106.259 1162.61,-100.368 1154.64,-107.899 1154.64,-107.899"/>
</g>
<!-- InsuranceCompany -->
<g id="node39" class="node"><title>InsuranceCompany</title>
<ellipse fill="none" stroke="black" cx="938.609" cy="-272" rx="78.7367" ry="18"/>
<text text-anchor="middle" x="938.609" y="-267.8" font-family="Times,serif" font-size="14.00">InsuranceCompany</text>
</g>
<!-- InsuranceCompany&#45;&gt;Insurance -->
<g id="edge46" class="edge"><title>InsuranceCompany&#45;&gt;Insurance</title>
<path fill="none" stroke="#2a8b07" d="M932.479,-246.008C928.509,-229.823 923.339,-208.748 919.269,-192.152"/>
<ellipse fill="none" stroke="#2a8b07" cx="933.479" cy="-250.084" rx="4.00001" ry="4.00001"/>
<polygon fill="#2a8b07" stroke="#2a8b07" points="919.158,-191.701 921.146,-180.916 917.967,-186.845 916.776,-181.988 916.776,-181.988 916.776,-181.988 917.967,-186.845 912.405,-183.06 919.158,-191.701 919.158,-191.701"/>
</g>
<!-- Maternity&#45;&gt;Comment -->
<g id="edge47" class="edge"><title>Maternity&#45;&gt;Comment</title>
<path fill="none" stroke="#a2114d" d="M818.699,-191.996C816.276,-173.012 815.836,-146.875 826.609,-127 829.933,-120.866 834.855,-115.572 840.333,-111.092"/>
<ellipse fill="none" stroke="#a2114d" cx="819.287" cy="-195.954" rx="4.00001" ry="4.00001"/>
<polygon fill="#a2114d" stroke="#a2114d" points="840.523,-110.955 851.267,-108.757 844.579,-108.031 848.635,-105.107 848.635,-105.107 848.635,-105.107 844.579,-108.031 846.004,-101.457 840.523,-110.955 840.523,-110.955"/>
</g>
<!-- Maternity&#45;&gt;Commodity -->
<g id="edge48" class="edge"><title>Maternity&#45;&gt;Commodity</title>
<path fill="none" stroke="#15d7db" d="M872.132,-208.802C891.792,-205.698 914.739,-202.35 935.609,-200 962.623,-196.958 1159.14,-199.888 1179.61,-182 1197.12,-166.698 1200.86,-139.685 1200.82,-119.234"/>
<ellipse fill="none" stroke="#15d7db" cx="868.157" cy="-209.436" rx="4.00001" ry="4.00001"/>
<polygon fill="#15d7db" stroke="#15d7db" points="1200.82,-119.23 1205.01,-109.096 1200.67,-114.232 1200.52,-109.234 1200.52,-109.234 1200.52,-109.234 1200.67,-114.232 1196.02,-109.373 1200.82,-119.23 1200.82,-119.23"/>
</g>
<!-- Medical -->
<g id="node42" class="node"><title>Medical</title>
<ellipse fill="none" stroke="black" cx="1258.61" cy="-272" rx="39.1627" ry="18"/>
<text text-anchor="middle" x="1258.61" y="-267.8" font-family="Times,serif" font-size="14.00">Medical</text>
</g>
<!-- Medical&#45;&gt;Comment -->
<g id="edge49" class="edge"><title>Medical&#45;&gt;Comment</title>
<path fill="none" stroke="#90615d" d="M1221.86,-256.61C1183.23,-241.687 1120.55,-218.056 1065.61,-200 1038.35,-191.041 1028.5,-196.269 1003.61,-182 983.425,-170.431 984.103,-160.114 965.609,-146 948.638,-133.048 928.379,-120.552 911.48,-110.848"/>
<ellipse fill="none" stroke="#90615d" cx="1226" cy="-258.213" rx="4.00001" ry="4.00001"/>
<polygon fill="#90615d" stroke="#90615d" points="911.185,-110.681 904.695,-101.842 906.832,-108.22 902.48,-105.759 902.48,-105.759 902.48,-105.759 906.832,-108.22 900.265,-109.676 911.185,-110.681 911.185,-110.681"/>
</g>
<!-- Medical&#45;&gt;Commodity -->
<g id="edge50" class="edge"><title>Medical&#45;&gt;Commodity</title>
<path fill="none" stroke="#87a771" d="M1257.79,-245.401C1255.92,-215.516 1249.89,-165.304 1230.61,-127 1228.65,-123.112 1226.14,-119.336 1223.38,-115.793"/>
<ellipse fill="none" stroke="#87a771" cx="1258.02" cy="-249.632" rx="4" ry="4"/>
<polygon fill="#87a771" stroke="#87a771" points="1223.19,-115.572 1220.06,-105.063 1219.92,-111.788 1216.65,-108.004 1216.65,-108.004 1216.65,-108.004 1219.92,-111.788 1213.25,-110.945 1223.19,-115.572 1223.19,-115.572"/>
</g>
<!-- Medical&#45;&gt;Examination -->
<g id="edge51" class="edge"><title>Medical&#45;&gt;Examination</title>
<path fill="none" stroke="#817fb3" d="M1279.16,-248.992C1295.41,-231.602 1318.06,-207.347 1334.85,-189.371"/>
<ellipse fill="none" stroke="#817fb3" cx="1276.38" cy="-251.978" rx="4.00002" ry="4.00002"/>
<polygon fill="#817fb3" stroke="#817fb3" points="1335.28,-188.909 1345.39,-184.672 1338.69,-185.255 1342.1,-181.601 1342.1,-181.601 1342.1,-181.601 1338.69,-185.255 1338.82,-178.529 1335.28,-188.909 1335.28,-188.909"/>
</g>
<!-- NursingRoom&#45;&gt;Comment -->
<g id="edge52" class="edge"><title>NursingRoom&#45;&gt;Comment</title>
<path fill="none" stroke="#db967e" d="M941.068,-209.472C907.027,-203.991 869.99,-195.186 859.609,-182 845.322,-163.855 852.718,-137.331 861.791,-117.776"/>
<ellipse fill="none" stroke="#db967e" cx="945.229" cy="-210.116" rx="4.00001" ry="4.00001"/>
<polygon fill="#db967e" stroke="#db967e" points="861.809,-117.741 870.315,-110.821 864.051,-113.272 866.293,-108.803 866.293,-108.803 866.293,-108.803 864.051,-113.272 862.271,-106.785 861.809,-117.741 861.809,-117.741"/>
</g>
<!-- NursingRoom&#45;&gt;Commodity -->
<g id="edge53" class="edge"><title>NursingRoom&#45;&gt;Commodity</title>
<path fill="none" stroke="#9c0cf5" d="M1072.38,-214.788C1126.03,-211.44 1194.81,-203.043 1212.61,-182 1227.37,-164.545 1221,-138.101 1212.65,-118.388"/>
<ellipse fill="none" stroke="#9c0cf5" cx="1068.24" cy="-215.031" rx="4" ry="4"/>
<polygon fill="#9c0cf5" stroke="#9c0cf5" points="1212.53,-118.129 1212.43,-107.164 1210.43,-113.589 1208.34,-109.049 1208.34,-109.049 1208.34,-109.049 1210.43,-113.589 1204.25,-110.933 1212.53,-118.129 1212.53,-118.129"/>
</g>
<!-- Part -->
<g id="node44" class="node"><title>Part</title>
<ellipse fill="none" stroke="black" cx="1775.61" cy="-576" rx="27" ry="18"/>
<text text-anchor="middle" x="1775.61" y="-571.8" font-family="Times,serif" font-size="14.00">Part</text>
</g>
<!-- Symptom -->
<g id="node49" class="node"><title>Symptom</title>
<ellipse fill="none" stroke="black" cx="1775.61" cy="-491" rx="44.5096" ry="18"/>
<text text-anchor="middle" x="1775.61" y="-486.8" font-family="Times,serif" font-size="14.00">Symptom</text>
</g>
<!-- Part&#45;&gt;Symptom -->
<g id="edge54" class="edge"><title>Part&#45;&gt;Symptom</title>
<path fill="none" stroke="#41e7cd" d="M1775.61,-549.621C1775.61,-539.992 1775.61,-528.992 1775.61,-519.202"/>
<ellipse fill="none" stroke="#41e7cd" cx="1775.61" cy="-553.802" rx="4" ry="4"/>
<polygon fill="#41e7cd" stroke="#41e7cd" points="1775.61,-519.176 1780.11,-509.176 1775.61,-514.176 1775.61,-509.176 1775.61,-509.176 1775.61,-509.176 1775.61,-514.176 1771.11,-509.176 1775.61,-519.176 1775.61,-519.176"/>
</g>
<!-- Province&#45;&gt;City -->
<g id="edge55" class="edge"><title>Province&#45;&gt;City</title>
<path fill="none" stroke="#0da1c3" d="M775.609,-464.791C775.609,-458.832 775.609,-452.45 775.609,-446.399"/>
<ellipse fill="none" stroke="#0da1c3" cx="775.609" cy="-468.813" rx="4" ry="4"/>
<polygon fill="#0da1c3" stroke="#0da1c3" points="775.609,-446.029 780.109,-436.029 775.609,-441.029 775.609,-436.029 775.609,-436.029 775.609,-436.029 775.609,-441.029 771.109,-436.029 775.609,-446.029 775.609,-446.029"/>
</g>
<!-- Question -->
<g id="node46" class="node"><title>Question</title>
<ellipse fill="none" stroke="black" cx="1617.61" cy="-91" rx="42.0784" ry="18"/>
<text text-anchor="middle" x="1617.61" y="-86.8" font-family="Times,serif" font-size="14.00">Question</text>
</g>
<!-- Question&#45;&gt;Answer -->
<g id="edge56" class="edge"><title>Question&#45;&gt;Answer</title>
<path fill="none" stroke="#8296e3" d="M1617.61,-64.791C1617.61,-58.832 1617.61,-52.4496 1617.61,-46.3988"/>
<ellipse fill="none" stroke="#8296e3" cx="1617.61" cy="-68.8129" rx="4" ry="4"/>
<polygon fill="#8296e3" stroke="#8296e3" points="1617.61,-46.0288 1622.11,-36.0288 1617.61,-41.0288 1617.61,-36.0288 1617.61,-36.0288 1617.61,-36.0288 1617.61,-41.0288 1613.11,-36.0289 1617.61,-46.0288 1617.61,-46.0288"/>
</g>
<!-- SymptomDetail -->
<g id="node50" class="node"><title>SymptomDetail</title>
<ellipse fill="none" stroke="black" cx="1775.61" cy="-418" rx="66.2253" ry="18"/>
<text text-anchor="middle" x="1775.61" y="-413.8" font-family="Times,serif" font-size="14.00">SymptomDetail</text>
</g>
<!-- Symptom&#45;&gt;SymptomDetail -->
<g id="edge57" class="edge"><title>Symptom&#45;&gt;SymptomDetail</title>
<path fill="none" stroke="#0be56e" d="M1775.61,-464.791C1775.61,-458.832 1775.61,-452.45 1775.61,-446.399"/>
<ellipse fill="none" stroke="#0be56e" cx="1775.61" cy="-468.813" rx="4" ry="4"/>
<polygon fill="#0be56e" stroke="#0be56e" points="1775.61,-446.029 1780.11,-436.029 1775.61,-441.029 1775.61,-436.029 1775.61,-436.029 1775.61,-436.029 1775.61,-441.029 1771.11,-436.029 1775.61,-446.029 1775.61,-446.029"/>
</g>
<!-- User -->
<g id="node51" class="node"><title>User</title>
<ellipse fill="none" stroke="black" cx="1546.61" cy="-164" rx="27" ry="18"/>
<text text-anchor="middle" x="1546.61" y="-159.8" font-family="Times,serif" font-size="14.00">User</text>
</g>
<!-- User&#45;&gt;Comment -->
<g id="edge59" class="edge"><title>User&#45;&gt;Comment</title>
<path fill="none" stroke="#5f8c74" d="M1512.19,-157.976C1487.11,-154.399 1452.29,-149.605 1421.61,-146 1241.89,-124.883 1028.18,-105.319 930.34,-96.6701"/>
<ellipse fill="none" stroke="#5f8c74" cx="1516.35" cy="-158.572" rx="4.00001" ry="4.00001"/>
<polygon fill="#5f8c74" stroke="#5f8c74" points="930.076,-96.6468 920.51,-91.2859 925.095,-96.2077 920.114,-95.7686 920.114,-95.7686 920.114,-95.7686 925.095,-96.2077 919.719,-100.251 930.076,-96.6468 930.076,-96.6468"/>
</g>
<!-- User&#45;&gt;Feedback -->
<g id="edge58" class="edge"><title>User&#45;&gt;Feedback</title>
<path fill="none" stroke="#445c1b" d="M1535.57,-139.251C1532.46,-132.562 1529.06,-125.245 1525.88,-118.41"/>
<ellipse fill="none" stroke="#445c1b" cx="1537.27" cy="-142.905" rx="4.00002" ry="4.00002"/>
<polygon fill="#445c1b" stroke="#445c1b" points="1525.67,-117.939 1525.53,-106.974 1523.56,-113.405 1521.45,-108.871 1521.45,-108.871 1521.45,-108.871 1523.56,-113.405 1517.37,-110.768 1525.67,-117.939 1525.67,-117.939"/>
</g>
<!-- User&#45;&gt;Question -->
<g id="edge60" class="edge"><title>User&#45;&gt;Question</title>
<path fill="none" stroke="#b9dad1" d="M1566.85,-142.761C1575.51,-134.1 1585.67,-123.942 1594.61,-114.997"/>
<ellipse fill="none" stroke="#b9dad1" cx="1563.81" cy="-145.804" rx="4.00002" ry="4.00002"/>
<polygon fill="#b9dad1" stroke="#b9dad1" points="1594.71,-114.9 1604.96,-111.011 1598.24,-111.364 1601.78,-107.829 1601.78,-107.829 1601.78,-107.829 1598.24,-111.364 1598.6,-104.647 1594.71,-114.9 1594.71,-114.9"/>
</g>
<!-- User&#45;&gt;Subscription -->
<g id="edge61" class="edge"><title>User&#45;&gt;Subscription</title>
<path fill="none" stroke="#42ef1d" d="M1577.01,-151.395C1607.41,-139.79 1654.47,-121.827 1688.88,-108.693"/>
<ellipse fill="none" stroke="#42ef1d" cx="1573.15" cy="-152.867" rx="4.00001" ry="4.00001"/>
<polygon fill="#42ef1d" stroke="#42ef1d" points="1688.88,-108.692 1699.83,-109.33 1693.55,-106.909 1698.22,-105.126 1698.22,-105.126 1698.22,-105.126 1693.55,-106.909 1696.62,-100.922 1688.88,-108.692 1688.88,-108.692"/>
</g>
</g>
</svg>
